<svg xmlns="http://www.w3.org/2000/svg" viewBox="0 0 204.815 167.18">
  <defs>
    <style>
      .cls-1 {
        fill: #4664a2;
      }

      .cls-1, .cls-2 {
        stroke: #00050f;
        stroke-width: 0.25px;
      }

      .cls-2 {
        fill: none;
      }
    </style>
  </defs>
  <g id="Groupe_70" data-name="Groupe 70" transform="translate(0.217 0.138)">
    <path id="Tracé_139" data-name="Tracé 139" class="cls-1" d="M544.87,557.393l2.567-2.781v-5.349L544.87,546.7l-2.567-2.567-2.567-2.567-2.567-2.567-5.563-2.781V522.947h2.781v-7.7l5.349-2.781V509.9l2.567-2.567-2.567-2.567h-5.349V501.98l-2.781-2.567v-5.135l-2.567-5.349h2.567l2.781-2.567,5.349-5.349-2.567-5.349h-2.781V473.1l2.781-2.567-2.781-2.781-5.349,2.781-2.567,2.567-5.135-2.567-2.781-2.781H508.285v-5.135l2.353-2.567V457.48l-2.353-2.781-2.781-2.567h-5.349v-5.349l-2.781-2.353v-10.7h-5.135l2.567-5.135-3.851-1.07-3.637-1.284h-5.99V428.6l-4.065.642-.642.642-3-3-5.991,1.712-3.851,2.781-2.139.642h-4.493l-2.353,1.711-3,3-3,3-1.712.642-5.135-1.284h-7.916l-2.353-2.781h-2.781v-2.567H426.13l-2.567-2.781L421,428.6l-2.567-2.781-2.781-2.567V417.9l-2.567-2.567-2.781-2.781-.856-2.139-5.99-1.712-3.851,3.209-3-.856-2.353.856-2.353.642H378.42L376.28,416.4v.856l-3.209-.856-3.851,1.5-.642,2.353-3-2.353h-5.349l-3-3.851h-2.353l-5.349,1.712-.642,3,.642,2.14.856,2.353v2.139l-.856.856L345.9,428.6l3.637,2.781v3.851l3,1.07,2.353-2.567v7.916l-2.353,2.781h-2.781l-2.567,2.353,2.567,2.781v7.916l2.781,2.567v2.567l2.353,2.781,2.781-5.349,2.567-2.567,2.781-5.349v-2.567h2.567l2.781,2.567,2.567,2.567,2.353,2.781,2.781,5.135-2.781,5.135v7.916h5.349v3h2.781l2.567,2.353,2.781,2.781h-8.13l2.781,2.567,2.567,2.567,2.781,5.349h2.353l5.349,5.135v2.567l5.349,2.781,5.349-2.781h2.781l5.135,5.349,5.349,5.135L421,517.813h5.135l2.781,5.135,5.135,3h2.781l2.781,4.921h2.353l2.781,2.781h7.916l2.781,2.567v2.781l2.353,2.567h2.781V546.7h5.135v2.567h5.349V536.212l2.781-2.567h2.353l5.349-2.781,3,2.781,2.353,2.567h5.349v2.781l2.567,5.135V546.7l-2.567,2.567v8.13l2.567,2.567v7.916h2.567v5.349l2.781,2.354,2.781-2.354H505.5v-3l2.781,3h7.7l5.349-3h5.135l2.567-2.354,2.567-3,2.781,3h5.349l2.567-3,2.567-2.139,5.349-2.781Z" transform="translate(-345.9 -408.7)"/>
    <path id="Tracé_140" data-name="Tracé 140" class="cls-2" d="M544.87,557.393l2.567-2.781v-5.349L544.87,546.7l-2.567-2.567-2.567-2.567-2.567-2.567-5.563-2.781V522.947h2.781v-7.7l5.349-2.781V509.9l2.567-2.567-2.567-2.567h-5.349V501.98l-2.781-2.567v-5.135l-2.567-5.349h2.567l2.781-2.567,5.349-5.349-2.567-5.349h-2.781V473.1l2.781-2.567-2.781-2.781-5.349,2.781-2.567,2.567-5.135-2.567-2.781-2.781H508.285v-5.135l2.353-2.567V457.48l-2.353-2.781-2.781-2.567h-5.349v-5.349l-2.781-2.353v-10.7h-5.135l2.567-5.135-3.851-1.07-3.637-1.284h-5.99V428.6l-4.065.642-.642.642-3-3-5.991,1.712-3.851,2.781-2.139.642h-4.493l-2.353,1.711-3,3-3,3-1.712.642-5.135-1.284h-7.916l-2.353-2.781h-2.781v-2.567H426.13l-2.567-2.781L421,428.6l-2.567-2.781-2.781-2.567V417.9l-2.567-2.567-2.781-2.781-.856-2.139-5.99-1.712-3.851,3.209-3-.856-2.353.856-2.353.642H378.42L376.28,416.4v.856l-3.209-.856-3.851,1.5-.642,2.353-3-2.353h-5.349l-3-3.851h-2.353l-5.349,1.712-.642,3,.642,2.14.856,2.353v2.139l-.856.856L345.9,428.6l3.637,2.781v3.851l3,1.07,2.353-2.567v7.916l-2.353,2.781h-2.781l-2.567,2.353,2.567,2.781v7.916l2.781,2.567v2.567l2.353,2.781,2.781-5.349,2.567-2.567,2.781-5.349v-2.567h2.567l2.781,2.567,2.567,2.567,2.353,2.781,2.781,5.135-2.781,5.135v7.916h5.349v3h2.781l2.567,2.353,2.781,2.781h-8.13l2.781,2.567,2.567,2.567,2.781,5.349h2.353l5.349,5.135v2.567l5.349,2.781,5.349-2.781h2.781l5.135,5.349,5.349,5.135L421,517.813h5.135l2.781,5.135,5.135,3h2.781l2.781,4.921h2.353l2.781,2.781h7.916l2.781,2.567v2.781l2.353,2.567h2.781V546.7h5.135v2.567h5.349V536.212l2.781-2.567h2.353l5.349-2.781,3,2.781,2.353,2.567h5.349v2.781l2.567,5.135V546.7l-2.567,2.567v8.13l2.567,2.567v7.916h2.567v5.349l2.781,2.354,2.781-2.354H505.5v-3l2.781,3h7.7l5.349-3h5.135l2.567-2.354,2.567-3,2.781,3h5.349l2.567-3,2.567-2.139,5.349-2.781Z" transform="translate(-345.9 -408.7)"/>
  </g>
</svg>
