<svg xmlns="http://www.w3.org/2000/svg" viewBox="0 0 187.062 175.86">
  <defs>
    <style>
      .cls-1 {
        fill: #4664a2;
      }

      .cls-1, .cls-2 {
        stroke: #00050f;
        stroke-width: 0.25px;
      }

      .cls-2 {
        fill: none;
      }
    </style>
  </defs>
  <g id="Groupe_58" data-name="Groupe 58" transform="translate(0.151 0.141)">
    <path id="Tracé_115" data-name="Tracé 115" class="cls-1" d="M364.877,341.573l2.781,3.637h3.851l.642.428v-3l-2.354-2.353,2.354-2.567,2.781-5.349,5.349-2.567h10.483v-2.781h2.567l2.781-2.567h2.567l2.781-2.567,2.567-2.567,2.567-3,2.567,3,2.781-3h2.567v-2.353h2.781l2.567-2.781L425,313.974h2.567l2.781-2.781h7.916v2.781l2.567,2.353v8.13l2.781,2.567,7.916-2.567h2.567v2.567h8.13v-7.7h2.353l2.781-3v-2.353l-4.707-1.712,4.707-3.637v-2.781l7.916-5.135v7.916h5.135l2.781-2.781,2.567-5.135h-2.567v-2.353h2.567l3.851-.856,2.139,3.209.856,1.926h8.986l3.209-3.423,4.279-1.5,4.493,1.712,2.139,4.279.856,2.139.856,4.707-.856,3.637-.856.428h2.781l-1.925,3,4.493,3.209,4.065,1.07,5.563,4.493v5.563l.856,4.065,1.925,1.712v7.7l1.5,1.926,4.493,5.991,1.5,5.135v8.558l-1.712,4.707-9.841,6.418,2.139,3.209,4.707,1.07-1.712,8.13v1.712l.856,1.07-1.925,7.7,1.5,2.139-1.5,2.139,3.851,2.567,1.926,3.851,4.707,6.2-2.139.856v3.423l2.139.856,1.925,3.637-1.925,5.777-3.209,2.14-5.135-.856-5.135,4.707-1.712,2.781-2.353,4.707-2.781.642-2.353,3-1.07,3.423-1.284,5.777v5.135l-.642,2.353.214,2.781-2.781,3.851-1.07-3.851h-7.7l-2.781-2.781-2.567-2.567-2.781-2.567h-2.353l-2.781-5.349-2.567,2.567-2.781,2.781-7.916,2.567V455.82l-2.567,2.567h-2.567l-2.567-2.567-5.349,2.567v2.781l-2.781,2.567v-5.349l-2.353-2.567-3,2.567h-2.353l-2.781,2.781-2.567-2.781h-5.349l-2.567-2.567-2.781-2.567-2.567-2.567h-5.349l-5.349-2.567-2.567-3-5.135-7.488-2.567,2.353-2.781-2.353H406.6l2.567,2.353H406.6l-2.567,2.781v2.353l-2.567-5.135-2.781-2.353h-5.349l2.781-2.781,2.567-2.567-2.567-2.781h-5.349l-5.135-2.567h-2.781l-2.567-2.781H377.5v-10.27h-2.567l-3.851.642-1.284,1.926V405.971l2.354-2.567H369.8V387.571l-3-5.135v-5.349l3-2.781h-3l-2.353-2.567v-2.567l-2.781-2.567-2.567-5.349,2.567-2.567,2.781-2.781V345.638Z" transform="translate(-359.1 -297.5)"/>
    <path id="Tracé_116" data-name="Tracé 116" class="cls-2" d="M364.877,341.573l2.781,3.637h3.851l.642.428v-3l-2.354-2.353,2.354-2.567,2.781-5.349,5.349-2.567h10.483v-2.781h2.567l2.781-2.567h2.567l2.781-2.567,2.567-2.567,2.567-3,2.567,3,2.781-3h2.567v-2.353h2.781l2.567-2.781L425,313.974h2.567l2.781-2.781h7.916v2.781l2.567,2.353v8.13l2.781,2.567,7.916-2.567h2.567v2.567h8.13v-7.7h2.353l2.781-3v-2.353l-4.707-1.712,4.707-3.637v-2.781l7.916-5.135v7.916h5.135l2.781-2.781,2.567-5.135h-2.567v-2.353h2.567l3.851-.856,2.139,3.209.856,1.926h8.986l3.209-3.423,4.279-1.5,4.493,1.712,2.139,4.279.856,2.139.856,4.707-.856,3.637-.856.428h2.781l-1.925,3,4.493,3.209,4.065,1.07,5.563,4.493v5.563l.856,4.065,1.925,1.712v7.7l1.5,1.926,4.493,5.991,1.5,5.135v8.558l-1.712,4.707-9.841,6.418,2.139,3.209,4.707,1.07-1.712,8.13v1.712l.856,1.07-1.925,7.7,1.5,2.139-1.5,2.139,3.851,2.567,1.926,3.851,4.707,6.2-2.139.856v3.423l2.139.856,1.925,3.637-1.925,5.777-3.209,2.14-5.135-.856-5.135,4.707-1.712,2.781-2.353,4.707-2.781.642-2.353,3-1.07,3.423-1.284,5.777v5.135l-.642,2.353.214,2.781-2.781,3.851-1.07-3.851h-7.7l-2.781-2.781-2.567-2.567-2.781-2.567h-2.353l-2.781-5.349-2.567,2.567-2.781,2.781-7.916,2.567V455.82l-2.567,2.567h-2.567l-2.567-2.567-5.349,2.567v2.781l-2.781,2.567v-5.349l-2.353-2.567-3,2.567h-2.353l-2.781,2.781-2.567-2.781h-5.349l-2.567-2.567-2.781-2.567-2.567-2.567h-5.349l-5.349-2.567-2.567-3-5.135-7.488-2.567,2.353-2.781-2.353H406.6l2.567,2.353H406.6l-2.567,2.781v2.353l-2.567-5.135-2.781-2.353h-5.349l2.781-2.781,2.567-2.567-2.567-2.781h-5.349l-5.135-2.567h-2.781l-2.567-2.781H377.5v-10.27h-2.567l-3.851.642-1.284,1.926V405.971l2.354-2.567H369.8V387.571l-3-5.135v-5.349l3-2.781h-3l-2.353-2.567v-2.567l-2.781-2.567-2.567-5.349,2.567-2.567,2.781-2.781V345.638Z" transform="translate(-359.1 -297.5)"/>
  </g>
</svg>
