<svg xmlns="http://www.w3.org/2000/svg" viewBox="0 0 120.806 62.834">
  <defs>
    <style>
      .cls-1 {
        fill: #4664a2;
      }

      .cls-1, .cls-2 {
        stroke: #00050f;
        stroke-width: 0.25px;
      }

      .cls-2 {
        fill: none;
      }
    </style>
  </defs>
  <g id="Groupe_12" data-name="Groupe 12" transform="translate(0.159 0.211)">
    <path id="Tracé_23" data-name="Tracé 23" class="cls-1" d="M470.517,267.116v18.4l-2.781,2.567-2.567,2.567H462.6l-5.349-5.135-2.567-2.567v-5.563l-5.349-5.135h-2.353l-2.567-2.567v-2.567h-5.135l-5.349,2.567-2.781,2.567h-2.567l-2.139,5.135v5.563l-2.781,5.135-2.781,4.707L418.1,308.622l8.344-2.567h4.707l2.781-2.781h15.4l5.349-2.781H462.6l7.916,2.781,5.135-2.781,2.781,2.781,4.921,2.781,8.13,2.567h2.139l2.781,5.135,8.13,5.349,2.354,2.567h13.265l2.567-2.567,2.567,2.567,5.349-2.567,2.139-2.567-2.139-2.781-2.567-2.353,4.707-2.781,5.349-2.567h.428l-2.567-5.563v-5.135L533.2,290.65v-2.567h-4.921l-2.567-5.135h5.349v-10.7h-2.781l-2.567,2.353v-2.353h-2.781v-2.567h-2.781v-2.567l-5.349,2.567-5.349,2.567-2.567-5.135h-7.7l-2.781-2.567v-2.781h-2.781l-4.707-2.567v2.567h-2.781l-2.781-2.567-2.567,2.567-10.269,2.781Z" transform="translate(-418.1 -259.2)"/>
    <path id="Tracé_24" data-name="Tracé 24" class="cls-2" d="M470.517,267.116v18.4l-2.781,2.567-2.567,2.567H462.6l-5.349-5.135-2.567-2.567v-5.563l-5.349-5.135h-2.353l-2.567-2.567v-2.567h-5.135l-5.349,2.567-2.781,2.567h-2.567l-2.139,5.135v5.563l-2.781,5.135-2.781,4.707L418.1,308.622l8.344-2.567h4.707l2.781-2.781h15.4l5.349-2.781H462.6l7.916,2.781,5.135-2.781,2.781,2.781,4.921,2.781,8.13,2.567h2.139l2.781,5.135,8.13,5.349,2.354,2.567h13.265l2.567-2.567,2.567,2.567,5.349-2.567,2.139-2.567-2.139-2.781-2.567-2.353,4.707-2.781,5.349-2.567h.428l-2.567-5.563v-5.135L533.2,290.65v-2.567h-4.921l-2.567-5.135h5.349v-10.7h-2.781l-2.567,2.353v-2.353h-2.781v-2.567h-2.781v-2.567l-5.349,2.567-5.349,2.567-2.567-5.135h-7.7l-2.781-2.567v-2.781h-2.781l-4.707-2.567v2.567h-2.781l-2.781-2.567-2.567,2.567-10.269,2.781Z" transform="translate(-418.1 -259.2)"/>
  </g>
</svg>
