<svg xmlns="http://www.w3.org/2000/svg" viewBox="0 0 55.839 52.712">
  <defs>
    <style>
      .cls-1 {
        fill: #4664a2;
      }

      .cls-1, .cls-2 {
        stroke: #00050f;
        stroke-width: 0.25px;
      }

      .cls-2 {
        fill: none;
      }
    </style>
  </defs>
  <g id="Groupe_41" data-name="Groupe 41" transform="translate(0.302 0.171)">
    <path id="Tracé_81" data-name="Tracé 81" class="cls-1" d="M250.445,302l-2.781-2.567v-2.567h-5.135V294.3l-8.13,2.567h-2.567l-2.781,2.567h-5.135L221.348,302h-2.781v2.781h2.781L223.915,302l3,2.781L229.05,302h2.781v2.781l-2.781,2.567V312.7h-2.139l2.139,2.567-2.139,2.567h-3l-2.567,2.567-2.781,2.781L216,320.4l-2.567,2.781h-7.916l-2.781-2.781-2.567,2.781v2.567l-2.567,2.567h7.916v2.567h-2.781v2.781h5.349l2.781-2.781H216v5.563h0V338.8h7.916l-2.567,3,2.567,2.353,3,2.567H237.18l2.567-2.567V341.8h2.781v-5.349h-2.781v-5.563l2.781-2.567,2.567-5.135h0l2.567-2.781v-5.135l2.781-2.567,2.567-2.781v-2.567l-2.567-2.567Z" transform="translate(-197.6 -294.3)"/>
    <path id="Tracé_82" data-name="Tracé 82" class="cls-2" d="M250.445,302l-2.781-2.567v-2.567h-5.135V294.3l-8.13,2.567h-2.567l-2.781,2.567h-5.135L221.348,302h-2.781v2.781h2.781L223.915,302l3,2.781L229.05,302h2.781v2.781l-2.781,2.567V312.7h-2.139l2.139,2.567-2.139,2.567h-3l-2.567,2.567-2.781,2.781L216,320.4l-2.567,2.781h-7.916l-2.781-2.781-2.567,2.781v2.567l-2.567,2.567h7.916v2.567h-2.781v2.781h5.349l2.781-2.781H216v5.563h0V338.8h7.916l-2.567,3,2.567,2.353,3,2.567H237.18l2.567-2.567V341.8h2.781v-5.349h-2.781v-5.563l2.781-2.567,2.567-5.135h0l2.567-2.781v-5.135l2.781-2.567,2.567-2.781v-2.567l-2.567-2.567Z" transform="translate(-197.6 -294.3)"/>
  </g>
</svg>
