<svg xmlns="http://www.w3.org/2000/svg" viewBox="0 0 182.193 378.762">
  <defs>
    <style>
      .cls-1 {
        fill: #4664a2;
      }

      .cls-1, .cls-2 {
        stroke: #00050f;
        stroke-width: 0.25px;
      }

      .cls-2 {
        fill: none;
      }
    </style>
  </defs>
  <g id="Groupe_63" data-name="Groupe 63" transform="translate(0 0.125)">
    <path id="Tracé_125" data-name="Tracé 125" class="cls-1" d="M529.268,202.495v-5.563l-2.781-2.353-2.353-5.135V175.965l2.353-2.353-2.353-2.781v-2.567l-2.781-2.781v-7.7H516L518.785,155V144.3L516,141.948V136.6h-2.567l-5.349-2.567-5.135-2.781h-2.567l-2.781-2.567h-2.781v-5.135l-5.135-2.567-5.349-2.781h-5.349v10.483l-5.349-2.567-2.353,7.916V136.6h-2.781l-2.567-2.567-5.349,2.567v7.7h-2.567l-5.135-2.353h-2.781l-2.567,5.349v2.353L439.411,155l-2.567,2.781-2.567,2.567,2.567,2.567,2.567,5.349-2.567,2.567v2.781l-5.135,4.921-5.349,2.781v8.13l-2.781,2.353-5.135,2.781-5.349,2.353v5.563l-2.567,5.349-2.781,2.353V220.68l-2.567,7.916v2.781l-5.135,2.353-2.781,2.781,2.781,5.349V247l2.567,5.135-2.567,3h-8.13l-2.567,2.353-2.567,2.567h-2.567v-2.567l-5.349,2.567-2.781,2.781-2.567,5.135v15.832l-2.567,2.781v7.7l2.567,2.781v7.916l-2.567,5.135v5.135l2.567,3,2.567,2.353v10.483l-7.7,5.349v2.781l2.567,5.135v13.265l-2.567,7.7h-5.349l-2.567,2.567v2.781l-2.781,2.781v2.353l-5.349,5.349,2.781,2.567v5.349l-2.781,2.781-2.353-2.781v-2.781h-2.567v23.748h2.567v5.349l2.353-2.567,2.781,2.567-2.781,5.349v15.618l2.781,2.567-2.781,2.781v5.135l2.781,2.567h2.568v8.13l5.563,2.353v5.349h-2.781V468l-2.781,2.353V475.7l2.781,2.567v2.781l2.781,2.567v7.916l-2.781,2.781,2.781,2.353,2.567-2.353,2.781,2.353,7.7-2.353,2.781,2.353h5.349V483.62l2.353-2.567h5.349l2.781-2.781h-2.781l2.781-2.567,5.349-2.567,5.135,2.567v2.567h10.483v-7.916l5.349-7.7v-5.135l2.567-2.781,2.781-2.781v-2.567h-2.781l2.781-5.349,2.567-2.353-2.567-2.781v-5.135l2.567-2.781v-2.567l2.567-5.349v-5.135l-2.567-5.135,5.349-2.781-7.916-2.567,2.567-2.781,5.349,2.781h2.567l5.135-5.349v-5.135h5.349l2.781,2.567,2.567-5.349,2.567-2.353,5.349-2.781-5.349-2.781v-2.567l2.781-2.567h2.567l5.349-7.7-2.781-2.781v-5.349l-5.135,2.567v-5.349l-2.781-2.353-2.567-2.567v-5.349l-5.349,2.781-2.567-2.781-2.781-2.781v-5.135l-2.567-2.567v-2.567l-2.567-2.781h2.567l2.567-2.567V320.593h2.781l-2.781-2.353,2.781-3V310.11l2.567-2.567v-5.349h-7.916v-5.135l2.567-2.781,5.349,2.781,2.781-2.781h2.567l2.567-2.353h2.781l5.135-2.781-2.567-2.567,5.349-5.349-2.781-2.781h5.349l2.781-5.135,2.353,2.781,5.349-2.781-2.567-2.567,2.567-2.781h2.781l5.349-2.567V255.126l2.567-5.349h2.567l2.567-5.349,2.567-2.567-2.567-2.567V226.029l2.567-2.567v-5.349l2.781-2.567h5.349V202.495H508.3l2.567,2.567,5.349-5.349,2.567,2.781h5.349l2.567,2.567Z" transform="translate(-347.2 -118.2)"/>
    <path id="Tracé_126" data-name="Tracé 126" class="cls-2" d="M529.268,202.495v-5.563l-2.781-2.353-2.353-5.135V175.965l2.353-2.353-2.353-2.781v-2.567l-2.781-2.781v-7.7H516L518.785,155V144.3L516,141.948V136.6h-2.567l-5.349-2.567-5.135-2.781h-2.567l-2.781-2.567h-2.781v-5.135l-5.135-2.567-5.349-2.781h-5.349v10.483l-5.349-2.567-2.353,7.916V136.6h-2.781l-2.567-2.567-5.349,2.567v7.7h-2.567l-5.135-2.353h-2.781l-2.567,5.349v2.353L439.411,155l-2.567,2.781-2.567,2.567,2.567,2.567,2.567,5.349-2.567,2.567v2.781l-5.135,4.921-5.349,2.781v8.13l-2.781,2.353-5.135,2.781-5.349,2.353v5.563l-2.567,5.349-2.781,2.353V220.68l-2.567,7.916v2.781l-5.135,2.353-2.781,2.781,2.781,5.349V247l2.567,5.135-2.567,3h-8.13l-2.567,2.353-2.567,2.567h-2.567v-2.567l-5.349,2.567-2.781,2.781-2.567,5.135v15.832l-2.567,2.781v7.7l2.567,2.781v7.916l-2.567,5.135v5.135l2.567,3,2.567,2.353v10.483l-7.7,5.349v2.781l2.567,5.135v13.265l-2.567,7.7h-5.349l-2.567,2.567v2.781l-2.781,2.781v2.353l-5.349,5.349,2.781,2.567v5.349l-2.781,2.781-2.353-2.781v-2.781h-2.567v23.748h2.567v5.349l2.353-2.567,2.781,2.567-2.781,5.349v15.618l2.781,2.567-2.781,2.781v5.135l2.781,2.567h2.568v8.13l5.563,2.353v5.349h-2.781V468l-2.781,2.353V475.7l2.781,2.567v2.781l2.781,2.567v7.916l-2.781,2.781,2.781,2.353,2.567-2.353,2.781,2.353,7.7-2.353,2.781,2.353h5.349V483.62l2.353-2.567h5.349l2.781-2.781h-2.781l2.781-2.567,5.349-2.567,5.135,2.567v2.567h10.483v-7.916l5.349-7.7v-5.135l2.567-2.781,2.781-2.781v-2.567h-2.781l2.781-5.349,2.567-2.353-2.567-2.781v-5.135l2.567-2.781v-2.567l2.567-5.349v-5.135l-2.567-5.135,5.349-2.781-7.916-2.567,2.567-2.781,5.349,2.781h2.567l5.135-5.349v-5.135h5.349l2.781,2.567,2.567-5.349,2.567-2.353,5.349-2.781-5.349-2.781v-2.567l2.781-2.567h2.567l5.349-7.7-2.781-2.781v-5.349l-5.135,2.567v-5.349l-2.781-2.353-2.567-2.567v-5.349l-5.349,2.781-2.567-2.781-2.781-2.781v-5.135l-2.567-2.567v-2.567l-2.567-2.781h2.567l2.567-2.567V320.593h2.781l-2.781-2.353,2.781-3V310.11l2.567-2.567v-5.349h-7.916v-5.135l2.567-2.781,5.349,2.781,2.781-2.781h2.567l2.567-2.353h2.781l5.135-2.781-2.567-2.567,5.349-5.349-2.781-2.781h5.349l2.781-5.135,2.353,2.781,5.349-2.781-2.567-2.567,2.567-2.781h2.781l5.349-2.567V255.126l2.567-5.349h2.567l2.567-5.349,2.567-2.567-2.567-2.567V226.029l2.567-2.567v-5.349l2.781-2.567h5.349V202.495H508.3l2.567,2.567,5.349-5.349,2.567,2.781h5.349l2.567,2.567Z" transform="translate(-347.2 -118.2)"/>
  </g>
</svg>
