<svg xmlns="http://www.w3.org/2000/svg" viewBox="0 0 71.546 66.412">
  <defs>
    <style>
      .cls-1 {
        fill: #4664a2;
      }

      .cls-1, .cls-2 {
        stroke: #00050f;
        stroke-width: 0.25px;
      }

      .cls-2 {
        fill: none;
      }
    </style>
  </defs>
  <g id="Groupe_50" data-name="Groupe 50" transform="translate(0.125 0.318)">
    <path id="Tracé_99" data-name="Tracé 99" class="cls-1" d="M337.3,323.183h-2.567V312.7h-5.349l-2.353,3-5.349,2.353V312.7l-2.781,3h-5.135l-5.349,2.353-2.781,2.781v15.832L300.5,341.8h-5.349v-5.135l2.781-3h-2.781l2.781-2.353,2.567-2.781v-2.567l-2.567-2.781h-5.349v0l-2.781,5.349v5.135l-2.353,3v2.353h-3V341.8l-2.353,2.567h-5.349v5.349h2.567v2.567l-5.135,2.567v-5.135H271.4v10.269h2.781l2.567,2.781,7.7,2.567v2.781h3l2.353-2.781h2.781l2.567,2.781,2.781,2.567,5.135,5.349V378.6l5.349-2.567V362.763l5.349-2.781,7.916-2.353,2.567,2.353h10.483l2.567-7.7v-2.567l-2.567-2.567,2.567-2.781v-10.7h2.781v-7.7l2.567-2.781-2.567-2.353Z" transform="translate(-271.4 -312.7)"/>
    <path id="Tracé_100" data-name="Tracé 100" class="cls-2" d="M337.3,323.183h-2.567V312.7h-5.349l-2.353,3-5.349,2.353V312.7l-2.781,3h-5.135l-5.349,2.353-2.781,2.781v15.832L300.5,341.8h-5.349v-5.135l2.781-3h-2.781l2.781-2.353,2.567-2.781v-2.567l-2.567-2.781h-5.349v0l-2.781,5.349v5.135l-2.353,3v2.353h-3V341.8l-2.353,2.567h-5.349v5.349h2.567v2.567l-5.135,2.567v-5.135H271.4v10.269h2.781l2.567,2.781,7.7,2.567v2.781h3l2.353-2.781h2.781l2.567,2.781,2.781,2.567,5.135,5.349V378.6l5.349-2.567V362.763l5.349-2.781,7.916-2.353,2.567,2.353h10.483l2.567-7.7v-2.567l-2.567-2.567,2.567-2.781v-10.7h2.781v-7.7l2.567-2.781-2.567-2.353Z" transform="translate(-271.4 -312.7)"/>
  </g>
</svg>
