<svg xmlns="http://www.w3.org/2000/svg" viewBox="0 0 63.63 52.929">
  <defs>
    <style>
      .cls-1 {
        fill: #4664a2;
      }

      .cls-1, .cls-2 {
        stroke: #00050f;
        stroke-width: 0.25px;
      }

      .cls-2 {
        fill: none;
      }
    </style>
  </defs>
  <g id="Groupe_67" data-name="Groupe 67" transform="translate(0.177 0.125)">
    <path id="Tracé_133" data-name="Tracé 133" class="cls-1" d="M512.78,471.081l2.781,2.567v5.135H520.7l5.563,5.349h2.353l5.349,2.567h2.567v5.349l-2.567,2.781H518.129l-5.349,2.139-2.567,3-2.781,2.353-5.349,3-2.354,2.353v2.781l-5.349,2.567-2.781,2.567-7.7,2.781-2.781,2.567-2.567-2.567,5.349-5.349h2.353v-5.349l-2.353,2.781h-8.13l-2.567-2.781,2.567-2.353v-3l2.781-2.353v-7.916h2.567v-2.567L483.9,486.7v-5.349h-2.781l-2.567-2.567v-2.567l2.567-2.567v-2.567h5.135l2.781-2.781h7.916v2.781H512.78Z" transform="translate(-473.2 -468.3)"/>
    <path id="Tracé_134" data-name="Tracé 134" class="cls-2" d="M512.78,471.081l2.781,2.567v5.135H520.7l5.563,5.349h2.353l5.349,2.567h2.567v5.349l-2.567,2.781H518.129l-5.349,2.139-2.567,3-2.781,2.353-5.349,3-2.354,2.353v2.781l-5.349,2.567-2.781,2.567-7.7,2.781-2.781,2.567-2.567-2.567,5.349-5.349h2.353v-5.349l-2.353,2.781h-8.13l-2.567-2.781,2.567-2.353v-3l2.781-2.353v-7.916h2.567v-2.567L483.9,486.7v-5.349h-2.781l-2.567-2.567v-2.567l2.567-2.567v-2.567h5.135l2.781-2.781h7.916v2.781H512.78Z" transform="translate(-473.2 -468.3)"/>
  </g>
</svg>
