<svg xmlns="http://www.w3.org/2000/svg" viewBox="0 0 75.773 57.627">
  <defs>
    <style>
      .cls-1 {
        fill: #4664a2;
      }

      .cls-1, .cls-2 {
        stroke: #00050f;
        stroke-width: 0.25px;
      }

      .cls-2 {
        fill: none;
      }
    </style>
  </defs>
  <g id="Groupe_11" data-name="Groupe 11" transform="translate(0.125 0.125)">
    <path id="Tracé_21" data-name="Tracé 21" class="cls-1" d="M449.651,288.136l10.483-2.781,2.567-2.567,2.567,2.567h3v-2.567l4.707,2.567h2.567v2.781l2.781,2.567h7.7l2.781,5.135,5.349-2.567L499.5,290.7v2.567h5.135l2.567-5.135h-2.567l-2.781-2.781v-2.567l2.781-2.567,2.567,2.567,2.781,2.567,2.14-2.567V280.22l-2.14-2.781-5.349-2.353v-5.563l-2.781-5.349,2.781-5.135-2.781-2.139v-2.567L507.2,249.2v-5.563l-2.567-2.567H488.8l-2.781-2.567h-2.353l-5.349,2.567V238.5H465.269l-2.567,2.567H446.869v5.349h-7.7L436.6,249.2v7.7h5.349v4.921h-2.781V272.3l5.349,5.135h2.353v-2.353l2.781-2.781h2.567L455,275.085l-2.781,5.135v7.916Z" transform="translate(-436.6 -238.5)"/>
    <path id="Tracé_22" data-name="Tracé 22" class="cls-2" d="M449.651,288.136l10.483-2.781,2.567-2.567,2.567,2.567h3v-2.567l4.707,2.567h2.567v2.781l2.781,2.567h7.7l2.781,5.135,5.349-2.567L499.5,290.7v2.567h5.135l2.567-5.135h-2.567l-2.781-2.781v-2.567l2.781-2.567,2.567,2.567,2.781,2.567,2.14-2.567V280.22l-2.14-2.781-5.349-2.353v-5.563l-2.781-5.349,2.781-5.135-2.781-2.139v-2.567L507.2,249.2v-5.563l-2.567-2.567H488.8l-2.781-2.567h-2.353l-5.349,2.567V238.5H465.269l-2.567,2.567H446.869v5.349h-7.7L436.6,249.2v7.7h5.349v4.921h-2.781V272.3l5.349,5.135h2.353v-2.353l2.781-2.781h2.567L455,275.085l-2.781,5.135v7.916Z" transform="translate(-436.6 -238.5)"/>
  </g>
</svg>
