<svg xmlns="http://www.w3.org/2000/svg" viewBox="0 0 190.09 142.539">
  <defs>
    <style>
      .cls-1 {
        fill: #4664a2;
      }

      .cls-1, .cls-2 {
        stroke: #00050f;
        stroke-width: 0.25px;
      }

      .cls-2 {
        fill: none;
      }
    </style>
  </defs>
  <g id="Groupe_66" data-name="Groupe 66" transform="translate(0.195 0.134)">
    <path id="Tracé_131" data-name="Tracé 131" class="cls-1" d="M461.382,510.528l-3-5.776-2.139-1.284V500.9l2.567-2.567-2.567-2.781-5.349,2.781-2.567,2.567-5.349-2.567-2.781-2.781H429.932v-5.135l2.353-2.567v-2.567l-2.353-2.781-2.781-2.567H421.8v-5.349l-2.567-2.353v-10.7H414.1l2.353-5.135h0l3-5.349,2.567-2.567,2.567-2.567,2.781-2.567,2.567-2.781v-2.353H432.5l2.781-2.781,2.567-2.781v-7.7l2.567-2.781v-5.135l2.781-2.567,2.353-2.781h3l2.353-2.567,2.781-2.567,2.567-2.567V401.2l-4.279-6.418,4.707-1.07h7.488l4.707,1.07,3.851,1.925,3,1.712,4.493.856,3-3.637,4.493-.856h3l7.488,3.637,3-1.712,5.563-4.921,1.926.428h4.279l4.921-.428,1.07-1.712,1.07-3,7.488-2.781,4.707,1.926,5.563,1.712,2.781,2.567,7.916,5.349-1.07,9.2,6.2,1.284,5.349,2.567v5.349l2.781,2.567,2.567,2.781,5.135,2.353v2.781l2.781,5.349V438h-2.781v5.135l2.781,2.567v13.051l2.781,4.279,5.349-1.284,3,1.711,1.712.856,1.925-.856,2.139-2.781,5.563,1.07,1.925.856,1.926.856,3.423,4.707,1.925-4.065v10.483l-2.567,5.349h-2.781V482.5l-2.567,2.781H593.6v-5.349l-3-2.567-2.567,2.567V482.5l-2.567,5.349v2.567h5.135l-2.567,2.781-2.567,2.353v7.916l2.567,3-2.567,5.135v2.567l-.428.856-10.269-5.563h-2.781l-2.567-.642-2.353-.214-5.563.856-2.781-1.712H551.24l-3-3-10.483,3-2.567,1.07-3.851,6.2L524.71,520.8l-5.776,1.926-1.926,3-5.563.856-4.707-3H485.13l-3.851-1.926h-14.12l-3-1.711-.856-3.851-.856-3.637-1.07-.856Z" transform="translate(-414.1 -384.3)"/>
    <path id="Tracé_132" data-name="Tracé 132" class="cls-2" d="M461.382,510.528l-3-5.776-2.139-1.284V500.9l2.567-2.567-2.567-2.781-5.349,2.781-2.567,2.567-5.349-2.567-2.781-2.781H429.932v-5.135l2.353-2.567v-2.567l-2.353-2.781-2.781-2.567H421.8v-5.349l-2.567-2.353v-10.7H414.1l2.353-5.135h0l3-5.349,2.567-2.567,2.567-2.567,2.781-2.567,2.567-2.781v-2.353H432.5l2.781-2.781,2.567-2.781v-7.7l2.567-2.781v-5.135l2.781-2.567,2.353-2.781h3l2.353-2.567,2.781-2.567,2.567-2.567V401.2l-4.279-6.418,4.707-1.07h7.488l4.707,1.07,3.851,1.925,3,1.712,4.493.856,3-3.637,4.493-.856h3l7.488,3.637,3-1.712,5.563-4.921,1.926.428h4.279l4.921-.428,1.07-1.712,1.07-3,7.488-2.781,4.707,1.926,5.563,1.712,2.781,2.567,7.916,5.349-1.07,9.2,6.2,1.284,5.349,2.567v5.349l2.781,2.567,2.567,2.781,5.135,2.353v2.781l2.781,5.349V438h-2.781v5.135l2.781,2.567v13.051l2.781,4.279,5.349-1.284,3,1.711,1.712.856,1.925-.856,2.139-2.781,5.563,1.07,1.925.856,1.926.856,3.423,4.707,1.925-4.065v10.483l-2.567,5.349h-2.781V482.5l-2.567,2.781H593.6v-5.349l-3-2.567-2.567,2.567V482.5l-2.567,5.349v2.567h5.135l-2.567,2.781-2.567,2.353v7.916l2.567,3-2.567,5.135v2.567l-.428.856-10.269-5.563h-2.781l-2.567-.642-2.353-.214-5.563.856-2.781-1.712H551.24l-3-3-10.483,3-2.567,1.07-3.851,6.2L524.71,520.8l-5.776,1.926-1.926,3-5.563.856-4.707-3H485.13l-3.851-1.926h-14.12l-3-1.711-.856-3.851-.856-3.637-1.07-.856Z" transform="translate(-414.1 -384.3)"/>
  </g>
</svg>
