<svg xmlns="http://www.w3.org/2000/svg" viewBox="0 0 83.545 88.61">
  <defs>
    <style>
      .cls-1 {
        fill: #4664a2;
      }

      .cls-1, .cls-2 {
        stroke: #00050f;
        stroke-width: 0.25px;
      }

      .cls-2 {
        fill: none;
      }
    </style>
  </defs>
  <g id="Groupe_16" data-name="Groupe 16" transform="translate(0.195 0.125)">
    <path id="Tracé_31" data-name="Tracé 31" class="cls-1" d="M469.5,389.574l2.567,5.563h2.14v7.7l2.781,2.567,2.567,2.781,5.563,2.567h2.14v2.567l3,2.567h2.353l5.349,2.781v2.567l2.781,5.135v5.349l2.567,5.349v4.707l-2.567,2.781v2.567l2.567,2.567-2.567,2.567v15.832h4.921l3,2.567h10.056l3.209-2.567,2.139-2.781,2.567-2.353,2.567,2.353h2.781v2.781h2.567v-7.916l-2.567-2.567v-2.567l2.567-2.781h2.781v2.781l2.567-2.781h5.135l2.567-2.567h5.135v-5.135l-2.354-2.781H547.59l-5.135-2.354V437.07h2.567l.214-2.781-2.354-2.567-2.781-2.567-2.353-2.781v-5.135H532.4V415.89l-3-5.135h-4.921V397.7h-2.567v-5.135l-5.563-3v3l-5.135-3-2.353-2.353h-2.781l-2.353,2.353-2.781-2.353-2.568-3H492.82V382.3h-7.488l-2.567,1.926-2.781,3-7.488,2.353Z" transform="translate(-469.5 -382.3)"/>
    <path id="Tracé_32" data-name="Tracé 32" class="cls-2" d="M469.5,389.574l2.567,5.563h2.14v7.7l2.781,2.567,2.567,2.781,5.563,2.567h2.14v2.567l3,2.567h2.353l5.349,2.781v2.567l2.781,5.135v5.349l2.567,5.349v4.707l-2.567,2.781v2.567l2.567,2.567-2.567,2.567v15.832h4.921l3,2.567h10.056l3.209-2.567,2.139-2.781,2.567-2.353,2.567,2.353h2.781v2.781h2.567v-7.916l-2.567-2.567v-2.567l2.567-2.781h2.781v2.781l2.567-2.781h5.135l2.567-2.567h5.135v-5.135l-2.354-2.781H547.59l-5.135-2.354V437.07h2.567l.214-2.781-2.354-2.567-2.781-2.567-2.353-2.781v-5.135H532.4V415.89l-3-5.135h-4.921V397.7h-2.567v-5.135l-5.563-3v3l-5.135-3-2.353-2.353h-2.781l-2.353,2.353-2.781-2.353-2.568-3H492.82V382.3h-7.488l-2.567,1.926-2.781,3-7.488,2.353Z" transform="translate(-469.5 -382.3)"/>
  </g>
</svg>
