<svg xmlns="http://www.w3.org/2000/svg" viewBox="0 0 83.689 49.769">
  <defs>
    <style>
      .cls-1 {
        fill: #4664a2;
      }

      .cls-1, .cls-2 {
        stroke: #00050f;
        stroke-width: 0.25px;
      }

      .cls-2 {
        fill: none;
      }
    </style>
  </defs>
  <g id="Groupe_6" data-name="Groupe 6" transform="translate(0.125 0.205)">
    <path id="Tracé_11" data-name="Tracé 11" class="cls-1" d="M529.2,431.287V428.72l4.921-2.781v-2.567l2.567-2.567h5.563v-2.567l5.135-2.781,2.781-2.353v-7.7h2.139v2.567h3.209l2.353,2.781V413.1l2.567-2.353,2.354-5.349,3,2.567,2.567,2.781v4.707h5.135v2.781l2.353,2.567,5.349-2.567,3,2.567v2.567h10.269l2.781-2.567,2.14-2.567,5.349-2.781h7.916v2.781h-2.567V420.8l2.567,2.567v2.567L607.5,428.72H597.235v-2.781h-5.349l-5.349,5.349v2.567l-2.353,7.916-3-2.781v-2.353l-5.349,2.353-2.353,2.781-2.567,2.567-2.567,7.916-7.916,2.567-2.567-2.567h-7.7v-2.567l2.139-2.781-2.139-5.135,2.139-2.781-2.139-5.135v-2.567l-2.781,2.567-5.135-2.567-2.781-2.567h-5.349Z" transform="translate(-529.2 -405.4)"/>
    <path id="Tracé_12" data-name="Tracé 12" class="cls-2" d="M529.2,431.287V428.72l4.921-2.781v-2.567l2.567-2.567h5.563v-2.567l5.135-2.781,2.781-2.353v-7.7h2.139v2.567h3.209l2.353,2.781V413.1l2.567-2.353,2.354-5.349,3,2.567,2.567,2.781v4.707h5.135v2.781l2.353,2.567,5.349-2.567,3,2.567v2.567h10.269l2.781-2.567,2.14-2.567,5.349-2.781h7.916v2.781h-2.567V420.8l2.567,2.567v2.567L607.5,428.72H597.235v-2.781h-5.349l-5.349,5.349v2.567l-2.353,7.916-3-2.781v-2.353l-5.349,2.353-2.353,2.781-2.567,2.567-2.567,7.916-7.916,2.567-2.567-2.567h-7.7v-2.567l2.139-2.781-2.139-5.135,2.139-2.781-2.139-5.135v-2.567l-2.781,2.567-5.135-2.567-2.781-2.567h-5.349Z" transform="translate(-529.2 -405.4)"/>
  </g>
</svg>
