<svg xmlns="http://www.w3.org/2000/svg" viewBox="0 0 331.74 205.39">
  <defs>
    <style>
      .cls-1, .cls-2 {
        fill: none;
        stroke: #00050f;
      }

      .cls-2 {
        stroke-width: 0.25px;
      }
    </style>
  </defs>
  <g id="Groupe_1" data-name="Groupe 1" transform="translate(0.5 0.144)">
    <path id="Tracé_1" data-name="Tracé 1" class="cls-1" d="M574.424,649.693l-7.916,2.353h-2.781l-4.921-2.353-7.916-5.135-2.567-3-2.781-2.139h-7.488l-3-5.349-5.349,2.353v3l-2.353,2.139h-2.567l-2.353-2.139-5.563,2.139v-2.139l5.563-5.349,2.353-3v-2.14l-7.916,2.14H506.389l-2.353-2.14h7.7v-5.349h-2.567l-2.781-2.781h-4.921l-2.781-2.567,2.781-2.568h2.567l2.353-2.567v-7.916h-4.921l2.567-2.567-2.567-2.353-2.781-2.781h-2.353l2.353-2.353v-2.781h-5.563l-2.353-5.135-2.781-2.781,5.135-5.135H487.99v-5.349l-2.139-5.135h2.139l5.135-5.349h-2.353l-7.7-2.567-5.349,2.567-2.781,2.567H472.8V553.2l4.921-3,4.921-4.493h14.12l4.707-5.349h2.567l2.353-2.567,1.712-3.423,5.563-2.781,5.563,2.781,3.209-4.707h18.185l2.567-2.567v-2.781l-5.135-2.353-3-2.567,4.065-7.488h2.568l1.5,2.14,4.279-2.14,5.99,2.14h7.916l7.7-2.567h7.7l7.916-2.567,2.781-2.781v-2.353l2.353-5.563H592.4l8.344-5.135,2.139-2.567h2.567l5.349-2.781,5.349-4.707,4.921-2.781,10.483-2.353H644.6l8.344-2.781h7.488l5.563-5.562,4.921,2.781-2.781,2.781,2.781,2.781,2.353,2.353h10.7l5.349-2.353,2.567,5.135,2.353,4.707h3l7.488-4.707h2.568l5.134,2.14,3,2.567H722.9l2.781-2.567h5.135v2.567h7.916l5.135-2.567,5.135-2.14,7.916-5.135,5.135-2.781,5.563,2.781h5.135l4.921,2.353h2.781l5.135-5.135,2.353-2.781V469.55l3.209-2.567H798l3-8.344v-2.781l2.567-8.558" transform="translate(-472.8 -447.3)"/>
    <path id="Tracé_2" data-name="Tracé 2" class="cls-2" d="M574.424,649.693l-7.916,2.353h-2.781l-4.921-2.353-7.916-5.135-2.567-3-2.781-2.139h-7.488l-3-5.349-5.349,2.353v3l-2.353,2.139h-2.567l-2.353-2.139-5.563,2.139v-2.139l5.563-5.349,2.353-3v-2.14l-7.916,2.14H506.389l-2.353-2.14h7.7v-5.349h-2.567l-2.781-2.781h-4.921l-2.781-2.567,2.781-2.568h2.567l2.353-2.567v-7.916h-4.921l2.567-2.567-2.567-2.353-2.781-2.781h-2.353l2.353-2.353v-2.781h-5.563l-2.353-5.135-2.781-2.781,5.135-5.135H487.99v-5.349l-2.139-5.135h2.139l5.135-5.349h-2.353l-7.7-2.567-5.349,2.567-2.781,2.567H472.8V553.2l4.921-3,4.921-4.493h14.12l4.707-5.349h2.567l2.353-2.567,1.712-3.423,5.563-2.781,5.563,2.781,3.209-4.707h18.185l2.567-2.567v-2.781l-5.135-2.353-3-2.567,4.065-7.488h2.568l1.5,2.14,4.279-2.14,5.99,2.14h7.916l7.7-2.567h7.7l7.916-2.567,2.781-2.781v-2.353l2.353-5.563H592.4l8.344-5.135,2.139-2.567h2.567l5.349-2.781,5.349-4.707,4.921-2.781,10.483-2.353H644.6l8.344-2.781h7.488l5.563-5.562,4.921,2.781-2.781,2.781,2.781,2.781,2.353,2.353h10.7l5.349-2.353,2.567,5.135,2.353,4.707h3l7.488-4.707h2.568l5.134,2.14,3,2.567H722.9l2.781-2.567h5.135v2.567h7.916l5.135-2.567,5.135-2.14,7.916-5.135,5.135-2.781,5.563,2.781h5.135l4.921,2.353h2.781l5.135-5.135,2.353-2.781V469.55l3.209-2.567H798l3-8.344v-2.781l2.567-8.558" transform="translate(-472.8 -447.3)"/>
  </g>
</svg>
