<svg xmlns="http://www.w3.org/2000/svg" viewBox="0 0 115.184 94.098">
  <defs>
    <style>
      .cls-1 {
        fill: #4664a2;
      }

      .cls-1, .cls-2 {
        stroke: #00050f;
        stroke-width: 0.25px;
      }

      .cls-2 {
        fill: none;
      }
    </style>
  </defs>
  <g id="Groupe_17" data-name="Groupe 17" transform="translate(0.169 0.125)">
    <path id="Tracé_33" data-name="Tracé 33" class="cls-1" d="M732.321,423.6l5.563,2.567h2.14l3,2.781,2.353,2.567,2.567,2.567,3,5.349L753.5,442h5.135l2.567,5.135h10.269l5.563-2.567,2.353,2.567v2.781h-5.135l-2.781,1.926-2.568,5.563-2.781,2.567v2.567l2.781,2.567v10.483h-2.781l2.781,5.349,2.568,2.781v7.488l-2.568,5.349v-5.349h-2.781v5.349l-2.139,2.781,2.139,5.349,5.349,2.567-2.568,2.139,2.568,2.781L761.2,509.392h-2.567l-3,2.781-4.707-2.781-5.563-2.139h2.567l5.563-2.567v-2.567l-2.567-5.563-3-2.567h3v-5.135l-3-2.781-4.921-5.135h-3l-2.14,5.135h-5.563l-2.567,5.135-2.567,5.349v2.781l-5.135,5.349-5.563,2.567v4.921l-2.353,5.349V507.253l-2.567-2.567H709l2.567-2.567L709,499.337h-7.7l-5.349-5.349-7.916-2.781-2.567-2.353h5.349l2.139-2.781v-2.353l-4.921-2.781h-5.349l-7.7-5.349,5.349-2.353,2.353-2.781-7.7-5.349h-5.349v-2.567l-5.135-2.567,2.781-5.349,2.354-2.781,5.349,5.563h5.349l5.135,2.567V457.4H695.95v-7.488l-3-2.781-7.488-2.567v-7.916h13.479L704.08,442l5.135,2.567h7.7L722.052,442l3.209-5.349-3.209-2.567h7.916v-5.135l2.781-5.349Z" transform="translate(-664.5 -423.6)"/>
    <path id="Tracé_34" data-name="Tracé 34" class="cls-2" d="M732.321,423.6l5.563,2.567h2.14l3,2.781,2.353,2.567,2.567,2.567,3,5.349L753.5,442h5.135l2.567,5.135h10.269l5.563-2.567,2.353,2.567v2.781h-5.135l-2.781,1.926-2.568,5.563-2.781,2.567v2.567l2.781,2.567v10.483h-2.781l2.781,5.349,2.568,2.781v7.488l-2.568,5.349v-5.349h-2.781v5.349l-2.139,2.781,2.139,5.349,5.349,2.567-2.568,2.139,2.568,2.781L761.2,509.392h-2.567l-3,2.781-4.707-2.781-5.563-2.139h2.567l5.563-2.567v-2.567l-2.567-5.563-3-2.567h3v-5.135l-3-2.781-4.921-5.135h-3l-2.14,5.135h-5.563l-2.567,5.135-2.567,5.349v2.781l-5.135,5.349-5.563,2.567v4.921l-2.353,5.349V507.253l-2.567-2.567H709l2.567-2.567L709,499.337h-7.7l-5.349-5.349-7.916-2.781-2.567-2.353h5.349l2.139-2.781v-2.353l-4.921-2.781h-5.349l-7.7-5.349,5.349-2.353,2.353-2.781-7.7-5.349h-5.349v-2.567l-5.135-2.567,2.781-5.349,2.354-2.781,5.349,5.563h5.349l5.135,2.567V457.4H695.95v-7.488l-3-2.781-7.488-2.567v-7.916h13.479L704.08,442l5.135,2.567h7.7L722.052,442l3.209-5.349-3.209-2.567h7.916v-5.135l2.781-5.349Z" transform="translate(-664.5 -423.6)"/>
  </g>
</svg>
