<svg xmlns="http://www.w3.org/2000/svg" viewBox="0 0 203.301 98.693">
  <defs>
    <style>
      .cls-1 {
        fill: #4664a2;
      }

      .cls-1, .cls-2 {
        stroke: #00050f;
        stroke-width: 0.25px;
      }

      .cls-2 {
        fill: none;
      }
    </style>
  </defs>
  <g id="Groupe_56" data-name="Groupe 56" transform="translate(0.125 0.149)">
    <path id="Tracé_111" data-name="Tracé 111" class="cls-1" d="M532.891,429.776l.856-4.707-.856-1.925.856-3,1.5-2.353h2.139l-.642-3.209,1.711-1.926,2.781-1.712-.856-3.851h-9.414l-2.567-2.781-2.781-2.567-2.567-2.567h-2.567l-2.567-6.2-3.637,3.851-1.712,2.353-7.916,2.567.428-2.781-.856-5.99-2.353,2.139-2.354,1.284-2.781-2.567-5.349,2.567v2.781l-2.567,2.567V396.4l-2.781-2.567-2.567,2.567H480.9l-2.567,2.781-2.781-2.781h-5.135l-2.781-2.567-2.567-2.567L462.5,388.7h-5.349l-5.349-2.567-2.781-3-5.135-7.488L441.322,378l-2.567-2.353h-8.13L433.406,378h-2.781l-2.353,2.781v2.353l-3-5.135-2.353-2.353h-5.349l2.353-2.781,3-2.567-3-2.781h-5.135l-5.135-2.567h-2.567l-2.781-2.781h-2.781V351.9h-7.7v2.567l-2.781,2.567h-2.353v-2.567L385.91,351.9l-5.349,2.567-2.567,2.567-2.567,2.781-8.13,5.135h-2.567l-2.781,2.567h-2.567l-5.349,2.781h-5.349l-2.353-2.781-5.349,2.781v-2.781l-2.781-2.567V370.3l2.781,5.349h2.567v5.135l2.781,2.353,2.353,3v7.7l3,2.567,2.353,5.349,3,5.349,2.353,2.567h2.567l1.712,3,2.353,1.926,2.353,3.209,1.5,2.353h2.781l2.781,2.781H385.91l2.781-2.781v-2.567l.856-1.284,1.5-1.5h10.483l2.781,2.781h7.916l1.5,2.353,1.5,1.712.642,1.5,4.065,2.139,2.781.856h3l1.5,2.139-.856,2.353,3.209,3.851-3.851,1.5,3,5.135,4.707.214,2.567,2.567,2.567,1.925,2.353,2.139,3,1.284,5.349,1.07,3-.856,2.353-.214.642-.428,4.493-1.712h2.139l2.353-.642.856-2.567,1.5-1.925,1.07-.642h10.7l5.135-2.781,2.567-2.567,5.349-2.567,2.781-2.781,2.567-2.567v-2.781l2.781-2.353h13.051l.856.214h2.14v2.139h4.921l2.567,2.781,5.99-3Z" transform="translate(-338.2 -351.9)"/>
    <path id="Tracé_112" data-name="Tracé 112" class="cls-2" d="M532.891,429.776l.856-4.707-.856-1.925.856-3,1.5-2.353h2.139l-.642-3.209,1.711-1.926,2.781-1.712-.856-3.851h-9.414l-2.567-2.781-2.781-2.567-2.567-2.567h-2.567l-2.567-6.2-3.637,3.851-1.712,2.353-7.916,2.567.428-2.781-.856-5.99-2.353,2.139-2.354,1.284-2.781-2.567-5.349,2.567v2.781l-2.567,2.567V396.4l-2.781-2.567-2.567,2.567H480.9l-2.567,2.781-2.781-2.781h-5.135l-2.781-2.567-2.567-2.567L462.5,388.7h-5.349l-5.349-2.567-2.781-3-5.135-7.488L441.322,378l-2.567-2.353h-8.13L433.406,378h-2.781l-2.353,2.781v2.353l-3-5.135-2.353-2.353h-5.349l2.353-2.781,3-2.567-3-2.781h-5.135l-5.135-2.567h-2.567l-2.781-2.781h-2.781V351.9h-7.7v2.567l-2.781,2.567h-2.353v-2.567L385.91,351.9l-5.349,2.567-2.567,2.567-2.567,2.781-8.13,5.135h-2.567l-2.781,2.567h-2.567l-5.349,2.781h-5.349l-2.353-2.781-5.349,2.781v-2.781l-2.781-2.567V370.3l2.781,5.349h2.567v5.135l2.781,2.353,2.353,3v7.7l3,2.567,2.353,5.349,3,5.349,2.353,2.567h2.567l1.712,3,2.353,1.926,2.353,3.209,1.5,2.353h2.781l2.781,2.781H385.91l2.781-2.781v-2.567l.856-1.284,1.5-1.5h10.483l2.781,2.781h7.916l1.5,2.353,1.5,1.712.642,1.5,4.065,2.139,2.781.856h3l1.5,2.139-.856,2.353,3.209,3.851-3.851,1.5,3,5.135,4.707.214,2.567,2.567,2.567,1.925,2.353,2.139,3,1.284,5.349,1.07,3-.856,2.353-.214.642-.428,4.493-1.712h2.139l2.353-.642.856-2.567,1.5-1.925,1.07-.642h10.7l5.135-2.781,2.567-2.567,5.349-2.567,2.781-2.781,2.567-2.567v-2.781l2.781-2.353h13.051l.856.214h2.14v2.139h4.921l2.567,2.781,5.99-3Z" transform="translate(-338.2 -351.9)"/>
  </g>
</svg>
