<svg xmlns="http://www.w3.org/2000/svg" viewBox="0 0 137.49 87.151">
  <defs>
    <style>
      .cls-1 {
        fill: #4664a2;
      }

      .cls-1, .cls-2 {
        stroke: #00050f;
        stroke-width: 0.25px;
      }

      .cls-2 {
        fill: none;
      }
    </style>
  </defs>
  <g id="Groupe_65" data-name="Groupe 65" transform="translate(0.206 0.139)">
    <path id="Tracé_129" data-name="Tracé 129" class="cls-1" d="M446.632,524.495h21.181l2.781,2.567,5.349-2.567v-2.781H478.3l2.781-2.567,2.567,2.567v-2.567h2.567l2.781,2.567h2.567v2.781l5.349-2.781h10.483l2.781-2.567h10.483l2.567-2.781-2.567-2.567V511.23h5.135v-2.567l3.423-.214,1.07-4.707h2.781l.642-.428,2.781-2.781h7.916v2.781h15.832V495.4H557.67l-2.781-2.567v-2.567H549.54l-2.353,2.567v-7.916l2.353-2.567h2.781v-2.781L554.889,477l-2.567-2.567V469.3h2.567V458.813h10.7l2.353-2.781-2.781-6.846v-1.07l-10.269-3.637-3-.856h-4.707l-5.563.856-2.567-1.5h-7.7l-2.781-2.781-10.7,2.781-2.567,2.354-5.135,5.349-5.349,5.349-5.349,2.781-2.567,2.139h-5.349l-5.349-2.139H465.245l-2.567-2.781H446.632l-2.567-2.567v-8.13H441.5l-5.349,5.349-2.567,2.781H430.8l2.781,5.349v5.135l2.567,2.353v3H441.5l2.567,2.353-2.567,2.781V477l-5.349,2.567v7.916h-2.567v13.051l5.349,2.781,2.567,2.567,2.567,2.781,2.567,2.567L449.2,513.8v5.349l-2.567,2.567Z" transform="translate(-430.8 -440.2)"/>
    <path id="Tracé_130" data-name="Tracé 130" class="cls-2" d="M446.632,524.495h21.181l2.781,2.567,5.349-2.567v-2.781H478.3l2.781-2.567,2.567,2.567v-2.567h2.567l2.781,2.567h2.567v2.781l5.349-2.781h10.483l2.781-2.567h10.483l2.567-2.781-2.567-2.567V511.23h5.135v-2.567l3.423-.214,1.07-4.707h2.781l.642-.428,2.781-2.781h7.916v2.781h15.832V495.4H557.67l-2.781-2.567v-2.567H549.54l-2.353,2.567v-7.916l2.353-2.567h2.781v-2.781L554.889,477l-2.567-2.567V469.3h2.567V458.813h10.7l2.353-2.781-2.781-6.846v-1.07l-10.269-3.637-3-.856h-4.707l-5.563.856-2.567-1.5h-7.7l-2.781-2.781-10.7,2.781-2.567,2.354-5.135,5.349-5.349,5.349-5.349,2.781-2.567,2.139h-5.349l-5.349-2.139H465.245l-2.567-2.781H446.632l-2.567-2.567v-8.13H441.5l-5.349,5.349-2.567,2.781H430.8l2.781,5.349v5.135l2.567,2.353v3H441.5l2.567,2.353-2.567,2.781V477l-5.349,2.567v7.916h-2.567v13.051l5.349,2.781,2.567,2.567,2.567,2.781,2.567,2.567L449.2,513.8v5.349l-2.567,2.567Z" transform="translate(-430.8 -440.2)"/>
  </g>
</svg>
