<svg xmlns="http://www.w3.org/2000/svg" viewBox="0 0 336.031 360.437">
  <defs>
    <style>
      .cls-1 {
        fill: #4664a2;
      }

      .cls-1, .cls-2 {
        stroke: #00050f;
        stroke-width: 0.25px;
      }

      .cls-2 {
        fill: none;
      }
    </style>
  </defs>
  <g id="Groupe_62" data-name="Groupe 62" transform="translate(0.149 0.159)">
    <path id="Tracé_123" data-name="Tracé 123" class="cls-1" d="M396.739,422.623h2.567V425.4l2.353,2.781,2.781-2.781v-5.349l-2.781-2.567,5.349-5.349v-2.353l2.781-2.781v-2.781l2.567-2.567h5.349l2.567-7.7V380.69l-2.567-5.135v-2.781l7.916-5.349V356.942l-2.567-2.353-2.781-3v-5.135l2.781-5.135v-7.916l-2.781-2.781v-7.7l2.781-2.781V304.311l2.567-5.135L428.4,296.4l5.135-2.567V296.4H436.1l2.781-2.567,2.353-2.353h8.13l2.781-3-2.781-5.135V278.21l-2.567-5.349,2.567-2.781,5.349-2.353v-2.781l2.567-7.916V246.546l2.567-2.353,2.781-5.349v-5.563l5.349-2.353,5.135-2.781,2.567-2.353v-8.13l5.349-2.781,5.349-4.921V207.18l2.567-2.567-2.567-5.349L483.6,196.7l2.781-2.567,2.567-2.781L496.866,186v-2.353l2.781-5.349h2.567l5.135,2.353h2.781v-7.7l5.349-2.567,2.567,2.567h2.781v-2.567l2.353-7.916,5.349,2.567V154.549h5.349V149.2l2.567-5.135h2.781l2.353,2.567,5.349,2.567v2.781l2.781,5.349h5.349l2.353,2.567h7.916l2.781-2.567h2.781l2.567,5.135,5.135-2.567h2.781V157.33l2.567-5.349,2.567-2.781v-7.488l2.567-5.349v-10.7l2.781-2.567h5.349l5.135-2.781,2.781-2.567h2.567l-2.567,5.349,7.916,2.567h2.567l2.567,2.567,2.781,2.567v2.781l-2.781,2.781V149.2h2.781l1.284-9.414,3.423-5.777,5.777-3.423,5.99-1.284,2.353-9.414-.642.428h-7.916l2.781-2.567v-5.135l-2.781-2.567h2.781l2.567-2.781v-5.135h-2.567V99.351h-5.349l-5.349,2.781V96.783h-5.135L615.392,94l-5.349,5.349v2.781L607.69,104.7l-2.781-5.349V96.783L607.69,94V86.3h-2.781l-5.349,5.135V94l-5.349,2.781v10.483l-2.567-2.567v-2.567l-2.567-2.781V91.435h-2.567v5.349l-2.781,5.349-2.567,5.135-2.781,5.349V102.132l5.349-2.781V96.783l2.781-5.349,2.567-2.567L586.509,86.3l-8.13,5.135-2.567-2.567-2.567,2.567V94l5.135,2.781-7.7,2.567L567.9,96.783l-2.567,2.567V104.7h-2.781l2.781,2.567-5.349,5.349-2.567-5.349-2.567,2.781v5.135l-2.781,2.567-2.567-2.567h-2.781v2.567l-2.567-2.567H541.58l-2.567,2.567v2.567h-2.567l-2.781,2.781v5.135l2.781,2.567v5.563l-2.781-2.781L531.1,130.8h-2.781l-2.567,5.563-2.781-5.563-2.353,2.781v5.135l2.353,5.349v2.567l-2.353-2.567-2.781-5.349v5.349l-2.567,5.135-2.781-2.567v-4.921l-2.567,2.353v7.916h-5.349L502,154.549l2.567,2.781L502,159.9l-2.567,2.567v2.567L502,167.6l-2.567,2.781H491.3V167.6l-2.567,2.781V180.65L486.168,186V172.948l-2.567,2.781h-5.349l-2.567,2.567h2.567l2.567,2.353v3l-2.567-3-2.567,3-2.781-3h-2.567V186l-2.567,3,7.916-3,2.567,3v2.353h-7.916l-2.567,2.781V196.7H472.9v5.135h-5.135l-2.781,2.781-2.567,2.567-5.349-2.567L454.5,207.18v5.135h-2.567l-2.567,2.567,2.567,2.781-2.567,2.781h-5.349l2.567,2.567,2.781,2.781,2.567-2.781v5.135h-7.916v2.781l2.567,2.353-2.567,2.781h-2.781l-2.567,2.781-2.781,2.567,2.781,2.781v2.353l-2.781,2.567-2.353-2.567v-2.353l-3,4.921v2.781h3v5.135l-3,2.781h-2.353v5.135l-2.781,2.781H422.84v2.353h2.567v5.563l-2.567,2.567-5.135-2.567v-2.781l-2.781-2.781-2.567,2.781-2.781,2.781h-5.349v5.135l-2.781,2.567-2.353,5.135h-5.349V296.4l-2.567-2.567-2.567,2.567-2.781,2.781L383.26,296.4l-2.567,2.781-2.781,2.567h-2.567v5.349l-2.567-2.781H370l2.781,2.781v2.567H370l-2.567-2.567-2.567,2.567h-7.916v2.781l2.353,5.135h-5.349l-5.349-2.781h-2.139l-2.781,2.781,2.781,2.567v2.781h-8.13l-2.781,5.349v-5.349h-2.567l-2.567,2.567-2.567-2.567h-5.135v5.349l2.353,2.353h2.781v2.781h-2.781l-2.353,2.567h-5.563v2.567l2.781,2.781v2.567l-5.349-2.567v5.135l2.567,5.135h5.563v3h-2.781l-5.349-3v5.349l2.567,5.135,2.781,2.781-2.781,2.567-2.567-2.567-2.567,2.567v2.781l5.135,2.567h-5.135v2.781l2.567,2.567,2.567,2.567h5.563l5.135-2.567-5.135,5.135-2.781,2.567-2.781,2.781,5.563,5.349h-5.563l-2.567,2.567-2.567-2.567h-2.567l-2.781,4.921v2.781l-2.567,5.349,2.567,2.781,5.349-8.13h5.135v8.13h-2.567v5.135l-2.567,2.567v-2.567l-2.567,2.567v10.7l5.135,5.135,8.13,2.567-5.563,5.135,5.563,2.781,2.353-2.781v5.349h13.265l5.349-2.567v2.567L348.6,443.8l3-2.781,2.353-5.135,3-2.567,7.916-2.781v-2.353l2.567-2.781h5.349v2.781l2.567,2.353,5.349-2.353v-5.563l5.135-5.135V412.14l-2.567-2.353,5.349-5.563,2.567-2.567,2.567-2.781h2.781v5.349l-2.781,2.781h-2.567v5.135h2.567l7.7,5.349Z" transform="translate(-304.1 -86.3)"/>
    <path id="Tracé_124" data-name="Tracé 124" class="cls-2" d="M396.739,422.623h2.567V425.4l2.353,2.781,2.781-2.781v-5.349l-2.781-2.567,5.349-5.349v-2.353l2.781-2.781v-2.781l2.567-2.567h5.349l2.567-7.7V380.69l-2.567-5.135v-2.781l7.916-5.349V356.942l-2.567-2.353-2.781-3v-5.135l2.781-5.135v-7.916l-2.781-2.781v-7.7l2.781-2.781V304.311l2.567-5.135L428.4,296.4l5.135-2.567V296.4H436.1l2.781-2.567,2.353-2.353h8.13l2.781-3-2.781-5.135V278.21l-2.567-5.349,2.567-2.781,5.349-2.353v-2.781l2.567-7.916V246.546l2.567-2.353,2.781-5.349v-5.563l5.349-2.353,5.135-2.781,2.567-2.353v-8.13l5.349-2.781,5.349-4.921V207.18l2.567-2.567-2.567-5.349L483.6,196.7l2.781-2.567,2.567-2.781L496.866,186v-2.353l2.781-5.349h2.567l5.135,2.353h2.781v-7.7l5.349-2.567,2.567,2.567h2.781v-2.567l2.353-7.916,5.349,2.567V154.549h5.349V149.2l2.567-5.135h2.781l2.353,2.567,5.349,2.567v2.781l2.781,5.349h5.349l2.353,2.567h7.916l2.781-2.567h2.781l2.567,5.135,5.135-2.567h2.781V157.33l2.567-5.349,2.567-2.781v-7.488l2.567-5.349v-10.7l2.781-2.567h5.349l5.135-2.781,2.781-2.567h2.567l-2.567,5.349,7.916,2.567h2.567l2.567,2.567,2.781,2.567v2.781l-2.781,2.781V149.2h2.781l1.284-9.414,3.423-5.777,5.777-3.423,5.99-1.284,2.353-9.414-.642.428h-7.916l2.781-2.567v-5.135l-2.781-2.567h2.781l2.567-2.781v-5.135h-2.567V99.351h-5.349l-5.349,2.781V96.783h-5.135L615.392,94l-5.349,5.349v2.781L607.69,104.7l-2.781-5.349V96.783L607.69,94V86.3h-2.781l-5.349,5.135V94l-5.349,2.781v10.483l-2.567-2.567v-2.567l-2.567-2.781V91.435h-2.567v5.349l-2.781,5.349-2.567,5.135-2.781,5.349V102.132l5.349-2.781V96.783l2.781-5.349,2.567-2.567L586.509,86.3l-8.13,5.135-2.567-2.567-2.567,2.567V94l5.135,2.781-7.7,2.567L567.9,96.783l-2.567,2.567V104.7h-2.781l2.781,2.567-5.349,5.349-2.567-5.349-2.567,2.781v5.135l-2.781,2.567-2.567-2.567h-2.781v2.567l-2.567-2.567H541.58l-2.567,2.567v2.567h-2.567l-2.781,2.781v5.135l2.781,2.567v5.563l-2.781-2.781L531.1,130.8h-2.781l-2.567,5.563-2.781-5.563-2.353,2.781v5.135l2.353,5.349v2.567l-2.353-2.567-2.781-5.349v5.349l-2.567,5.135-2.781-2.567v-4.921l-2.567,2.353v7.916h-5.349L502,154.549l2.567,2.781L502,159.9l-2.567,2.567v2.567L502,167.6l-2.567,2.781H491.3V167.6l-2.567,2.781V180.65L486.168,186V172.948l-2.567,2.781h-5.349l-2.567,2.567h2.567l2.567,2.353v3l-2.567-3-2.567,3-2.781-3h-2.567V186l-2.567,3,7.916-3,2.567,3v2.353h-7.916l-2.567,2.781V196.7H472.9v5.135h-5.135l-2.781,2.781-2.567,2.567-5.349-2.567L454.5,207.18v5.135h-2.567l-2.567,2.567,2.567,2.781-2.567,2.781h-5.349l2.567,2.567,2.781,2.781,2.567-2.781v5.135h-7.916v2.781l2.567,2.353-2.567,2.781h-2.781l-2.567,2.781-2.781,2.567,2.781,2.781v2.353l-2.781,2.567-2.353-2.567v-2.353l-3,4.921v2.781h3v5.135l-3,2.781h-2.353v5.135l-2.781,2.781H422.84v2.353h2.567v5.563l-2.567,2.567-5.135-2.567v-2.781l-2.781-2.781-2.567,2.781-2.781,2.781h-5.349v5.135l-2.781,2.567-2.353,5.135h-5.349V296.4l-2.567-2.567-2.567,2.567-2.781,2.781L383.26,296.4l-2.567,2.781-2.781,2.567h-2.567v5.349l-2.567-2.781H370l2.781,2.781v2.567H370l-2.567-2.567-2.567,2.567h-7.916v2.781l2.353,5.135h-5.349l-5.349-2.781h-2.139l-2.781,2.781,2.781,2.567v2.781h-8.13l-2.781,5.349v-5.349h-2.567l-2.567,2.567-2.567-2.567h-5.135v5.349l2.353,2.353h2.781v2.781h-2.781l-2.353,2.567h-5.563v2.567l2.781,2.781v2.567l-5.349-2.567v5.135l2.567,5.135h5.563v3h-2.781l-5.349-3v5.349l2.567,5.135,2.781,2.781-2.781,2.567-2.567-2.567-2.567,2.567v2.781l5.135,2.567h-5.135v2.781l2.567,2.567,2.567,2.567h5.563l5.135-2.567-5.135,5.135-2.781,2.567-2.781,2.781,5.563,5.349h-5.563l-2.567,2.567-2.567-2.567h-2.567l-2.781,4.921v2.781l-2.567,5.349,2.567,2.781,5.349-8.13h5.135v8.13h-2.567v5.135l-2.567,2.567v-2.567l-2.567,2.567v10.7l5.135,5.135,8.13,2.567-5.563,5.135,5.563,2.781,2.353-2.781v5.349h13.265l5.349-2.567v2.567L348.6,443.8l3-2.781,2.353-5.135,3-2.567,7.916-2.781v-2.353l2.567-2.781h5.349v2.781l2.567,2.353,5.349-2.353v-5.563l5.135-5.135V412.14l-2.567-2.353,5.349-5.563,2.567-2.567,2.567-2.781h2.781v5.349l-2.781,2.781h-2.567v5.135h2.567l7.7,5.349Z" transform="translate(-304.1 -86.3)"/>
  </g>
</svg>
