<svg xmlns="http://www.w3.org/2000/svg" viewBox="0 0 37.049 79.442">
  <defs>
    <style>
      .cls-1 {
        fill: #4664a2;
      }

      .cls-1, .cls-2 {
        stroke: #00050f;
        stroke-width: 0.25px;
      }

      .cls-2 {
        fill: none;
      }
    </style>
  </defs>
  <g id="Groupe_69" data-name="Groupe 69" transform="translate(0.125 0.157)">
    <path id="Tracé_137" data-name="Tracé 137" class="cls-1" d="M437.531,513.1l2.567,2.567v5.349l-2.567,2.781-2.567,5.349-2.781,2.139h-2.567l2.567,3-5.135,2.567h-2.567l-2.781,2.567v5.349h-2.567l-2.781-5.349v-2.567H411l-2.353-2.567H403.3v-5.135h2.567v-2.781H403.3v-2.568l2.567-2.781-2.567-2.567V513.1l2.567-2.567v-18.4h2.781v-5.135l-2.781-2.781V470.949l2.781-2.354H411l5.349-3,2.781,3,2.567,2.354h5.349v3l2.567,5.135v2.567l-2.567,2.567v7.916l2.567,2.567v7.916h2.567v5.349l2.781,2.567Z" transform="translate(-403.3 -465.6)"/>
    <path id="Tracé_138" data-name="Tracé 138" class="cls-2" d="M437.531,513.1l2.567,2.567v5.349l-2.567,2.781-2.567,5.349-2.781,2.139h-2.567l2.567,3-5.135,2.567h-2.567l-2.781,2.567v5.349h-2.567l-2.781-5.349v-2.567H411l-2.353-2.567H403.3v-5.135h2.567v-2.781H403.3v-2.568l2.567-2.781-2.567-2.567V513.1l2.567-2.567v-18.4h2.781v-5.135l-2.781-2.781V470.949l2.781-2.354H411l5.349-3,2.781,3,2.567,2.354h5.349v3l2.567,5.135v2.567l-2.567,2.567v7.916l2.567,2.567v7.916h2.567v5.349l2.781,2.567Z" transform="translate(-403.3 -465.6)"/>
  </g>
</svg>
