<svg xmlns="http://www.w3.org/2000/svg" viewBox="0 0 102.423 73.448">
  <defs>
    <style>
      .cls-1 {
        fill: #4664a2;
      }

      .cls-1, .cls-2 {
        stroke: #00050f;
        stroke-width: 0.25px;
      }

      .cls-2 {
        fill: none;
      }
    </style>
  </defs>
  <g id="Groupe_13" data-name="Groupe 13" transform="translate(0.125 0.153)">
    <path id="Tracé_25" data-name="Tracé 25" class="cls-1" d="M514.8,299.681l-5.349,10.483,10.7,2.567L514.8,318.08h-7.916v2.568L496.4,323.429v12.623l-2.781,5.349h-2.139v2.781l-2.567-2.781-5.563,2.781h-4.921l-2.781,5.135-2.567,2.353h-5.349v-2.353H462.6l-5.349-5.135-7.916-2.781v-3h-2.353v-2.353l2.353-2.781v-5.135L446.983,326v-2.567l-2.567-2.781h-2.567v2.781h-7.916l-2.781-2.781h-2.567l-2.139-2.568v-2.353h-5.563V307.6l-2.781-7.916V286.63h.428l8.13-2.567h4.707l3-2.781h15.4L454.9,278.5h8.13l7.7,2.781,5.349-2.781,2.781,2.781,4.921,2.781,7.916,2.567h2.353l2.567,5.135,8.13,5.349,2.353,2.567h7.7Z" transform="translate(-418.1 -278.5)"/>
    <path id="Tracé_26" data-name="Tracé 26" class="cls-2" d="M514.8,299.681l-5.349,10.483,10.7,2.567L514.8,318.08h-7.916v2.568L496.4,323.429v12.623l-2.781,5.349h-2.139v2.781l-2.567-2.781-5.563,2.781h-4.921l-2.781,5.135-2.567,2.353h-5.349v-2.353H462.6l-5.349-5.135-7.916-2.781v-3h-2.353v-2.353l2.353-2.781v-5.135L446.983,326v-2.567l-2.567-2.781h-2.567v2.781h-7.916l-2.781-2.781h-2.567l-2.139-2.568v-2.353h-5.563V307.6l-2.781-7.916V286.63h.428l8.13-2.567h4.707l3-2.781h15.4L454.9,278.5h8.13l7.7,2.781,5.349-2.781,2.781,2.781,4.921,2.781,7.916,2.567h2.353l2.567,5.135,8.13,5.349,2.353,2.567h7.7Z" transform="translate(-418.1 -278.5)"/>
  </g>
</svg>
