<svg xmlns="http://www.w3.org/2000/svg" viewBox="0 0 86.633 60.155">
  <defs>
    <style>
      .cls-1 {
        fill: #4664a2;
      }

      .cls-1, .cls-2 {
        stroke: #00050f;
        stroke-width: 0.25px;
      }

      .cls-2 {
        fill: none;
      }
    </style>
  </defs>
  <g id="Groupe_18" data-name="Groupe 18" transform="translate(0.288 0.125)">
    <path id="Tracé_35" data-name="Tracé 35" class="cls-1" d="M733.506,495.156v3h-5.135l-5.349,2.353H707.4l-2.567-2.353-5.135-3-7.7-5.135v-2.14l-5.349-2.567h-7.916v-2.567l-2.781-2.781-2.567,2.781H660.337l-2.567-2.781-2.353-5.349v-2.781l2.353-5.135-2.353-2.353v-2.781L647.5,459l7.916-5.135,4.921-2.781,5.349-2.353h7.7v-3h8.344V440.6h2.353l5.349,2.567v2.567h5.349l7.488,5.349-2.353,2.781-5.135,2.353,7.488,5.349h5.563l4.921,2.781V466.7l-2.567,2.781h-4.921l2.567,2.353,7.7,2.781,5.349,5.349h7.7l2.567,2.781-2.567,2.567h2.567l2.567,2.567v10.269Z" transform="translate(-647.5 -440.6)"/>
    <path id="Tracé_36" data-name="Tracé 36" class="cls-2" d="M733.506,495.156v3h-5.135l-5.349,2.353H707.4l-2.567-2.353-5.135-3-7.7-5.135v-2.14l-5.349-2.567h-7.916v-2.567l-2.781-2.781-2.567,2.781H660.337l-2.567-2.781-2.353-5.349v-2.781l2.353-5.135-2.353-2.353v-2.781L647.5,459l7.916-5.135,4.921-2.781,5.349-2.353h7.7v-3h8.344V440.6h2.353l5.349,2.567v2.567h5.349l7.488,5.349-2.353,2.781-5.135,2.353,7.488,5.349h5.563l4.921,2.781V466.7l-2.567,2.781h-4.921l2.567,2.353,7.7,2.781,5.349,5.349h7.7l2.567,2.781-2.567,2.567h2.567l2.567,2.567v10.269Z" transform="translate(-647.5 -440.6)"/>
  </g>
</svg>
