<svg xmlns="http://www.w3.org/2000/svg" viewBox="0 0 37.44 63.58">
  <defs>
    <style>
      .cls-1 {
        fill: #4664a2;
      }

      .cls-1, .cls-2 {
        stroke: #00050f;
        stroke-width: 0.25px;
      }

      .cls-2 {
        fill: none;
      }
    </style>
  </defs>
  <g id="Groupe_30" data-name="Groupe 30" transform="translate(0.302 0.341)">
    <path id="Tracé_59" data-name="Tracé 59" class="cls-1" d="M285.167,483.43l2.567,2.353,2.781-2.353h8.13l2.353-3h5.349v-2.353h2.781l2.353-2.781v2.781l3,2.353,2.353,3h-2.353l2.353,2.353v2.567h2.781v2.781l-2.781,5.349h2.781v2.567l-2.781,2.567h-2.353V514.88l-3,5.135v13.265l-2.353,2.567-2.781-2.567h-2.567l-5.135-2.567-3,2.567v5.135h-5.135l-5.349-2.567v-5.135l-2.567-2.781,2.567-5.349-2.567-2.567h2.567l2.567-2.567V512.1l2.781-2.567,2.567-2.567h-7.916v-7.916L282.6,493.7v-5.349l2.567-2.567Z" transform="translate(-282.6 -475.3)"/>
    <path id="Tracé_60" data-name="Tracé 60" class="cls-2" d="M285.167,483.43l2.567,2.353,2.781-2.353h8.13l2.353-3h5.349v-2.353h2.781l2.353-2.781v2.781l3,2.353,2.353,3h-2.353l2.353,2.353v2.567h2.781v2.781l-2.781,5.349h2.781v2.567l-2.781,2.567h-2.353V514.88l-3,5.135v13.265l-2.353,2.567-2.781-2.567h-2.567l-5.135-2.567-3,2.567v5.135h-5.135l-5.349-2.567v-5.135l-2.567-2.781,2.567-5.349-2.567-2.567h2.567l2.567-2.567V512.1l2.781-2.567,2.567-2.567h-7.916v-7.916L282.6,493.7v-5.349l2.567-2.567Z" transform="translate(-282.6 -475.3)"/>
  </g>
</svg>
