<svg xmlns="http://www.w3.org/2000/svg" viewBox="0 0 74.275 47.651">
  <defs>
    <style>
      .cls-1 {
        fill: #4664a2;
      }

      .cls-1, .cls-2 {
        stroke: #00050f;
        stroke-width: 0.25px;
      }

      .cls-2 {
        fill: none;
      }
    </style>
  </defs>
  <g id="Groupe_31" data-name="Groupe 31" transform="translate(0.125 0.167)">
    <path id="Tracé_61" data-name="Tracé 61" class="cls-1" d="M398.525,520.753V526.1l-2.781,5.349h-2.353l-2.781,2.567v7.916l-2.567,2.567v5.563h2.567l-2.567,2.353h2.567v5.349l-5.349,2.567v5.349l-5.135-2.568-3,2.568-4.921-2.568-2.781-5.349v-2.781l-5.135-2.567h-5.349l-2.567-2.353h-5.349l-2.567-5.563-2.781-2.567-7.7-2.567-3-2.568H332.63l-5.349-2.781-2.781-2.567v-2.567l2.781-2.781v-5.349h2.353l3-2.353,2.353,2.353v2.781l5.349-2.781h5.349l2.781,2.781L353.6,526.1l5.349,2.781h5.349l5.135-2.781h7.7l3-2.567h2.353l2.781,2.567,2.781-2.567h5.349Z" transform="translate(-324.5 -518.4)"/>
    <path id="Tracé_62" data-name="Tracé 62" class="cls-2" d="M398.525,520.753V526.1l-2.781,5.349h-2.353l-2.781,2.567v7.916l-2.567,2.567v5.563h2.567l-2.567,2.353h2.567v5.349l-5.349,2.567v5.349l-5.135-2.568-3,2.568-4.921-2.568-2.781-5.349v-2.781l-5.135-2.567h-5.349l-2.567-2.353h-5.349l-2.567-5.563-2.781-2.567-7.7-2.567-3-2.568H332.63l-5.349-2.781-2.781-2.567v-2.567l2.781-2.781v-5.349h2.353l3-2.353,2.353,2.353v2.781l5.349-2.781h5.349l2.781,2.781L353.6,526.1l5.349,2.781h5.349l5.135-2.781h7.7l3-2.567h2.353l2.781,2.567,2.781-2.567h5.349Z" transform="translate(-324.5 -518.4)"/>
  </g>
</svg>
