<svg xmlns="http://www.w3.org/2000/svg" viewBox="0 0 97.906 92.722">
  <defs>
    <style>
      .cls-1 {
        fill: #4664a2;
      }

      .cls-1, .cls-2 {
        stroke: #00050f;
        stroke-width: 0.25px;
      }

      .cls-2 {
        fill: none;
      }
    </style>
  </defs>
  <g id="Groupe_27" data-name="Groupe 27" transform="translate(0.177 0.302)">
    <path id="Tracé_53" data-name="Tracé 53" class="cls-1" d="M253.059,303.629l-2.353,2.353v-2.353h-3l3,2.353-3,3v7.7l-2.353,2.567V324.6l-2.781,2.567v8.13h-2.567v2.353l-2.567,2.781H234.66v2.567l-2.567,2.781-5.349,2.353-2.781-2.353H205.777l-2.567,2.353h-2.781v-2.353l-2.567,2.353H195.08v2.781h-5.135l-2.781-2.781-2.353,2.781h-5.349l-3-2.781h-2.353l-5.135,2.781v-5.135l-8.13,2.353h2.567l5.563-2.353h-8.13l5.349-2.781h-5.349v-2.567l2.567-2.781h0l-2.567-2.353-2.781,2.353-2.567-2.353,2.567-2.781,2.781-2.567h8.13l-2.781-2.781h-8.13V324.6l2.781-2.567h10.269v-2.781h8.344l2.353,2.781h8.13l-2.781-2.781h-5.349l-2.353-2.567-5.349,2.567-3-2.567h5.349l5.349-5.349,8.13-2.353h2.567l2.567-3v-2.353h-7.916l-2.353,2.353v-5.135h-3v-2.353l-2.353-5.349,2.353-2.781h3l2.353-2.567,2.781-2.781h0v-5.135l-2.781-2.567h2.781l2.567-5.349h5.349l2.567,2.781,2.781,2.567v2.567l5.135,2.781,2.567,2.353,5.349-2.353v-5.349h5.349l2.353-2.567h-2.353l-5.349-2.781-2.567-2.567,7.916-2.567,2.353-2.567h0l2.781-2.567h5.349l2.567-3,5.349,3h7.7v-3l3,3,2.353,2.567-2.353,2.567h-5.349l2.353,2.567h-7.7l-2.567,2.567-2.781,2.781v2.567l-2.567,2.567-2.781-2.567h-2.567v2.567l-2.781,2.781,2.781,2.353,2.567,2.781,2.781,2.567,2.567,2.781,2.781-2.781h5.135l5.135,2.781v2.568l3,2.781Z" transform="translate(-155.5 -258.7)"/>
    <path id="Tracé_54" data-name="Tracé 54" class="cls-2" d="M253.059,303.629l-2.353,2.353v-2.353h-3l3,2.353-3,3v7.7l-2.353,2.567V324.6l-2.781,2.567v8.13h-2.567v2.353l-2.567,2.781H234.66v2.567l-2.567,2.781-5.349,2.353-2.781-2.353H205.777l-2.567,2.353h-2.781v-2.353l-2.567,2.353H195.08v2.781h-5.135l-2.781-2.781-2.353,2.781h-5.349l-3-2.781h-2.353l-5.135,2.781v-5.135l-8.13,2.353h2.567l5.563-2.353h-8.13l5.349-2.781h-5.349v-2.567l2.567-2.781h0l-2.567-2.353-2.781,2.353-2.567-2.353,2.567-2.781,2.781-2.567h8.13l-2.781-2.781h-8.13V324.6l2.781-2.567h10.269v-2.781h8.344l2.353,2.781h8.13l-2.781-2.781h-5.349l-2.353-2.567-5.349,2.567-3-2.567h5.349l5.349-5.349,8.13-2.353h2.567l2.567-3v-2.353h-7.916l-2.353,2.353v-5.135h-3v-2.353l-2.353-5.349,2.353-2.781h3l2.353-2.567,2.781-2.781h0v-5.135l-2.781-2.567h2.781l2.567-5.349h5.349l2.567,2.781,2.781,2.567v2.567l5.135,2.781,2.567,2.353,5.349-2.353v-5.349h5.349l2.353-2.567h-2.353l-5.349-2.781-2.567-2.567,7.916-2.567,2.353-2.567h0l2.781-2.567h5.349l2.567-3,5.349,3h7.7v-3l3,3,2.353,2.567-2.353,2.567h-5.349l2.353,2.567h-7.7l-2.567,2.567-2.781,2.781v2.567l-2.567,2.567-2.781-2.567h-2.567v2.567l-2.781,2.781,2.781,2.353,2.567,2.781,2.781,2.567,2.567,2.781,2.781-2.781h5.135l5.135,2.781v2.568l3,2.781Z" transform="translate(-155.5 -258.7)"/>
  </g>
</svg>
