<svg xmlns="http://www.w3.org/2000/svg" viewBox="0 0 18.649 18.545">
  <defs>
    <style>
      .cls-1 {
        fill: #4664a2;
      }

      .cls-1, .cls-2 {
        stroke: #00050f;
        stroke-width: 0.25px;
      }

      .cls-2 {
        fill: none;
      }
    </style>
  </defs>
  <g id="Groupe_36" data-name="Groupe 36" transform="translate(0.125 0.302)">
    <path id="Tracé_71" data-name="Tracé 71" class="cls-1" d="M214.7,240.485l2.781-5.349,2.567-2.353,2.781,2.353v3l2.353-3v-2.353L227.965,230h2.567v-2.567l2.567-2.567V222.3l-2.567,2.567h-7.7V230l-2.781-2.567v-2.567l-2.567,2.567V230l-2.781,5.135v5.349Z" transform="translate(-214.7 -222.3)"/>
    <path id="Tracé_72" data-name="Tracé 72" class="cls-2" d="M214.7,240.485l2.781-5.349,2.567-2.353,2.781,2.353v3l2.353-3v-2.353L227.965,230h2.567v-2.567l2.567-2.567V222.3l-2.567,2.567h-7.7V230l-2.781-2.567v-2.567l-2.567,2.567V230l-2.781,5.135v5.349Z" transform="translate(-214.7 -222.3)"/>
  </g>
</svg>
