<svg xmlns="http://www.w3.org/2000/svg" viewBox="0 0 248.642 260.623">
  <defs>
    <style>
      .cls-1 {
        fill: #4664a2;
      }

      .cls-1, .cls-2 {
        stroke: #00050f;
        stroke-width: 0.25px;
      }

      .cls-2 {
        fill: none;
      }
    </style>
  </defs>
  <g id="Groupe_43" data-name="Groupe 43" transform="translate(0.125 0.125)">
    <path id="Tracé_85" data-name="Tracé 85" class="cls-1" d="M286.7,487.081l5.135-2.353,2.781-2.781h5.349l5.349-2.567,2.567-2.567V474.03l2.567-2.567,2.567-2.781h8.13l5.135,5.349,2.567-2.567,7.916,5.349V474.03l2.781-2.567h5.349l-2.781,2.567v2.781l2.781,2.567-2.781,2.567,5.135,5.135,3,10.7,2.353,10.483,2.781,2.567,5.349,13.265h2.567l5.349,5.349,2.567,5.135,2.781,2.354,2.567,3,7.7,7.7,15.832,15.832h2.781l2.567,5.349h5.349l2.567,5.135,2.781-2.567,7.7,7.916,3,2.567,2.353,2.567h2.567l5.349,5.349h2.781l2.567,2.567v10.269l5.349,3h5.135l5.349,2.567,2.567,2.567v2.781l2.781,2.567,2.353,7.7,2.781,8.13v7.7l-2.781,2.781h-5.135v10.269l-2.567,2.781-2.567,2.567v2.781l2.567,2.567h7.7l2.781-2.567h2.567v-2.781l5.563-2.567v-7.7l2.567-2.781,2.567-2.567,2.567-2.781h8.13v-18.4l-3-2.567-5.135,2.567-2.567-4.493-.856-6.846.856-4.279H484.6v-3l2.781-2.139H484.6l2.781-2.781,2.353-2.567h5.349v2.567l5.349,2.781h10.7v5.135l2.567,2.567v2.567l2.781,2.781h5.135l2.781-2.781V597.691l-5.563-2.567-2.353-5.349-2.781-2.781-5.135-2.567h-5.349l-2.781-2.567-2.353-2.567-8.344-2.567-2.353-2.781-2.781-2.567h-7.7l-2.781-2.567-5.349-2.781h-2.781l2.781-2.567h2.567l2.781-2.567v-5.349l-8.13-2.567H450.366l-5.135-2.567-2.781-5.135-2.567-3-5.349-5.349-2.781-4.921-4.921-5.349v-5.349l2.353-2.567-2.353-5.135-3-5.349V505.48l-2.353-2.567v-5.135h-3L413.354,495,408,492.43h-2.567l-5.349-2.567v-2.781l-2.567-2.353v-2.781l-2.567-5.135,2.567-2.781v-5.349l2.567-2.353,2.781-2.781v-2.567h-2.781l-2.567-2.781v-2.353h-2.567l2.567-3h2.567v-5.135h13.265l2.781-2.567h2.353V442.58h5.349v2.567l3,2.567V442.58h2.353l2.567-2.781-2.567-2.567-2.353-2.567,4.921-2.781v-2.353l-2.567-2.781V421.4h-2.353l-3-2.567H410.786L408,416.265l-2.567-2.781V411.13l-2.567-2.781-2.781-2.567H387.252l-3-2.781h-2.567v2.781l-5.135,2.567h-5.349V403h-5.349v8.13H363.29l-2.567-2.781-2.781,2.781-2.567,2.353,2.567,2.781-2.567,2.567-2.781-2.567h-7.7v-2.781l-2.781-2.353h-2.567v7.7h-2.781l-2.567,2.567-2.781,2.781v2.567l-2.567-2.567-2.567-2.781-2.567-2.567v-5.349l-2.567-2.353h-2.781l-2.781,2.353v2.781l-2.567,5.135h-7.7l-2.781-2.567-10.7,2.567h-2.353v2.781H286.7v2.567l2.781,2.781v2.353l2.353,2.781-2.353,2.567L286.7,439.8l-2.567,2.781H276v2.567l2.781,2.567h2.567l2.781,2.781v5.349l-2.781,2.353v10.483l2.781,5.349h7.7l2.781,2.781-2.781,2.567v2.567l-2.353,2.781Z" transform="translate(-276 -403)"/>
    <path id="Tracé_86" data-name="Tracé 86" class="cls-2" d="M286.7,487.081l5.135-2.353,2.781-2.781h5.349l5.349-2.567,2.567-2.567V474.03l2.567-2.567,2.567-2.781h8.13l5.135,5.349,2.567-2.567,7.916,5.349V474.03l2.781-2.567h5.349l-2.781,2.567v2.781l2.781,2.567-2.781,2.567,5.135,5.135,3,10.7,2.353,10.483,2.781,2.567,5.349,13.265h2.567l5.349,5.349,2.567,5.135,2.781,2.354,2.567,3,7.7,7.7,15.832,15.832h2.781l2.567,5.349h5.349l2.567,5.135,2.781-2.567,7.7,7.916,3,2.567,2.353,2.567h2.567l5.349,5.349h2.781l2.567,2.567v10.269l5.349,3h5.135l5.349,2.567,2.567,2.567v2.781l2.781,2.567,2.353,7.7,2.781,8.13v7.7l-2.781,2.781h-5.135v10.269l-2.567,2.781-2.567,2.567v2.781l2.567,2.567h7.7l2.781-2.567h2.567v-2.781l5.563-2.567v-7.7l2.567-2.781,2.567-2.567,2.567-2.781h8.13v-18.4l-3-2.567-5.135,2.567-2.567-4.493-.856-6.846.856-4.279H484.6v-3l2.781-2.139H484.6l2.781-2.781,2.353-2.567h5.349v2.567l5.349,2.781h10.7v5.135l2.567,2.567v2.567l2.781,2.781h5.135l2.781-2.781V597.691l-5.563-2.567-2.353-5.349-2.781-2.781-5.135-2.567h-5.349l-2.781-2.567-2.353-2.567-8.344-2.567-2.353-2.781-2.781-2.567h-7.7l-2.781-2.567-5.349-2.781h-2.781l2.781-2.567h2.567l2.781-2.567v-5.349l-8.13-2.567H450.366l-5.135-2.567-2.781-5.135-2.567-3-5.349-5.349-2.781-4.921-4.921-5.349v-5.349l2.353-2.567-2.353-5.135-3-5.349V505.48l-2.353-2.567v-5.135h-3L413.354,495,408,492.43h-2.567l-5.349-2.567v-2.781l-2.567-2.353v-2.781l-2.567-5.135,2.567-2.781v-5.349l2.567-2.353,2.781-2.781v-2.567h-2.781l-2.567-2.781v-2.353h-2.567l2.567-3h2.567v-5.135h13.265l2.781-2.567h2.353V442.58h5.349v2.567l3,2.567V442.58h2.353l2.567-2.781-2.567-2.567-2.353-2.567,4.921-2.781v-2.353l-2.567-2.781V421.4h-2.353l-3-2.567H410.786L408,416.265l-2.567-2.781V411.13l-2.567-2.781-2.781-2.567H387.252l-3-2.781h-2.567v2.781l-5.135,2.567h-5.349V403h-5.349v8.13H363.29l-2.567-2.781-2.781,2.781-2.567,2.353,2.567,2.781-2.567,2.567-2.781-2.567h-7.7v-2.781l-2.781-2.353h-2.567v7.7h-2.781l-2.567,2.567-2.781,2.781v2.567l-2.567-2.567-2.567-2.781-2.567-2.567v-5.349l-2.567-2.353h-2.781l-2.781,2.353v2.781l-2.567,5.135h-7.7l-2.781-2.567-10.7,2.567h-2.353v2.781H286.7v2.567l2.781,2.781v2.353l2.353,2.781-2.353,2.567L286.7,439.8l-2.567,2.781H276v2.567l2.781,2.567h2.567l2.781,2.781v5.349l-2.781,2.353v10.483l2.781,5.349h7.7l2.781,2.781-2.781,2.567v2.567l-2.353,2.781Z" transform="translate(-276 -403)"/>
  </g>
</svg>
