<svg xmlns="http://www.w3.org/2000/svg" viewBox="0 0 350.48 177.415">
  <defs>
    <style>
      .cls-1 {
        fill: #4664a2;
      }

      .cls-1, .cls-2 {
        stroke: #00050f;
        stroke-width: 0.25px;
      }

      .cls-2 {
        fill: none;
      }
    </style>
  </defs>
  <g id="Groupe_15" data-name="Groupe 15" transform="translate(0.125 0.125)">
    <path id="Tracé_29" data-name="Tracé 29" class="cls-1" d="M593.792,500.994l2.567-2.781,2.781,2.781,2.354,2.353h2.567v-7.7l2.781-5.349h2.567l2.354,2.781,5.349-2.781,5.349-5.135h2.567v2.353h2.781V474.679l2.567,5.135,2.353,2.781v2.567l3,5.135h-5.349v7.916l5.349,2.781,4.921,2.353,8.13-5.135,4.707-2.567h2.781l2.781-2.567,2.567,7.916,2.567-2.781,2.781-5.135V490.3H669.1l3.209,2.781,2.353-2.781h10.483v2.781h2.567V490.3h2.567l2.353-7.7,5.349-2.781v5.349h3l7.7-7.916,5.349-2.567,2.14-2.567,2.781-2.781h2.567l5.349,2.781,2.567-2.781-2.567-2.567L732,464.2l2.567-5.135,2.781-2.567h2.567l2.567-3v-2.353l2.781,2.353h2.354l.214-2.353V438.308l7.916-2.781,2.567-7.916,2.567-2.353h13.051l3-7.916v-7.916l-5.563-7.916H768.8v-2.567l2.567-2.567,2.567-2.781v-2.567H768.8l-2.567-1.926,2.567-2.781,5.135-2.781,3-2.353V372.84h-3l-2.567,3h-5.135l-5.349-3h-5.135v3l-2.567-3v-2.353h-7.7v2.353h-5.135v-2.353l-5.562,2.353-2.567-2.353-2.567-2.781v2.781l-4.921,2.353-8.344-5.135-2.139-2.353v-2.567h-5.349l-5.135,4.921-2.568,2.781h-2.781l-2.567-2.781-2.781,2.781-2.567-2.781H679.8v-2.353l-2.353-7.916v-2.567h-4.921l-3-5.135v-2.781h-2.354l-2.781,2.781H651.344V336.469l-2.139-2.781-3-4.493-2.781-3H640.86l-4.921,3-5.349-3h-2.567l-2.781,3h-2.353l-5.349,2.139-2.781-2.139-4.921,2.139v5.135H599.355l-3-1.5h-7.7l-4.065,4.065v4.707l-1.926,5.99,3,5.563-1.07,1.926V363l-1.07-.214-5.349-5.349H575.82L573.253,360l-8.13-2.567H562.77L559.561,360l-.856,3-1.07,2.353-3-7.06-2.781-1.07-3,5.777-1.712-3-2.567-2.567h-5.349L536.454,360h-7.7l-2.567-2.567H523.4l-10.269-2.567-5.135-3-7.916-2.139H492.6l-8.344,2.139h-4.707l-5.349-.428-4.921,2.781-1.07,3L465.424,360l-1.925,2.781L460.931,360h-3.423l-1.712,5.349.856.642-1.284,1.712-2.567,2.781,2.567,2.353,5.349,5.349,2.567,3-2.567,2.353v2.781l2.567,2.781v7.274h-5.349l-2.567,5.135-5.135,2.781-7.488,7.7-3.209,2.781-2.353,5.135,2.353,7.7v5.563h-4.921l-5.135,7.7-2.781,7.274V453.5l5.349,5.563,5.135,2.567H452.8l5.135,2.567,5.349,2.567,7.7-2.567,2.567-2.567,5.563,2.567,2.567,2.567L486.6,464.2l5.563-5.135H505l2.781-5.563h7.7v-2.353l2.781,2.353h2.567l7.488-2.353,2.781-3,2.781-1.926h7.488v1.926h5.349l2.781,3,2.567,2.353,2.353-2.353h3l2.354,2.353,5.135,3v-3l5.777,3v5.135h2.139v13.051h5.135l2.781,5.135v5.349h5.349V490.3l2.567,2.781,2.567,2.567,2.567,2.567Z" transform="translate(-426.7 -326.2)"/>
    <path id="Tracé_30" data-name="Tracé 30" class="cls-2" d="M593.792,500.994l2.567-2.781,2.781,2.781,2.354,2.353h2.567v-7.7l2.781-5.349h2.567l2.354,2.781,5.349-2.781,5.349-5.135h2.567v2.353h2.781V474.679l2.567,5.135,2.353,2.781v2.567l3,5.135h-5.349v7.916l5.349,2.781,4.921,2.353,8.13-5.135,4.707-2.567h2.781l2.781-2.567,2.567,7.916,2.567-2.781,2.781-5.135V490.3H669.1l3.209,2.781,2.353-2.781h10.483v2.781h2.567V490.3h2.567l2.353-7.7,5.349-2.781v5.349h3l7.7-7.916,5.349-2.567,2.14-2.567,2.781-2.781h2.567l5.349,2.781,2.567-2.781-2.567-2.567L732,464.2l2.567-5.135,2.781-2.567h2.567l2.567-3v-2.353l2.781,2.353h2.354l.214-2.353V438.308l7.916-2.781,2.567-7.916,2.567-2.353h13.051l3-7.916v-7.916l-5.563-7.916H768.8v-2.567l2.567-2.567,2.567-2.781v-2.567H768.8l-2.567-1.926,2.567-2.781,5.135-2.781,3-2.353V372.84h-3l-2.567,3h-5.135l-5.349-3h-5.135v3l-2.567-3v-2.353h-7.7v2.353h-5.135v-2.353l-5.562,2.353-2.567-2.353-2.567-2.781v2.781l-4.921,2.353-8.344-5.135-2.139-2.353v-2.567h-5.349l-5.135,4.921-2.568,2.781h-2.781l-2.567-2.781-2.781,2.781-2.567-2.781H679.8v-2.353l-2.353-7.916v-2.567h-4.921l-3-5.135v-2.781h-2.354l-2.781,2.781H651.344V336.469l-2.139-2.781-3-4.493-2.781-3H640.86l-4.921,3-5.349-3h-2.567l-2.781,3h-2.353l-5.349,2.139-2.781-2.139-4.921,2.139v5.135H599.355l-3-1.5h-7.7l-4.065,4.065v4.707l-1.926,5.99,3,5.563-1.07,1.926V363l-1.07-.214-5.349-5.349H575.82L573.253,360l-8.13-2.567H562.77L559.561,360l-.856,3-1.07,2.353-3-7.06-2.781-1.07-3,5.777-1.712-3-2.567-2.567h-5.349L536.454,360h-7.7l-2.567-2.567H523.4l-10.269-2.567-5.135-3-7.916-2.139H492.6l-8.344,2.139h-4.707l-5.349-.428-4.921,2.781-1.07,3L465.424,360l-1.925,2.781L460.931,360h-3.423l-1.712,5.349.856.642-1.284,1.712-2.567,2.781,2.567,2.353,5.349,5.349,2.567,3-2.567,2.353v2.781l2.567,2.781v7.274h-5.349l-2.567,5.135-5.135,2.781-7.488,7.7-3.209,2.781-2.353,5.135,2.353,7.7v5.563h-4.921l-5.135,7.7-2.781,7.274V453.5l5.349,5.563,5.135,2.567H452.8l5.135,2.567,5.349,2.567,7.7-2.567,2.567-2.567,5.563,2.567,2.567,2.567L486.6,464.2l5.563-5.135H505l2.781-5.563h7.7v-2.353l2.781,2.353h2.567l7.488-2.353,2.781-3,2.781-1.926h7.488v1.926h5.349l2.781,3,2.567,2.353,2.353-2.353h3l2.354,2.353,5.135,3v-3l5.777,3v5.135h2.139v13.051h5.135l2.781,5.135v5.349h5.349V490.3l2.567,2.781,2.567,2.567,2.567,2.567Z" transform="translate(-426.7 -326.2)"/>
  </g>
</svg>
