<svg xmlns="http://www.w3.org/2000/svg" viewBox="0 0 121.581 103.121">
  <defs>
    <style>
      .cls-1 {
        fill: #4664a2;
      }

      .cls-1, .cls-2 {
        stroke: #00050f;
        stroke-width: 0.25px;
      }

      .cls-2 {
        fill: none;
      }
    </style>
  </defs>
  <g id="Groupe_26" data-name="Groupe 26" transform="translate(0.149 0.125)">
    <path id="Tracé_51" data-name="Tracé 51" class="cls-1" d="M164.2,146.728l2.353,2.353h3l2.353,2.781,3,2.781L177.251,157H182.6v10.483l2.567,2.781,5.349,5.349h5.349v5.135L201,183.313l2.781,2.781v-2.781l2.567-2.567v2.567h2.781l4.921-2.567h2.781l5.349,2.567,2.567-2.567,2.781,2.567h5.135v2.781l5.135-2.781,3-2.567,5.349,2.567h2.139l3-2.567,2.567,2.567v2.781l2.781-2.781h2.567l5.135-2.567,2.567-5.135,2.781,2.781h7.916v-5.349l2.781-2.781h2.353v-5.135l2.781-2.781v-2.567L282.726,157v-5.135h-5.135v-2.781l2.781-2.353,2.353,2.353v-2.353l-2.353-2.567v-5.349l5.135-2.781v-2.567l-2.781,2.567h-5.135V130.9l2.781-2.567v-2.781l-5.349-2.567v2.567l-2.781,2.781-2.567,2.567h-2.781l-2.567-2.567v-2.781l-5.135,2.781-5.349,2.567h-2.567l2.567-7.916-2.567-2.781v2.781l-3,5.349V130.9l-2.139,2.567-3-2.567v-5.349l3-2.567v-5.135l-3-3-2.353,3-3-3v3l-2.353,2.353-2.781,2.781H230.1V112.5l-2.567-2.567-2.781,4.921-2.567,5.349H219.4v-2.353h-5.349l-4.921,7.7V122.98h-2.781V120.2l2.781-2.353v-10.7h4.921l2.781-5.349h-2.781V99.232l2.781-2.567V88.749L211.7,83.4h-5.349l2.781,2.781L211.7,91.53h-2.567v7.7l-2.781,2.567-2.567-2.567V94.1L201,96.665V88.749h-2.567l-2.567-2.567V94.1l-5.349-2.567L193.3,94.1l2.567,2.567-5.349,2.567h-2.567V94.1l-2.781-2.567v5.135H182.6V94.1l-2.567,2.567v2.567h5.135l2.781,2.567H193.3l2.567,2.781,2.567,2.567v2.781h5.349v4.921H201l-5.135-2.353h-5.349l2.781,2.353,2.567,3,2.567,2.353-2.567,2.781H193.3l-2.781-2.781-2.567-2.353h-2.781l-5.135-3L174.9,112.5l-5.349,2.353v3h10.483L182.6,120.2v2.781h2.567v5.349L182.6,130.9v5.135l2.567-2.567v2.567l-2.567,2.781-2.567,2.567H171.9l-2.353,2.781-3-2.781Z" transform="translate(-164.2 -83.4)"/>
    <path id="Tracé_52" data-name="Tracé 52" class="cls-2" d="M164.2,146.728l2.353,2.353h3l2.353,2.781,3,2.781L177.251,157H182.6v10.483l2.567,2.781,5.349,5.349h5.349v5.135L201,183.313l2.781,2.781v-2.781l2.567-2.567v2.567h2.781l4.921-2.567h2.781l5.349,2.567,2.567-2.567,2.781,2.567h5.135v2.781l5.135-2.781,3-2.567,5.349,2.567h2.139l3-2.567,2.567,2.567v2.781l2.781-2.781h2.567l5.135-2.567,2.567-5.135,2.781,2.781h7.916v-5.349l2.781-2.781h2.353v-5.135l2.781-2.781v-2.567L282.726,157v-5.135h-5.135v-2.781l2.781-2.353,2.353,2.353v-2.353l-2.353-2.567v-5.349l5.135-2.781v-2.567l-2.781,2.567h-5.135V130.9l2.781-2.567v-2.781l-5.349-2.567v2.567l-2.781,2.781-2.567,2.567h-2.781l-2.567-2.567v-2.781l-5.135,2.781-5.349,2.567h-2.567l2.567-7.916-2.567-2.781v2.781l-3,5.349V130.9l-2.139,2.567-3-2.567v-5.349l3-2.567v-5.135l-3-3-2.353,3-3-3v3l-2.353,2.353-2.781,2.781H230.1V112.5l-2.567-2.567-2.781,4.921-2.567,5.349H219.4v-2.353h-5.349l-4.921,7.7V122.98h-2.781V120.2l2.781-2.353v-10.7h4.921l2.781-5.349h-2.781V99.232l2.781-2.567V88.749L211.7,83.4h-5.349l2.781,2.781L211.7,91.53h-2.567v7.7l-2.781,2.567-2.567-2.567V94.1L201,96.665V88.749h-2.567l-2.567-2.567V94.1l-5.349-2.567L193.3,94.1l2.567,2.567-5.349,2.567h-2.567V94.1l-2.781-2.567v5.135H182.6V94.1l-2.567,2.567v2.567h5.135l2.781,2.567H193.3l2.567,2.781,2.567,2.567v2.781h5.349v4.921H201l-5.135-2.353h-5.349l2.781,2.353,2.567,3,2.567,2.353-2.567,2.781H193.3l-2.781-2.781-2.567-2.353h-2.781l-5.135-3L174.9,112.5l-5.349,2.353v3h10.483L182.6,120.2v2.781h2.567v5.349L182.6,130.9v5.135l2.567-2.567v2.567l-2.567,2.781-2.567,2.567H171.9l-2.353,2.781-3-2.781Z" transform="translate(-164.2 -83.4)"/>
  </g>
</svg>
