<svg xmlns="http://www.w3.org/2000/svg" viewBox="0 0 37.351 26.565">
  <defs>
    <style>
      .cls-1 {
        fill: #4664a2;
      }

      .cls-1, .cls-2 {
        stroke: #00050f;
        stroke-width: 0.25px;
      }

      .cls-2 {
        fill: none;
      }
    </style>
  </defs>
  <g id="Groupe_60" data-name="Groupe 60" transform="translate(0.213 0.125)">
    <path id="Tracé_119" data-name="Tracé 119" class="cls-1" d="M441.4,513.367l5.349-2.567h2.567l3,2.567,2.139,2.567H459.8l5.349,2.781,2.781,2.353H470.5l2.567,2.781v2.567l2.781,2.567,2.567,2.781v5.349h-2.567l-2.781-5.349-2.567-2.781-2.567-2.567-5.349-2.567-2.781-2.781-5.349-2.353-2.139-2.781h-8.344Z" transform="translate(-441.4 -510.8)"/>
    <path id="Tracé_120" data-name="Tracé 120" class="cls-2" d="M441.4,513.367l5.349-2.567h2.567l3,2.567,2.139,2.567H459.8l5.349,2.781,2.781,2.353H470.5l2.567,2.781v2.567l2.781,2.567,2.567,2.781v5.349h-2.567l-2.781-5.349-2.567-2.781-2.567-2.567-5.349-2.567-2.781-2.781-5.349-2.353-2.139-2.781h-8.344Z" transform="translate(-441.4 -510.8)"/>
  </g>
</svg>
