<svg xmlns="http://www.w3.org/2000/svg" viewBox="0 0 42.808 26.284">
  <defs>
    <style>
      .cls-1 {
        fill: #4664a2;
      }

      .cls-1, .cls-2 {
        stroke: #00050f;
        stroke-width: 0.25px;
      }

      .cls-2 {
        fill: none;
      }
    </style>
  </defs>
  <g id="Groupe_51" data-name="Groupe 51" transform="translate(0.125 0.125)">
    <path id="Tracé_101" data-name="Tracé 101" class="cls-1" d="M324.081,286.7v-5.349l2.781-2.567H339.7l3-2.567h7.7l2.781,2.567,2.567,2.567v-2.567l2.567-2.567,2.781-2.567V268.3h-2.781v-2.567l2.781-2.781,2.567-2.353h-2.567l-2.781,2.353h-5.135l-2.781,2.781h-2.567l-2.567,2.567-2.567,2.781v2.567l-3,2.567H324.081l-2.781,2.567v2.567Z" transform="translate(-321.3 -260.6)"/>
    <path id="Tracé_102" data-name="Tracé 102" class="cls-2" d="M324.081,286.7v-5.349l2.781-2.567H339.7l3-2.567h7.7l2.781,2.567,2.567,2.567v-2.567l2.567-2.567,2.781-2.567V268.3h-2.781v-2.567l2.781-2.781,2.567-2.353h-2.567l-2.781,2.353h-5.135l-2.781,2.781h-2.567l-2.567,2.567-2.567,2.781v2.567l-3,2.567H324.081l-2.781,2.567v2.567Z" transform="translate(-321.3 -260.6)"/>
  </g>
</svg>
