<svg xmlns="http://www.w3.org/2000/svg" viewBox="0 0 47.802 60.76">
  <defs>
    <style>
      .cls-1 {
        fill: #4664a2;
      }

      .cls-1, .cls-2 {
        stroke: #00050f;
        stroke-width: 0.25px;
      }

      .cls-2 {
        fill: none;
      }
    </style>
  </defs>
  <g id="Groupe_47" data-name="Groupe 47" transform="translate(0.18 0.125)">
    <path id="Tracé_93" data-name="Tracé 93" class="cls-1" d="M324.43,326.312h2.353l2.781,2.353h5.349l1.07,1.5-1.284,1.284,2.781-2.781h2.567l-2.567-2.567-2.781-2.567,2.781-2.567h2.567l-2.567-2.567v-2.567h2.567V310.48h2.781l2.567-2.567h2.781v-2.781l5.135-2.567,2.567-5.349-2.567-2.567,2.567-2.567h2.781v2.567h2.567l2.567-2.567v-5.349l-2.567-2.567H355.88V281.6h-2.567v-2.781l2.567-2.567h2.781l-2.781-2.567V270.9h-5.135v2.781h-7.916l-2.781,2.567,2.781,2.567V281.6l-2.781-2.781-2.567,2.781v-5.349H334.7l-2.353,2.567V281.6h-2.781v0l-2.781-2.781H324.43v-2.567h-2.781v2.567l-2.567,2.781v20.967l-2.781,2.567,2.781,2.781h2.567v2.567l2.781,2.567v13.265Z" transform="translate(-316.3 -270.9)"/>
    <path id="Tracé_94" data-name="Tracé 94" class="cls-2" d="M324.43,326.312h2.353l2.781,2.353h5.349l1.07,1.5-1.284,1.284,2.781-2.781h2.567l-2.567-2.567-2.781-2.567,2.781-2.567h2.567l-2.567-2.567v-2.567h2.567V310.48h2.781l2.567-2.567h2.781v-2.781l5.135-2.567,2.567-5.349-2.567-2.567,2.567-2.567h2.781v2.567h2.567l2.567-2.567v-5.349l-2.567-2.567H355.88V281.6h-2.567v-2.781l2.567-2.567h2.781l-2.781-2.567V270.9h-5.135v2.781h-7.916l-2.781,2.567,2.781,2.567V281.6l-2.781-2.781-2.567,2.781v-5.349H334.7l-2.353,2.567V281.6h-2.781v0l-2.781-2.781H324.43v-2.567h-2.781v2.567l-2.567,2.781v20.967l-2.781,2.567,2.781,2.781h2.567v2.567l2.781,2.567v13.265Z" transform="translate(-316.3 -270.9)"/>
  </g>
</svg>
