<svg xmlns="http://www.w3.org/2000/svg" viewBox="0 0 26.995 31.7">
  <defs>
    <style>
      .cls-1 {
        fill: #4664a2;
      }

      .cls-1, .cls-2 {
        stroke: #00050f;
        stroke-width: 0.25px;
      }

      .cls-2 {
        fill: none;
      }
    </style>
  </defs>
  <g id="Groupe_53" data-name="Groupe 53" transform="translate(0.125 0.125)">
    <path id="Tracé_105" data-name="Tracé 105" class="cls-1" d="M351.365,315.25l-5.349-2.353H348.8v-3h-8.13l-2.567-2.353v-2.781l2.567-2.353-2.567-2.781v-2.781l2.567-2.567h2.781l2.567-2.567v-2.781H348.8v2.781l-2.781,2.567,2.781,2.567h2.567v-5.135H356.5l2.781-2.781-2.781-2.353h-2.567L356.5,283.8h8.13l-2.781,2.781h2.781l-2.781,2.353,2.781,5.349-2.781,2.567-5.349,5.563,2.781,2.353L356.5,309.9h-2.567l-2.567,3,2.567,2.353Z" transform="translate(-338.1 -283.8)"/>
    <path id="Tracé_106" data-name="Tracé 106" class="cls-2" d="M351.365,315.25l-5.349-2.353H348.8v-3h-8.13l-2.567-2.353v-2.781l2.567-2.353-2.567-2.781v-2.781l2.567-2.567h2.781l2.567-2.567v-2.781H348.8v2.781l-2.781,2.567,2.781,2.567h2.567v-5.135H356.5l2.781-2.781-2.781-2.353h-2.567L356.5,283.8h8.13l-2.781,2.781h2.781l-2.781,2.353,2.781,5.349-2.781,2.567-5.349,5.563,2.781,2.353L356.5,309.9h-2.567l-2.567,3,2.567,2.353Z" transform="translate(-338.1 -283.8)"/>
  </g>
</svg>
