<svg xmlns="http://www.w3.org/2000/svg" viewBox="0 0 646.367 818.808">
  <defs>
    <style>
      .cls-1 {
        fill: #4664a2;
      }

      .cls-1, .cls-2 {
        stroke: #00050f;
        stroke-width: 0.25px;
      }

      .cls-2 {
        fill: none;
      }
    </style>
  </defs>
  <g id="Groupe_10" data-name="Groupe 10" transform="translate(0.125 0.125)">
    <path id="Tracé_19" data-name="Tracé 19" class="cls-1" d="M487.51,507.147v2.567h2.567v2.353l2.781-2.353h2.567v10.7h-5.349l2.781,5.135h4.707v2.567l2.781,4.707v5.135l2.567,5.563h5.563v2.567H524.1l2.567,2.781v2.353h2.353l5.349-2.353v-2.781h2.567l5.135,2.781L545.276,554h4.707v2.567l-2.567,2.567v2.781l5.135,7.7,2.781,7.916-5.349,2.567H557.9v5.349l7.916,2.139h2.567l5.349,2.567v7.7h12.623v5.777H591.7l2.781,5.135-2.781,2.353-2.567,2.781-2.781,2.567-4.921,2.781-2.781,2.353-4.921-2.353h-2.781v10.269l2.781,5.563,2.354,4.921v3l2.567,2.139L584,647.5v-2.353L589.135,643l2.567,2.139L597.051,643h2.567l2.781-3h2.567l5.349,3,4.921-3h2.353l3,3,2.781,4.493,2.139,2.781v13.265H638.77l2.781-2.781h2.139v2.781l3.209,5.135h4.921v2.567l2.354,7.916v2.353h10.7l2.353,2.781,2.781-2.781,2.567,2.781h3l2.353-2.781,5.349-4.921h5.349v2.568l2.14,2.353,8.13,5.135,5.135-2.353v-2.781l2.567,2.781,2.567,2.353,5.349-2.353v2.353h5.349v-2.353h7.916v2.353l2.14,3v-3h5.135l5.563,3h4.921l2.781-3h2.781v8.344l-2.781,2.353-5.349,2.781-2.353,2.781,2.353,1.925h5.349V707.4l-2.781,2.781-2.567,2.567v2.567h2.567l5.563,7.916v7.916l-2.781,7.916H735.046l-2.14,2.353-3,7.916-7.7,2.781v12.837l2.781-3h2.781l2.14-1.926v4.921h3l5.349-4.921,2.353-2.353h4.921v7.274l-4.921,2.353-5.562,3-2.14,2.567,2.14,2.567L738.255,778l-5.349,2.567L727.772,778h-2.781l-2.781,2.567h-2.353v2.567l2.353,2.781h7.7l3,2.567v2.567l7.7,2.567h-2.353l-3.209,2.781-2.14-2.781v5.349l2.14,2.354-2.14,2.781-3-2.781-2.14-2.354-2.781,2.354v5.563l-2.781,2.567,2.781,2.567v5.135h-5.135l-2.781,7.7v2.567l5.135,2.567,5.563,2.781h7.274l3.209,2.567v2.567h4.707l2.567-2.567,2.781,2.567h5.349v2.781l5.349,2.354h5.135l2.354,2.781,2.567,2.567h5.349l7.7,10.483,2.781-5.135h7.7l2.781-2.781,2.353-5.135,5.349,2.567,5.349,2.567H821.48l2.353,2.781h13.051l7.916-2.781h2.353l3,2.781h15.832l2.567,2.567-2.567,2.567H876.25l2.567-2.567,5.135-2.567,5.349,2.567h2.567l2.567-2.567v-2.781h5.135v5.349l5.349-2.567v-2.781h5.135l5.135,2.781v5.135l3,2.567,4.921-2.567h2.781l7.7,2.567h10.483l5.135,5.349,5.349,2.567h7.488l5.563-2.567,2.781-5.349-2.781-2.567h7.7V853.74l2.567-5.349h-2.567l-4.921-2.567-5.563-2.781-2.781-2.354-7.488-5.349-5.349-2.567-5.135-5.349V817.155L941.5,814.8l-3-2.781v-5.135l-2.139-5.563h-2.781V798.97l-5.349-2.567-7.7-5.349v2.567l-2.354,2.781-3-2.781-5.135-2.567,2.781-10.483V778l2.354-2.567V770.3l3-3-3-2.353v-7.274l3-5.563v-5.135h2.354l2.567,2.353,5.135-5.135,2.781-2.781,2.567-2.353,2.781-5.349,2.139,2.781,3-5.349-3-7.916h-7.488l-5.135-2.354,2.354-5.562,2.781-2.567h2.567l-2.567-2.567-7.916-5.349-10.269-7.488L907.914,692l-3,3h-5.349v2.353L897,700.127l-5.135-2.781-2.567-2.353v-8.344l-5.349-2.353h-5.135l-2.567,2.353V673.811l5.349-8.13-7.916-2.139-2.353-2.781,2.353-2.781v-7.7L871.33,647.5,868.548,643l2.781-5.563h2.353v-7.916H871.33l4.921-7.916,5.349,3,2.354,4.921,5.349,2.567,2.567,3L897,629.524v-2.781l-2.567-5.135-2.567-7.7-5.349-2.781,5.349-2.353H897V592.726h5.135l2.781-2.567,3-4.707,4.921-5.349,2.354-4.921v-5.563h3l2.354,2.567,2.567,3,5.135-3,2.781-5.135,2.567-5.135,4.921-2.781h3l5.349,5.563v-2.781l2.353-5.349h7.916l2.567,2.567,5.135,2.781h7.916l2.567,2.781h8.13l2.14,2.353v-5.135l-2.14-2.781v-2.567h2.14l13.479,2.567,7.7,2.781,2.781-5.349V551.22h2.139v-2.353l-2.139-2.781h10.269l-2.781-5.349h2.781l2.781-2.781,5.135,2.781h5.135v-5.349h4.921l-2.14-5.135,2.14-2.139,2.567-2.567,5.776-2.567,2.354,2.567,2.353,4.707h5.349l10.483-2.139h5.349v-7.7l4.707-2.781,8.344-2.781,7.7-7.7,2.353-2.567v-5.349l-2.353-5.135-5.349-5.135h-2.353l-2.781,2.353-5.562,2.781h-15.19l-7.916-2.781v-2.353l-2.781-5.563h-4.707l-5.776,5.563-2.567,2.353h-4.921l-5.135-5.135-5.135-8.13v-7.274l-2.781-2.567-2.781-2.781v-2.353l-5.349-5.563V447.242l2.781-7.916-2.781-2.567-4.921-2.781V420.927l-2.567,2.567v2.567l-5.135,10.7-5.562,7.7-7.916,2.781-7.7,2.567-5.135,2.567-7.916-10.483v-7.916l5.563-2.353,7.488-2.567,2.567,2.567,3,2.353,2.14-2.353v-8.13l3-5.349,2.353-4.707-2.353-5.349-5.135-2.353v-2.781h-3l-2.567,2.781h-7.488l-2.781,2.353-10.483,5.349h-5.135l-2.781-7.7-5.135-8.344-2.567-2.353,2.567-2.567h2.781v-7.7l-2.781-8.13-5.563-7.7,3-5.349,2.567-2.567h2.781v-2.781l-2.781-4.707V340.269h-5.563v-4.921L936.369,330l-2.781-2.781-2.567-5.349h-2.781v-2.353l-2.354-2.567-2.781,2.567-2.567-7.916-5.349-10.7-2.354-9.842-2.781-5.349-7.916-5.349v-7.916l-2.567-2.353-5.135-5.563v-4.707l-2.567-5.777-2.567-2.567-2.781-2.567-2.567-10.055-2.354-2.567-5.349-2.567v-2.781l-4.921-2.567-2.781-2.781-2.567-13.051h-3v-5.135l-2.567-5.135v2.353l-2.567-5.135V193.93l-2.353-2.139-2.567-5.563-2.781-4.493H844.8v-5.349h5.349l2.781-2.781V150.071H855.5l2.353-7.7v-10.7l-4.921-12.837L855.5,113.7l4.921-5.349L862.986,103l-2.567-7.7V87.6l-2.567-5.135-4.921-3,2.567-5.135H852.93l-2.781-2.567h-3L844.8,76.9h-2.354l-2.567-5.135-3-2.781h-2.353l-2.567-2.139V61.711h-8.13l-2.353,2.567h-5.135l-2.567-5.563-3-2.139,3-2.781v-3H800.3l-10.056,5.777L784.9,58.716H771.845l2.567,3v7.274l-2.567,2.781,2.567,2.567,2.781,2.567,2.353,5.563H784.9l2.567,2.567-5.349,5.135-2.567,7.7h2.567l2.781,2.781-5.349,5.135h-5.135l-5.349-5.135,2.781-2.781-2.781-5.349L766.5,90.166l-2.354,2.353-2.781,5.349v10.483l-2.354,5.349H745.529v2.567l-2.567,10.055v2.567l-4.707,5.349v5.349l-3.209-2.781-2.14-2.567-5.135,8.13v-10.7l2.14-2.781-2.14-2.567v-4.707h-5.562l-2.353-2.781-2.781,7.488h2.781v5.349h-2.781V128.89h-2.567v5.349l5.349,8.13h-5.349l-2.567-2.781v-2.781l-2.781,2.781-2.567,4.921h-2.567l-5.135,10.911-2.781,2.567-2.567,2.353,2.567,2.781,2.781,2.567-5.349,5.349-2.781,2.567h-2.14l4.921,5.349v12.837l-2.781,2.139-4.921,3-7.916,2.567-2.353,2.781-8.344-5.349-4.921-3H657.17l-5.349-2.139V181.735l7.916-2.781v-2.567h5.135l2.353-2.781-4.921-2.567-2.567-2.567-2.567-2.781h-5.349l-2.567-5.349H646.9l-8.13,2.781h-5.135v2.567h-5.562l5.563,2.781,2.567,2.567,2.567,2.567v8.13l2.781,1.926v2.567h2.139l-2.139,5.563v10.483h10.269l2.354,2.353v2.781l3,2.781v2.353l2.567,2.781-2.567,2.567-3,5.135,5.563,5.349,2.567,2.567-5.135,2.781-3-2.781-4.921,2.781h-5.563l3.209-5.349h2.354l-5.563-5.349-2.139,2.567H636.2l-5.349-2.567v2.567l-2.781,5.349-2.568,7.916L620.585,241l-3,2.567v5.349l-2.353,5.135-2.781,2.781-2.139,3,2.139,2.139,8.13,5.349,4.921,2.781v2.353l5.349,5.349,2.781,7.916v2.567l13.265-2.567,2.354,2.567,2.567,5.135-4.921-2.353h-8.13l-5.135-2.781-2.781-2.567h-2.781l-2.568,2.567-2.139-2.567-5.777,2.567-7.274-2.567-5.349-2.781h-5.349v-2.567H589.135l-7.7-2.567v5.135l-2.781,2.781v2.567L584,291.062l2.353,2.353,8.13,2.781v-2.781h2.567l5.349,4.921,2.567,10.483-5.349,2.781-2.567,2.567L591.7,311.6H584l-5.349-5.349-2.567-2.567-2.354-2.781-2.781,5.349-2.568-2.567-7.7-2.781V296.2H557.9v-5.135l-2.567-2.781v-2.567l-2.781-5.349-2.567-2.567v-2.567l2.567-2.781v-5.135l-2.567-2.781v-2.567l-2.567-2.139-2.139-3H532.011l-3-2.781h3v-2.567h-5.349v-2.567h-5.349l-2.353-2.567-3-5.349,3-4.707h-3l-2.353-2.567h7.7l5.349,5.135L529.016,241h3v-2.139L536.932,241l5.135,2.567h5.349l2.567,2.781h10.7l7.7,2.567,2.568-2.567,2.781-2.781,2.354,2.781v2.567H591.7l5.349-5.349h2.567L604.967,241l2.353-2.139v-2.567l3-2.567h2.139v-5.349h2.781l2.353-10.483-2.353-5.349v-5.135h-2.781v-5.135l-2.139,2.353-3-2.353v-5.349h-7.7v-3l-7.916-2.139-5.349,2.139L584,191.791l-2.567-3-5.349-2.567V188.8l-2.354-2.567-5.349-4.493h-7.7l-8.13-5.349-7.274-2.781-5.776,2.781H518.96l-3-2.781-5.349,2.781v-2.781l-2.14-2.567-2.781,2.567-2.781-5.135h-2.567l-2.781-5.349h-2.139l-2.567,5.349h-2.781l-2.567-5.349h-2.567v7.916h-5.349l-2.567-2.567h-5.349l-12.409,4.707-3.637,8.558-1.07,8.344H452v3.851l-3,2.781v4.707l7.488,6.418,4.065,5.777,6.418,8.558-2.781,6.418,1.07,11.339,2.567,11.339,9.414,7.7,7.7,13.051-3.637,4.707,1.712,3.851-.856,4.493.856,4.921.856,8.558,2.781,7.488h2.139l3.637,11.125h3.851l2.781,1.07V323.8l-3.851,1.07-2.781,1.926,3.851,11.125,3.851,1.926,5.563,3.851,10.269,2.567,3,6.846-4.707,2.781-1.925,8.558-3.851,6.632-3.637,7.274.856,3.851-4.707,2.781L484.943,411.3v6.846h5.135l5.349-2.567h2.139v2.567l-2.139,5.349v2.567h4.921l2.567,3,5.563,2.567,2.14-2.567h8.344l2.353,2.567H524.1v5.135H502.914v2.567h-2.567v-2.567l-2.781,2.567v7.916h-2.139l-2.567-5.349-2.781,2.567v10.483l2.781,2.567v5.563l-5.349,5.135v2.567l2.567,2.139-2.567,5.135,2.567,5.349v5.563l5.349,2.353,2.139,2.781v2.567l-2.139,2.567-2.567-2.567-2.781-2.567-2.567,2.567v2.567l2.567,2.781h2.781l-2.781,5.135Z" transform="translate(-449 -50.8)"/>
    <path id="Tracé_20" data-name="Tracé 20" class="cls-2" d="M487.51,507.147v2.567h2.567v2.353l2.781-2.353h2.567v10.7h-5.349l2.781,5.135h4.707v2.567l2.781,4.707v5.135l2.567,5.563h5.563v2.567H524.1l2.567,2.781v2.353h2.353l5.349-2.353v-2.781h2.567l5.135,2.781L545.276,554h4.707v2.567l-2.567,2.567v2.781l5.135,7.7,2.781,7.916-5.349,2.567H557.9v5.349l7.916,2.139h2.567l5.349,2.567v7.7h12.623v5.777H591.7l2.781,5.135-2.781,2.353-2.567,2.781-2.781,2.567-4.921,2.781-2.781,2.353-4.921-2.353h-2.781v10.269l2.781,5.563,2.354,4.921v3l2.567,2.139L584,647.5v-2.353L589.135,643l2.567,2.139L597.051,643h2.567l2.781-3h2.567l5.349,3,4.921-3h2.353l3,3,2.781,4.493,2.139,2.781v13.265H638.77l2.781-2.781h2.139v2.781l3.209,5.135h4.921v2.567l2.354,7.916v2.353h10.7l2.353,2.781,2.781-2.781,2.567,2.781h3l2.353-2.781,5.349-4.921h5.349v2.568l2.14,2.353,8.13,5.135,5.135-2.353v-2.781l2.567,2.781,2.567,2.353,5.349-2.353v2.353h5.349v-2.353h7.916v2.353l2.14,3v-3h5.135l5.563,3h4.921l2.781-3h2.781v8.344l-2.781,2.353-5.349,2.781-2.353,2.781,2.353,1.925h5.349V707.4l-2.781,2.781-2.567,2.567v2.567h2.567l5.563,7.916v7.916l-2.781,7.916H735.046l-2.14,2.353-3,7.916-7.7,2.781v12.837l2.781-3h2.781l2.14-1.926v4.921h3l5.349-4.921,2.353-2.353h4.921v7.274l-4.921,2.353-5.562,3-2.14,2.567,2.14,2.567L738.255,778l-5.349,2.567L727.772,778h-2.781l-2.781,2.567h-2.353v2.567l2.353,2.781h7.7l3,2.567v2.567l7.7,2.567h-2.353l-3.209,2.781-2.14-2.781v5.349l2.14,2.354-2.14,2.781-3-2.781-2.14-2.354-2.781,2.354v5.563l-2.781,2.567,2.781,2.567v5.135h-5.135l-2.781,7.7v2.567l5.135,2.567,5.563,2.781h7.274l3.209,2.567v2.567h4.707l2.567-2.567,2.781,2.567h5.349v2.781l5.349,2.354h5.135l2.354,2.781,2.567,2.567h5.349l7.7,10.483,2.781-5.135h7.7l2.781-2.781,2.353-5.135,5.349,2.567,5.349,2.567H821.48l2.353,2.781h13.051l7.916-2.781h2.353l3,2.781h15.832l2.567,2.567-2.567,2.567H876.25l2.567-2.567,5.135-2.567,5.349,2.567h2.567l2.567-2.567v-2.781h5.135v5.349l5.349-2.567v-2.781h5.135l5.135,2.781v5.135l3,2.567,4.921-2.567h2.781l7.7,2.567h10.483l5.135,5.349,5.349,2.567h7.488l5.563-2.567,2.781-5.349-2.781-2.567h7.7V853.74l2.567-5.349h-2.567l-4.921-2.567-5.563-2.781-2.781-2.354-7.488-5.349-5.349-2.567-5.135-5.349V817.155L941.5,814.8l-3-2.781v-5.135l-2.139-5.563h-2.781V798.97l-5.349-2.567-7.7-5.349v2.567l-2.354,2.781-3-2.781-5.135-2.567,2.781-10.483V778l2.354-2.567V770.3l3-3-3-2.353v-7.274l3-5.563v-5.135h2.354l2.567,2.353,5.135-5.135,2.781-2.781,2.567-2.353,2.781-5.349,2.139,2.781,3-5.349-3-7.916h-7.488l-5.135-2.354,2.354-5.562,2.781-2.567h2.567l-2.567-2.567-7.916-5.349-10.269-7.488L907.914,692l-3,3h-5.349v2.353L897,700.127l-5.135-2.781-2.567-2.353v-8.344l-5.349-2.353h-5.135l-2.567,2.353V673.811l5.349-8.13-7.916-2.139-2.353-2.781,2.353-2.781v-7.7L871.33,647.5,868.548,643l2.781-5.563h2.353v-7.916H871.33l4.921-7.916,5.349,3,2.354,4.921,5.349,2.567,2.567,3L897,629.524v-2.781l-2.567-5.135-2.567-7.7-5.349-2.781,5.349-2.353H897V592.726h5.135l2.781-2.567,3-4.707,4.921-5.349,2.354-4.921v-5.563h3l2.354,2.567,2.567,3,5.135-3,2.781-5.135,2.567-5.135,4.921-2.781h3l5.349,5.563v-2.781l2.353-5.349h7.916l2.567,2.567,5.135,2.781h7.916l2.567,2.781h8.13l2.14,2.353v-5.135l-2.14-2.781v-2.567h2.14l13.479,2.567,7.7,2.781,2.781-5.349V551.22h2.139v-2.353l-2.139-2.781h10.269l-2.781-5.349h2.781l2.781-2.781,5.135,2.781h5.135v-5.349h4.921l-2.14-5.135,2.14-2.139,2.567-2.567,5.776-2.567,2.354,2.567,2.353,4.707h5.349l10.483-2.139h5.349v-7.7l4.707-2.781,8.344-2.781,7.7-7.7,2.353-2.567v-5.349l-2.353-5.135-5.349-5.135h-2.353l-2.781,2.353-5.562,2.781h-15.19l-7.916-2.781v-2.353l-2.781-5.563h-4.707l-5.776,5.563-2.567,2.353h-4.921l-5.135-5.135-5.135-8.13v-7.274l-2.781-2.567-2.781-2.781v-2.353l-5.349-5.563V447.242l2.781-7.916-2.781-2.567-4.921-2.781V420.927l-2.567,2.567v2.567l-5.135,10.7-5.562,7.7-7.916,2.781-7.7,2.567-5.135,2.567-7.916-10.483v-7.916l5.563-2.353,7.488-2.567,2.567,2.567,3,2.353,2.14-2.353v-8.13l3-5.349,2.353-4.707-2.353-5.349-5.135-2.353v-2.781h-3l-2.567,2.781h-7.488l-2.781,2.353-10.483,5.349h-5.135l-2.781-7.7-5.135-8.344-2.567-2.353,2.567-2.567h2.781v-7.7l-2.781-8.13-5.563-7.7,3-5.349,2.567-2.567h2.781v-2.781l-2.781-4.707V340.269h-5.563v-4.921L936.369,330l-2.781-2.781-2.567-5.349h-2.781v-2.353l-2.354-2.567-2.781,2.567-2.567-7.916-5.349-10.7-2.354-9.842-2.781-5.349-7.916-5.349v-7.916l-2.567-2.353-5.135-5.563v-4.707l-2.567-5.777-2.567-2.567-2.781-2.567-2.567-10.055-2.354-2.567-5.349-2.567v-2.781l-4.921-2.567-2.781-2.781-2.567-13.051h-3v-5.135l-2.567-5.135v2.353l-2.567-5.135V193.93l-2.353-2.139-2.567-5.563-2.781-4.493H844.8v-5.349h5.349l2.781-2.781V150.071H855.5l2.353-7.7v-10.7l-4.921-12.837L855.5,113.7l4.921-5.349L862.986,103l-2.567-7.7V87.6l-2.567-5.135-4.921-3,2.567-5.135H852.93l-2.781-2.567h-3L844.8,76.9h-2.354l-2.567-5.135-3-2.781h-2.353l-2.567-2.139V61.711h-8.13l-2.353,2.567h-5.135l-2.567-5.563-3-2.139,3-2.781v-3H800.3l-10.056,5.777L784.9,58.716H771.845l2.567,3v7.274l-2.567,2.781,2.567,2.567,2.781,2.567,2.353,5.563H784.9l2.567,2.567-5.349,5.135-2.567,7.7h2.567l2.781,2.781-5.349,5.135h-5.135l-5.349-5.135,2.781-2.781-2.781-5.349L766.5,90.166l-2.354,2.353-2.781,5.349v10.483l-2.354,5.349H745.529v2.567l-2.567,10.055v2.567l-4.707,5.349v5.349l-3.209-2.781-2.14-2.567-5.135,8.13v-10.7l2.14-2.781-2.14-2.567v-4.707h-5.562l-2.353-2.781-2.781,7.488h2.781v5.349h-2.781V128.89h-2.567v5.349l5.349,8.13h-5.349l-2.567-2.781v-2.781l-2.781,2.781-2.567,4.921h-2.567l-5.135,10.911-2.781,2.567-2.567,2.353,2.567,2.781,2.781,2.567-5.349,5.349-2.781,2.567h-2.14l4.921,5.349v12.837l-2.781,2.139-4.921,3-7.916,2.567-2.353,2.781-8.344-5.349-4.921-3H657.17l-5.349-2.139V181.735l7.916-2.781v-2.567h5.135l2.353-2.781-4.921-2.567-2.567-2.567-2.567-2.781h-5.349l-2.567-5.349H646.9l-8.13,2.781h-5.135v2.567h-5.562l5.563,2.781,2.567,2.567,2.567,2.567v8.13l2.781,1.926v2.567h2.139l-2.139,5.563v10.483h10.269l2.354,2.353v2.781l3,2.781v2.353l2.567,2.781-2.567,2.567-3,5.135,5.563,5.349,2.567,2.567-5.135,2.781-3-2.781-4.921,2.781h-5.563l3.209-5.349h2.354l-5.563-5.349-2.139,2.567H636.2l-5.349-2.567v2.567l-2.781,5.349-2.568,7.916L620.585,241l-3,2.567v5.349l-2.353,5.135-2.781,2.781-2.139,3,2.139,2.139,8.13,5.349,4.921,2.781v2.353l5.349,5.349,2.781,7.916v2.567l13.265-2.567,2.354,2.567,2.567,5.135-4.921-2.353h-8.13l-5.135-2.781-2.781-2.567h-2.781l-2.568,2.567-2.139-2.567-5.777,2.567-7.274-2.567-5.349-2.781h-5.349v-2.567H589.135l-7.7-2.567v5.135l-2.781,2.781v2.567L584,291.062l2.353,2.353,8.13,2.781v-2.781h2.567l5.349,4.921,2.567,10.483-5.349,2.781-2.567,2.567L591.7,311.6H584l-5.349-5.349-2.567-2.567-2.354-2.781-2.781,5.349-2.568-2.567-7.7-2.781V296.2H557.9v-5.135l-2.567-2.781v-2.567l-2.781-5.349-2.567-2.567v-2.567l2.567-2.781v-5.135l-2.567-2.781v-2.567l-2.567-2.139-2.139-3H532.011l-3-2.781h3v-2.567h-5.349v-2.567h-5.349l-2.353-2.567-3-5.349,3-4.707h-3l-2.353-2.567h7.7l5.349,5.135L529.016,241h3v-2.139L536.932,241l5.135,2.567h5.349l2.567,2.781h10.7l7.7,2.567,2.568-2.567,2.781-2.781,2.354,2.781v2.567H591.7l5.349-5.349h2.567L604.967,241l2.353-2.139v-2.567l3-2.567h2.139v-5.349h2.781l2.353-10.483-2.353-5.349v-5.135h-2.781v-5.135l-2.139,2.353-3-2.353v-5.349h-7.7v-3l-7.916-2.139-5.349,2.139L584,191.791l-2.567-3-5.349-2.567V188.8l-2.354-2.567-5.349-4.493h-7.7l-8.13-5.349-7.274-2.781-5.776,2.781H518.96l-3-2.781-5.349,2.781v-2.781l-2.14-2.567-2.781,2.567-2.781-5.135h-2.567l-2.781-5.349h-2.139l-2.567,5.349h-2.781l-2.567-5.349h-2.567v7.916h-5.349l-2.567-2.567h-5.349l-12.409,4.707-3.637,8.558-1.07,8.344H452v3.851l-3,2.781v4.707l7.488,6.418,4.065,5.777,6.418,8.558-2.781,6.418,1.07,11.339,2.567,11.339,9.414,7.7,7.7,13.051-3.637,4.707,1.712,3.851-.856,4.493.856,4.921.856,8.558,2.781,7.488h2.139l3.637,11.125h3.851l2.781,1.07V323.8l-3.851,1.07-2.781,1.926,3.851,11.125,3.851,1.926,5.563,3.851,10.269,2.567,3,6.846-4.707,2.781-1.925,8.558-3.851,6.632-3.637,7.274.856,3.851-4.707,2.781L484.943,411.3v6.846h5.135l5.349-2.567h2.139v2.567l-2.139,5.349v2.567h4.921l2.567,3,5.563,2.567,2.14-2.567h8.344l2.353,2.567H524.1v5.135H502.914v2.567h-2.567v-2.567l-2.781,2.567v7.916h-2.139l-2.567-5.349-2.781,2.567v10.483l2.781,2.567v5.563l-5.349,5.135v2.567l2.567,2.139-2.567,5.135,2.567,5.349v5.563l5.349,2.353,2.139,2.781v2.567l-2.139,2.567-2.567-2.567-2.781-2.567-2.567,2.567v2.567l2.567,2.781h2.781l-2.781,5.135Z" transform="translate(-449 -50.8)"/>
  </g>
</svg>
