<svg xmlns="http://www.w3.org/2000/svg" viewBox="0 0 76.843 108.256">
  <defs>
    <style>
      .cls-1 {
        fill: #4664a2;
      }

      .cls-1, .cls-2 {
        stroke: #00050f;
        stroke-width: 0.25px;
      }

      .cls-2 {
        fill: none;
      }
    </style>
  </defs>
  <g id="Groupe_42" data-name="Groupe 42" transform="translate(0.125 0.125)">
    <path id="Tracé_83" data-name="Tracé 83" class="cls-1" d="M248.745,330.962V328.18l-2.781,2.781H243.4l-2.567-2.781h-2.567v2.781h-2.781V328.18l-5.135,2.781V328.18l-2.781-2.567L225,328.18v5.349l-2.567-2.567V328.18l-2.781-2.567h-2.567v5.349H214.3V320.478h2.781v-3h2.567l2.781-2.353v-2.781H225l2.567-2.567L230.346,307l2.567-2.353v-2.781h2.567v-2.353h-2.567l-2.567-3H225v-2.567h2.567l2.781-2.567V288.6l-2.781-2.353H225l-2.567,5.135-2.781,2.567V288.6l2.781-5.135L225,280.9h5.349v-2.567h-2.781l2.781-2.781,2.567-2.567,2.567-2.567h-2.567l-2.567,2.567h-2.781L225,278.331l-2.567-2.781-2.781-2.567L225,270.415v-5.349l2.567-2.567h2.781V257.15h5.135v-2.567l-2.567-2.567h0V244.1l2.567-2.781h5.349V244.1H243.4l2.567,2.567v-5.349l-2.567-2.567,2.567-2.353h2.781l-2.781-2.781,5.349,2.781,2.781-2.781h-2.781l2.781-5.349V225.7h2.567l5.135,2.567h-2.353l2.353,2.781,2.567-2.781v2.781l5.349,2.567,5.349-2.567v2.567H280.2l3,2.781-3,2.353v2.567h-5.135l-2.353,2.781-3,2.567h-5.349l-2.567,2.781v2.567h-2.353l-5.349,2.567v2.567h0V262.5h2.567l5.135-2.781h18.4l3,2.781v2.567h7.7v5.349l-2.353,2.567h-3v2.567h-2.353l-3,2.781,3,2.567v2.567l-3,2.781-5.135,2.353v2.781h-2.353l-3,2.567-2.567-2.567h-7.7v2.567H261.8l2.567,2.567h2.781l-2.781,3h-4.921v2.353h-5.349l-2.781-2.353h-2.567v2.353h2.567l2.781,2.781h10.269L267.145,307l2.567,2.781,3,5.349-3,5.349h-2.567l2.567,2.353-2.567,2.781-2.781-2.781H261.8v2.781h-2.353v2.567h-2.781l-2.567,2.781-2.781,2.567h-2.567Z" transform="translate(-214.3 -225.7)"/>
    <path id="Tracé_84" data-name="Tracé 84" class="cls-2" d="M248.745,330.962V328.18l-2.781,2.781H243.4l-2.567-2.781h-2.567v2.781h-2.781V328.18l-5.135,2.781V328.18l-2.781-2.567L225,328.18v5.349l-2.567-2.567V328.18l-2.781-2.567h-2.567v5.349H214.3V320.478h2.781v-3h2.567l2.781-2.353v-2.781H225l2.567-2.567L230.346,307l2.567-2.353v-2.781h2.567v-2.353h-2.567l-2.567-3H225v-2.567h2.567l2.781-2.567V288.6l-2.781-2.353H225l-2.567,5.135-2.781,2.567V288.6l2.781-5.135L225,280.9h5.349v-2.567h-2.781l2.781-2.781,2.567-2.567,2.567-2.567h-2.567l-2.567,2.567h-2.781L225,278.331l-2.567-2.781-2.781-2.567L225,270.415v-5.349l2.567-2.567h2.781V257.15h5.135v-2.567l-2.567-2.567h0V244.1l2.567-2.781h5.349V244.1H243.4l2.567,2.567v-5.349l-2.567-2.567,2.567-2.353h2.781l-2.781-2.781,5.349,2.781,2.781-2.781h-2.781l2.781-5.349V225.7h2.567l5.135,2.567h-2.353l2.353,2.781,2.567-2.781v2.781l5.349,2.567,5.349-2.567v2.567H280.2l3,2.781-3,2.353v2.567h-5.135l-2.353,2.781-3,2.567h-5.349l-2.567,2.781v2.567h-2.353l-5.349,2.567v2.567h0V262.5h2.567l5.135-2.781h18.4l3,2.781v2.567h7.7v5.349l-2.353,2.567h-3v2.567h-2.353l-3,2.781,3,2.567v2.567l-3,2.781-5.135,2.353v2.781h-2.353l-3,2.567-2.567-2.567h-7.7v2.567H261.8l2.567,2.567h2.781l-2.781,3h-4.921v2.353h-5.349l-2.781-2.353h-2.567v2.353h2.567l2.781,2.781h10.269L267.145,307l2.567,2.781,3,5.349-3,5.349h-2.567l2.567,2.353-2.567,2.781-2.781-2.781H261.8v2.781h-2.353v2.567h-2.781l-2.567,2.781-2.781,2.567h-2.567Z" transform="translate(-214.3 -225.7)"/>
  </g>
</svg>
