<svg xmlns="http://www.w3.org/2000/svg" viewBox="0 0 133.539 84.331">
  <defs>
    <style>
      .cls-1 {
        fill: #4664a2;
      }

      .cls-1, .cls-2 {
        stroke: #00050f;
        stroke-width: 0.25px;
      }

      .cls-2 {
        fill: none;
      }
    </style>
  </defs>
  <g id="Groupe_57" data-name="Groupe 57" transform="translate(0.125 0.125)">
    <path id="Tracé_113" data-name="Tracé 113" class="cls-1" d="M387.49,399.234l5.99,4.065,2.567,2.781h2.781l2.567,2.353,2.567,2.781h11.767l6.632-2.353h2.353l-1.712-2.353,1.712-.642.428-2.567,4.065-.428,3.637.428h5.563l5.135-2.567,2.567-2.781,5.349-2.567,2.781-2.567,2.354-2.781v-2.353l3-2.781h18.185v2.781h2.781l2.568,2.353,5.349-2.353,5.349,2.353,1.07,3,1.712-.856,3,.856,1.926,2.353,4.065,2.139v3l-.856,4.707-3.851,3.637-3.637,2.353-2.353,1.5-2.781.642-2.353,3.637-.856,5.349-1.5,2.353-.856,3-1.5,6.846-3,3-1.5,3-3.851.642v3.209l-4.493,3-.642,1.284-3.209,3L467.078,454l-1.712,2.353-8.772-.642-2.354-2.353H451.46v2.353l-5.349,2.781h-2.567l-2.567-2.781-5.349,2.781-2.781,2.567h-7.7l-2.568,2.781-2.781,2.567-2.567,2.567h-2.567l-5.563-2.567h-7.7l-2.567-2.567h-2.781v-2.781h-2.567L390.7,458.5l-2.353-2.781-3-2.353L383,450.581v-5.349l-3-2.353-2.353-2.781v-2.567H372.3v0l2.567-5.349h2.781L380,426.833V421.7h3v-5.135l-3-2.781v-2.567h3l3.209-1.712-.856,2.353,3,.856v-1.5l2.353-2.781-1.5-4.921Z" transform="translate(-372.3 -384.9)"/>
    <path id="Tracé_114" data-name="Tracé 114" class="cls-2" d="M387.49,399.234l5.99,4.065,2.567,2.781h2.781l2.567,2.353,2.567,2.781h11.767l6.632-2.353h2.353l-1.712-2.353,1.712-.642.428-2.567,4.065-.428,3.637.428h5.563l5.135-2.567,2.567-2.781,5.349-2.567,2.781-2.567,2.354-2.781v-2.353l3-2.781h18.185v2.781h2.781l2.568,2.353,5.349-2.353,5.349,2.353,1.07,3,1.712-.856,3,.856,1.926,2.353,4.065,2.139v3l-.856,4.707-3.851,3.637-3.637,2.353-2.353,1.5-2.781.642-2.353,3.637-.856,5.349-1.5,2.353-.856,3-1.5,6.846-3,3-1.5,3-3.851.642v3.209l-4.493,3-.642,1.284-3.209,3L467.078,454l-1.712,2.353-8.772-.642-2.354-2.353H451.46v2.353l-5.349,2.781h-2.567l-2.567-2.781-5.349,2.781-2.781,2.567h-7.7l-2.568,2.781-2.781,2.567-2.567,2.567h-2.567l-5.563-2.567h-7.7l-2.567-2.567h-2.781v-2.781h-2.567L390.7,458.5l-2.353-2.781-3-2.353L383,450.581v-5.349l-3-2.353-2.353-2.781v-2.567H372.3v0l2.567-5.349h2.781L380,426.833V421.7h3v-5.135l-3-2.781v-2.567h3l3.209-1.712-.856,2.353,3,.856v-1.5l2.353-2.781-1.5-4.921Z" transform="translate(-372.3 -384.9)"/>
  </g>
</svg>
