<svg xmlns="http://www.w3.org/2000/svg" viewBox="0 0 172.089 223.968">
  <defs>
    <style>
      .cls-1 {
        fill: #4664a2;
      }

      .cls-1, .cls-2 {
        stroke: #00050f;
        stroke-width: 0.25px;
      }

      .cls-2 {
        fill: none;
      }
    </style>
  </defs>
  <g id="Groupe_46" data-name="Groupe 46" transform="translate(0.202 0.125)">
    <path id="Tracé_91" data-name="Tracé 91" class="cls-1" d="M285.1,422.942V425.3l2.567,2.781,2.781,2.567v10.483h-2.781l2.781,5.135,2.567,5.563,2.781,2.567,5.135,2.567h5.563l2.353,2.567H314.2l2.781,2.781-5.135,5.135-3,2.781-2.353,5.349v2.353l-3,2.781v10.483l-2.567,2.567v5.349l2.567,2.567v-2.567l5.349,2.567h21.395v2.781h5.135v2.567l5.349,2.567,2.567-2.567h2.567l2.567,2.567,2.781,2.781h2.567l2.567,2.353,2.781-2.353h2.567l2.781-5.349,4.921,2.567v2.781h5.349l3-2.781,2.353,2.781h5.349l2.781-2.781h10.483l2.781,2.781V509.59h2.567l5.135,2.781v5.349l2.781,2.353V517.72h2.353v-5.349l-2.353-2.781v-5.135l-2.781-2.781v-7.916h8.13l2.353-2.567,2.567-2.781v-2.353h8.13v-5.349l-2.781-2.781-2.567-2.353-2.781-2.781h-2.567l-2.353-2.567-3-5.349-2.353-5.349-2.781-2.567v-7.7l-2.567-3-2.567-2.353v-5.135h-2.567l-2.781-5.349v-5.349l2.781,2.567v2.781l5.135-2.781,2.567,2.781h5.135l5.349-2.781h2.567l2.781-2.567h2.567l8.13-5.135,2.567-2.781,2.567-2.567,5.349-2.567,2.781,2.567v2.567h2.353l2.781-2.567V407.11l2.567-2.567h-2.567V388.711l-2.781-5.135v-5.349l2.781-2.781h-2.781l-2.353-2.567v-2.567l-2.781-2.567-2.567-5.349,2.567-2.567,2.781-2.781V338.861h-8.13v-10.7h-7.916V325.6l-2.567-2.567v-2.567h-2.781l-2.567,2.567h-5.349l-5.349,2.567-5.135,2.567-2.567-2.567v2.567h-10.7l-5.349-2.567h3v-2.567h2.353v-5.563h-5.349l-2.353,3-2.781-5.349h-5.349v-2.781h-5.349v-2.567l3-2.781-3-2.353-2.567-2.781-2.781-2.353h-4.921l-2.781-3h-2.567v8.13l2.567,2.353v2.781l-5.349,2.567h-2.567v2.781h2.567v5.349l5.349,2.567-2.567,2.567,2.567,2.567,5.349,2.781v5.349l-2.567-5.349-2.781-2.781H351.209v10.7l-2.781,2.567v2.353l-2.567-4.921v-5.349h-2.567v2.781h-2.567v-2.781l2.567-2.567-5.563-2.781H324.68v2.781l-2.567,2.567v2.781h2.567v2.567l2.781,2.567-2.781,2.353v8.13h-2.567V362.4l-2.781,2.567,2.781,2.781v2.567l-2.781,7.916H308.848l-2.353-2.781-8.13,2.781-5.349,2.567v13.051l-5.349,2.781v7.916l-2.567,5.135h2.567v5.349H285.1v7.916Z" transform="translate(-285.1 -296.5)"/>
    <path id="Tracé_92" data-name="Tracé 92" class="cls-2" d="M285.1,422.942V425.3l2.567,2.781,2.781,2.567v10.483h-2.781l2.781,5.135,2.567,5.563,2.781,2.567,5.135,2.567h5.563l2.353,2.567H314.2l2.781,2.781-5.135,5.135-3,2.781-2.353,5.349v2.353l-3,2.781v10.483l-2.567,2.567v5.349l2.567,2.567v-2.567l5.349,2.567h21.395v2.781h5.135v2.567l5.349,2.567,2.567-2.567h2.567l2.567,2.567,2.781,2.781h2.567l2.567,2.353,2.781-2.353h2.567l2.781-5.349,4.921,2.567v2.781h5.349l3-2.781,2.353,2.781h5.349l2.781-2.781h10.483l2.781,2.781V509.59h2.567l5.135,2.781v5.349l2.781,2.353V517.72h2.353v-5.349l-2.353-2.781v-5.135l-2.781-2.781v-7.916h8.13l2.353-2.567,2.567-2.781v-2.353h8.13v-5.349l-2.781-2.781-2.567-2.353-2.781-2.781h-2.567l-2.353-2.567-3-5.349-2.353-5.349-2.781-2.567v-7.7l-2.567-3-2.567-2.353v-5.135h-2.567l-2.781-5.349v-5.349l2.781,2.567v2.781l5.135-2.781,2.567,2.781h5.135l5.349-2.781h2.567l2.781-2.567h2.567l8.13-5.135,2.567-2.781,2.567-2.567,5.349-2.567,2.781,2.567v2.567h2.353l2.781-2.567V407.11l2.567-2.567h-2.567V388.711l-2.781-5.135v-5.349l2.781-2.781h-2.781l-2.353-2.567v-2.567l-2.781-2.567-2.567-5.349,2.567-2.567,2.781-2.781V338.861h-8.13v-10.7h-7.916V325.6l-2.567-2.567v-2.567h-2.781l-2.567,2.567h-5.349l-5.349,2.567-5.135,2.567-2.567-2.567v2.567h-10.7l-5.349-2.567h3v-2.567h2.353v-5.563h-5.349l-2.353,3-2.781-5.349h-5.349v-2.781h-5.349v-2.567l3-2.781-3-2.353-2.567-2.781-2.781-2.353h-4.921l-2.781-3h-2.567v8.13l2.567,2.353v2.781l-5.349,2.567h-2.567v2.781h2.567v5.349l5.349,2.567-2.567,2.567,2.567,2.567,5.349,2.781v5.349l-2.567-5.349-2.781-2.781H351.209v10.7l-2.781,2.567v2.353l-2.567-4.921v-5.349h-2.567v2.781h-2.567v-2.781l2.567-2.567-5.563-2.781H324.68v2.781l-2.567,2.567v2.781h2.567v2.567l2.781,2.567-2.781,2.353v8.13h-2.567V362.4l-2.781,2.567,2.781,2.781v2.567l-2.781,7.916H308.848l-2.353-2.781-8.13,2.781-5.349,2.567v13.051l-5.349,2.781v7.916l-2.567,5.135h2.567v5.349H285.1v7.916Z" transform="translate(-285.1 -296.5)"/>
  </g>
</svg>
