<svg xmlns="http://www.w3.org/2000/svg" viewBox="0 0 95.348 50.724">
  <defs>
    <style>
      .cls-1 {
        fill: #4664a2;
      }

      .cls-1, .cls-2 {
        stroke: #00050f;
        stroke-width: 0.25px;
      }

      .cls-2 {
        fill: none;
      }
    </style>
  </defs>
  <g id="Groupe_44" data-name="Groupe 44" transform="translate(0.142 0.32)">
    <path id="Tracé_87" data-name="Tracé 87" class="cls-1" d="M290.832,433.147l-2.353-2.567V427.8h2.353l-2.353-2.567v-2.567h5.135v-2.781l-2.781-5.135h-2.353v2.567h-3l-2.353,5.349-5.349,2.567L275,419.883l2.781-5.135,5.349-5.135v-2.781l2.353-2.567h5.349l5.349-2.781,2.567-5.135v-2.567L301.529,391l2.567,2.781,2.781,2.567L309.445,391l2.567,2.781V391l2.567,2.781V391l5.563,2.781h20.967v2.567h5.135v2.781l5.349,2.353v2.781l-2.567,2.567v2.781h2.567v2.567h2.781l2.353,2.567,3,2.567h7.7v7.916h-2.567l-2.781-2.567-2.353,2.567-3,2.567,3,2.781-3,2.567-2.353-2.567h-8.13V427.8l-2.353-2.567h-2.781v7.916h-2.781l-2.567,2.781-2.781,2.353v2.781l-2.353-2.781-2.781-2.353-2.567-2.781V427.8l-2.567-2.567h-2.567l-2.781,2.567v2.781l-2.781,5.349h-7.7l-2.781-2.781-10.483,2.781Z" transform="translate(-275 -391)"/>
    <path id="Tracé_88" data-name="Tracé 88" class="cls-2" d="M290.832,433.147l-2.353-2.567V427.8h2.353l-2.353-2.567v-2.567h5.135v-2.781l-2.781-5.135h-2.353v2.567h-3l-2.353,5.349-5.349,2.567L275,419.883l2.781-5.135,5.349-5.135v-2.781l2.353-2.567h5.349l5.349-2.781,2.567-5.135v-2.567L301.529,391l2.567,2.781,2.781,2.567L309.445,391l2.567,2.781V391l2.567,2.781V391l5.563,2.781h20.967v2.567h5.135v2.781l5.349,2.353v2.781l-2.567,2.567v2.781h2.567v2.567h2.781l2.353,2.567,3,2.567h7.7v7.916h-2.567l-2.781-2.567-2.353,2.567-3,2.567,3,2.781-3,2.567-2.353-2.567h-8.13V427.8l-2.353-2.567h-2.781v7.916h-2.781l-2.567,2.781-2.781,2.353v2.781l-2.353-2.781-2.781-2.353-2.567-2.781V427.8l-2.567-2.567h-2.567l-2.781,2.567v2.781l-2.781,5.349h-7.7l-2.781-2.781-10.483,2.781Z" transform="translate(-275 -391)"/>
  </g>
</svg>
