<svg xmlns="http://www.w3.org/2000/svg" viewBox="0 0 251.207 243.11">
  <defs>
    <style>
      .cls-1 {
        fill: #4664a2;
      }

      .cls-1, .cls-2 {
        stroke: #00050f;
        stroke-width: 0.25px;
      }

      .cls-2 {
        fill: none;
      }
    </style>
  </defs>
  <g id="Groupe_25" data-name="Groupe 25" transform="translate(0.285 0.125)">
    <path id="Tracé_49" data-name="Tracé 49" class="cls-1" d="M396.432,560.574,399,557.792v-2.567l2.567-2.781L399,549.876h-7.916l-2.567-5.135v-10.7l2.567-2.567v-5.135l-2.567-2.781h-2.781l-2.567-2.567v-2.567h7.916l2.781-2.781,2.567-2.567L399,510.3l-2.567-2.353v-2.781l-2.567-2.567v-2.781h2.567v-5.135l-2.567-2.567V489.33h2.567l-2.567-2.567v-2.567H399v-2.781l-2.567-5.135h-2.567v2.567h-2.781l-2.567,5.349-5.349,2.567-2.567-5.349,2.567-5.135,5.349-5.135v-2.781l2.567-2.567h5.349l5.135-2.781,2.781-5.135v-2.567l2.567-2.781,2.567,2.781,3,2.567,2.353-5.349,2.781,2.781V447.4l2.567-2.781V434.132l2.781-2.567V429l2.353-5.135,3-2.781,5.135-5.135-2.781-2.781h-5.349l-2.353-2.567h-5.349l-5.135-2.781-3-2.353-2.567-5.349-2.567-5.349H399l-2.567-2.567h-5.349l-2.567,2.567V392.2l-2.781-2.567-2.567-2.781H380.6v-2.567l-2.567-2.567v-2.781l-2.567-2.353V373.8h-2.781v2.781h-5.349l-2.781-2.781,2.781-2.781v-7.7h-7.916l-2.567-5.135V355.4H351.5v-5.349h-5.135v-2.567l-2.781-2.781V337H327.755l-2.567,2.567V344.7l-2.567,2.781v10.7h-5.349l-2.781,2.353h-2.567l-5.135,2.781-5.349,2.353H290.957v3h2.567l5.135,2.353,2.781,2.781h-2.781v2.781l-5.135-2.781h-10.7v-2.781h-5.349l-5.135-2.353-5.349-3v3l-5.349-3,2.781-2.353-2.781-2.781v-2.353l2.781-2.781h-5.135l-2.781-2.567h-2.567V355.4l-2.781,2.781v7.488l2.781,5.349-2.781,2.781v5.135l2.781,2.781v2.567H248.6l-2.781-2.567h-5.135l2.567-2.781H232.763L230.2,376.58v2.353h-5.135v-7.916h-5.349v-2.353l2.353-3-2.353,3-5.349-3-2.781,3v2.353h-5.135v-2.353h-8.13l-2.567-3-2.781,3h-7.7v2.353h7.7v5.563h-2.353v2.353h-5.349l-2.567,2.781h2.567l2.781,2.567,2.567,5.349v-2.781l5.135,2.781v-2.781h2.567v2.781l5.349,5.135h2.781v2.567h2.567v5.349h10.7l-3,2.781h3l2.353,2.353-2.353,5.349h2.353l3,2.781h0v2.567H227.2v2.567l-5.135,5.349V429l3,5.135H227.2v5.349l3,2.781v2.353l5.349,2.781,2.567-2.781v5.349l-2.567,2.567h2.567l-2.567,2.781v7.7l-2.781,2.781v2.567h2.781v5.349l2.567,2.567v10.483l-2.567-2.567v-5.349l-2.781-2.567v-2.567l-2.567-2.567v-2.781l-3,2.781v10.269l-2.139,2.781v5.135h-3l5.135,2.781-2.139,2.567h-5.349v5.135l-3,2.781v2.567h-2.353V510.3h-2.781l-2.567,2.781v2.567l-5.349,5.349-5.349,5.349,2.781,2.567,2.567,2.567v5.135h5.349l5.349,5.349h2.353l3,5.349h5.349l2.139,2.567,5.563,5.349h2.781l5.135,2.567h2.567v2.781l6.2.214,5.991-1.712,3.209,2.139,1.07,3.209-.428,3.851,2.353,2.781h7.916l2.781,2.567,2.781,2.781h7.7l2.781,2.139,3,.642,2.353-.642h2.567l1.926,1.284,3-2.567-1.07-.856-.856-1.284-.428-1.5,2.567-2.567-2.567-2.781,2.567-5.349v-2.353l2.781-2.781h2.567l2.781-2.567h7.7l2.781-2.781,2.567-2.567h2.781l2.567,2.567,2.567,2.781h7.916v5.349l2.567-2.781h2.781l2.567-2.567h2.781v5.349H351.5v5.135l2.567-2.781,2.781,2.781,2.567,2.567v2.781l2.781,2.567h13.265l2.567-2.567v-5.349h7.7v-2.781h5.349v2.781l5.349-5.135-2.567,2.353Z" transform="translate(-182.7 -337)"/>
    <path id="Tracé_50" data-name="Tracé 50" class="cls-2" d="M396.432,560.574,399,557.792v-2.567l2.567-2.781L399,549.876h-7.916l-2.567-5.135v-10.7l2.567-2.567v-5.135l-2.567-2.781h-2.781l-2.567-2.567v-2.567h7.916l2.781-2.781,2.567-2.567L399,510.3l-2.567-2.353v-2.781l-2.567-2.567v-2.781h2.567v-5.135l-2.567-2.567V489.33h2.567l-2.567-2.567v-2.567H399v-2.781l-2.567-5.135h-2.567v2.567h-2.781l-2.567,5.349-5.349,2.567-2.567-5.349,2.567-5.135,5.349-5.135v-2.781l2.567-2.567h5.349l5.135-2.781,2.781-5.135v-2.567l2.567-2.781,2.567,2.781,3,2.567,2.353-5.349,2.781,2.781V447.4l2.567-2.781V434.132l2.781-2.567V429l2.353-5.135,3-2.781,5.135-5.135-2.781-2.781h-5.349l-2.353-2.567h-5.349l-5.135-2.781-3-2.353-2.567-5.349-2.567-5.349H399l-2.567-2.567h-5.349l-2.567,2.567V392.2l-2.781-2.567-2.567-2.781H380.6v-2.567l-2.567-2.567v-2.781l-2.567-2.353V373.8h-2.781v2.781h-5.349l-2.781-2.781,2.781-2.781v-7.7h-7.916l-2.567-5.135V355.4H351.5v-5.349h-5.135v-2.567l-2.781-2.781V337H327.755l-2.567,2.567V344.7l-2.567,2.781v10.7h-5.349l-2.781,2.353h-2.567l-5.135,2.781-5.349,2.353H290.957v3h2.567l5.135,2.353,2.781,2.781h-2.781v2.781l-5.135-2.781h-10.7v-2.781h-5.349l-5.135-2.353-5.349-3v3l-5.349-3,2.781-2.353-2.781-2.781v-2.353l2.781-2.781h-5.135l-2.781-2.567h-2.567V355.4l-2.781,2.781v7.488l2.781,5.349-2.781,2.781v5.135l2.781,2.781v2.567H248.6l-2.781-2.567h-5.135l2.567-2.781H232.763L230.2,376.58v2.353h-5.135v-7.916h-5.349v-2.353l2.353-3-2.353,3-5.349-3-2.781,3v2.353h-5.135v-2.353h-8.13l-2.567-3-2.781,3h-7.7v2.353h7.7v5.563h-2.353v2.353h-5.349l-2.567,2.781h2.567l2.781,2.567,2.567,5.349v-2.781l5.135,2.781v-2.781h2.567v2.781l5.349,5.135h2.781v2.567h2.567v5.349h10.7l-3,2.781h3l2.353,2.353-2.353,5.349h2.353l3,2.781h0v2.567H227.2v2.567l-5.135,5.349V429l3,5.135H227.2v5.349l3,2.781v2.353l5.349,2.781,2.567-2.781v5.349l-2.567,2.567h2.567l-2.567,2.781v7.7l-2.781,2.781v2.567h2.781v5.349l2.567,2.567v10.483l-2.567-2.567v-5.349l-2.781-2.567v-2.567l-2.567-2.567v-2.781l-3,2.781v10.269l-2.139,2.781v5.135h-3l5.135,2.781-2.139,2.567h-5.349v5.135l-3,2.781v2.567h-2.353V510.3h-2.781l-2.567,2.781v2.567l-5.349,5.349-5.349,5.349,2.781,2.567,2.567,2.567v5.135h5.349l5.349,5.349h2.353l3,5.349h5.349l2.139,2.567,5.563,5.349h2.781l5.135,2.567h2.567v2.781l6.2.214,5.991-1.712,3.209,2.139,1.07,3.209-.428,3.851,2.353,2.781h7.916l2.781,2.567,2.781,2.781h7.7l2.781,2.139,3,.642,2.353-.642h2.567l1.926,1.284,3-2.567-1.07-.856-.856-1.284-.428-1.5,2.567-2.567-2.567-2.781,2.567-5.349v-2.353l2.781-2.781h2.567l2.781-2.567h7.7l2.781-2.781,2.567-2.567h2.781l2.567,2.567,2.567,2.781h7.916v5.349l2.567-2.781h2.781l2.567-2.567h2.781v5.349H351.5v5.135l2.567-2.781,2.781,2.781,2.567,2.567v2.781l2.781,2.567h13.265l2.567-2.567v-5.349h7.7v-2.781h5.349v2.781l5.349-5.135-2.567,2.353Z" transform="translate(-182.7 -337)"/>
  </g>
</svg>
