<svg xmlns="http://www.w3.org/2000/svg" viewBox="0 0 20.397 38.6">
  <defs>
    <style>
      .cls-1 {
        fill: #4664a2;
      }

      .cls-1, .cls-2 {
        stroke: #00050f;
        stroke-width: 0.25px;
      }

      .cls-2 {
        fill: none;
      }
    </style>
  </defs>
  <g id="Groupe_29" data-name="Groupe 29" transform="translate(0.161 0.196)">
    <path id="Tracé_57" data-name="Tracé 57" class="cls-1" d="M298.76,491.815l-1.926-.428-1.5-2.567v-2.567l-1.925-2.353-1.712-2.781,1.925-1.712-.214-.856v-2.567l-1.07-2.354-.642-2.781.642-3L291.7,465.5l1.925-1.712,2.353-2.781,2.781-1.07,1.284-1.712,1.07-.642h3l2.567-1.284,2.353.642.428-.642,1.284,1.284,1.07,2.567v10.7l-2.567,2.567-2.781,2.567v5.349l-2.353,5.135v2.567l-3,2.781v2.567Z" transform="translate(-291.7 -456.3)"/>
    <path id="Tracé_58" data-name="Tracé 58" class="cls-2" d="M298.76,491.815l-1.926-.428-1.5-2.567v-2.567l-1.925-2.353-1.712-2.781,1.925-1.712-.214-.856v-2.567l-1.07-2.354-.642-2.781.642-3L291.7,465.5l1.925-1.712,2.353-2.781,2.781-1.07,1.284-1.712,1.07-.642h3l2.567-1.284,2.353.642.428-.642,1.284,1.284,1.07,2.567v10.7l-2.567,2.567-2.781,2.567v5.349l-2.353,5.135v2.567l-3,2.781v2.567Z" transform="translate(-291.7 -456.3)"/>
  </g>
</svg>
