<svg xmlns="http://www.w3.org/2000/svg" viewBox="0 0 159.766 57.63">
  <defs>
    <style>
      .cls-1 {
        fill: #4664a2;
      }

      .cls-1, .cls-2 {
        stroke: #00050f;
        stroke-width: 0.25px;
      }

      .cls-2 {
        fill: none;
      }
    </style>
  </defs>
  <g id="Groupe_19" data-name="Groupe 19" transform="translate(0.038 0.168)">
    <path id="Tracé_37" data-name="Tracé 37" class="cls-1" d="M696.269,479.738h-7.7V474.6h-3l-5.135-2.781-2.353,2.781h-2.568l-2.781,2.353H657.117v2.781h-2.567V474.6l2.567-5.135h2.353v-3l-2.353-2.567-5.135-5.135-2.567-2.781-3-4.707V448.5l-2.354-2.567h-7.7V440.8h-5.349l-2.781-2.781h-2.567l-2.781,2.781h-2.567l-2.354-2.781H612.83l-8.13-2.567h.214l2.781-5.135h7.7l3-2.781,2.353-5.135,5.349,2.567,5.135,2.567H644.28l2.568,2.781H659.9l7.7-2.781h2.353l3,2.781h15.618l3,2.567-3,2.567h10.7l2.567-2.567,4.921-2.567,5.563,2.567h2.567l2.568-2.567v-2.781h4.921v5.349l5.563-2.567v-2.781h4.921l5.349,2.781v5.135l2.781,2.567,4.921-2.567h2.781l7.916,2.567h-2.567v7.916l7.488,2.567,2.781,2.781v7.488H754.034v2.567l-5.349-2.567h-5.135l-5.349-5.563-2.353,2.781-3,5.349h-2.139v5.135H722.37v3h-7.488l-5.349,2.353L704.4,474.6l-7.916,5.135Z" transform="translate(-604.7 -422.4)"/>
    <path id="Tracé_38" data-name="Tracé 38" class="cls-2" d="M696.269,479.738h-7.7V474.6h-3l-5.135-2.781-2.353,2.781h-2.568l-2.781,2.353H657.117v2.781h-2.567V474.6l2.567-5.135h2.353v-3l-2.353-2.567-5.135-5.135-2.567-2.781-3-4.707V448.5l-2.354-2.567h-7.7V440.8h-5.349l-2.781-2.781h-2.567l-2.781,2.781h-2.567l-2.354-2.781H612.83l-8.13-2.567h.214l2.781-5.135h7.7l3-2.781,2.353-5.135,5.349,2.567,5.135,2.567H644.28l2.568,2.781H659.9l7.7-2.781h2.353l3,2.781h15.618l3,2.567-3,2.567h10.7l2.567-2.567,4.921-2.567,5.563,2.567h2.567l2.568-2.567v-2.781h4.921v5.349l5.563-2.567v-2.781h4.921l5.349,2.781v5.135l2.781,2.567,4.921-2.567h2.781l7.916,2.567h-2.567v7.916l7.488,2.567,2.781,2.781v7.488H754.034v2.567l-5.349-2.567h-5.135l-5.349-5.563-2.353,2.781-3,5.349h-2.139v5.135H722.37v3h-7.488l-5.349,2.353L704.4,474.6l-7.916,5.135Z" transform="translate(-604.7 -422.4)"/>
  </g>
</svg>
