<svg xmlns="http://www.w3.org/2000/svg" viewBox="0 0 465.191 90.391">
  <defs>
    <style>
      .cls-1, .cls-2 {
        fill: none;
        stroke: #00050f;
      }

      .cls-2 {
        stroke-width: 0.25px;
      }
    </style>
  </defs>
  <g id="Groupe_59" data-name="Groupe 59" transform="translate(0 0.608)">
    <path id="Tracé_117" data-name="Tracé 117" class="cls-1" d="M91.8,549.947h10.7l5.135-2.781,2.781-2.567,5.349-2.567h2.567l5.135-2.781,2.781-5.349,5.349-2.353,2.567-2.781,5.349-5.349v-2.353l2.353-5.349,2.781-2.781h2.781v-2.567h7.916l5.135-2.567,2.567,2.567-2.567,2.567v8.13l2.567,2.353,2.781,5.349,2.567,2.781,8.13,7.7h7.7l2.781-2.567,5.135,2.567,5.349,2.781,5.349,2.567h2.781l5.135-2.567h5.135l-2.567,5.135,2.567,2.781,2.781,2.567h10.483l5.349,2.567,2.567,2.781,2.781-2.781,4.921-2.567h8.344l2.353-2.567,3-2.781L263.6,544.6l2.567,2.567,7.916-2.567,2.781-2.567L282,544.6l2.567,2.567,8.13-2.567v-2.567h2.567l5.135-2.781h7.916l5.349-5.349,2.567,2.781,8.13-2.781,7.7,2.781H345.54l2.353,2.567h7.916l5.349-2.567,7.916,2.567,5.135,2.781h2.781l2.781-2.781h20.967l5.349,2.781,5.349,2.567,5.135,2.567,2.567,5.349h2.781l2.567-2.567h2.781l10.269-2.781,5.349,2.781,5.349-2.781h2.781l2.353,2.781,2.781,2.567h7.916l2.781-2.567h2.567l2.567,2.567,2.781,2.567,2.567,2.781h28.883l2.567-2.781,2.781-2.567,5.563-2.567h10.483l2.353,2.567,5.349,2.567h5.349v5.135h-2.567v5.349H535.31l2.781,2.567,2.567,2.781,2.567-2.781,5.349-4.921,5.349-3h2.567v7.916l-5.135,2.781h-2.781v7.916h-7.916v15.832l2.567,2.567" transform="translate(-91.8 -507.8)"/>
    <path id="Tracé_118" data-name="Tracé 118" class="cls-2" d="M91.8,549.947h10.7l5.135-2.781,2.781-2.567,5.349-2.567h2.567l5.135-2.781,2.781-5.349,5.349-2.353,2.567-2.781,5.349-5.349v-2.353l2.353-5.349,2.781-2.781h2.781v-2.567h7.916l5.135-2.567,2.567,2.567-2.567,2.567v8.13l2.567,2.353,2.781,5.349,2.567,2.781,8.13,7.7h7.7l2.781-2.567,5.135,2.567,5.349,2.781,5.349,2.567h2.781l5.135-2.567h5.135l-2.567,5.135,2.567,2.781,2.781,2.567h10.483l5.349,2.567,2.567,2.781,2.781-2.781,4.921-2.567h8.344l2.353-2.567,3-2.781L263.6,544.6l2.567,2.567,7.916-2.567,2.781-2.567L282,544.6l2.567,2.567,8.13-2.567v-2.567h2.567l5.135-2.781h7.916l5.349-5.349,2.567,2.781,8.13-2.781,7.7,2.781H345.54l2.353,2.567h7.916l5.349-2.567,7.916,2.567,5.135,2.781h2.781l2.781-2.781h20.967l5.349,2.781,5.349,2.567,5.135,2.567,2.567,5.349h2.781l2.567-2.567h2.781l10.269-2.781,5.349,2.781,5.349-2.781h2.781l2.353,2.781,2.781,2.567h7.916l2.781-2.567h2.567l2.567,2.567,2.781,2.567,2.567,2.781h28.883l2.567-2.781,2.781-2.567,5.563-2.567h10.483l2.353,2.567,5.349,2.567h5.349v5.135h-2.567v5.349H535.31l2.781,2.567,2.567,2.781,2.567-2.781,5.349-4.921,5.349-3h2.567v7.916l-5.135,2.781h-2.781v7.916h-7.916v15.832l2.567,2.567" transform="translate(-91.8 -507.8)"/>
  </g>
</svg>
