<svg xmlns="http://www.w3.org/2000/svg" viewBox="0 0 153.31 147.429">
  <defs>
    <style>
      .cls-1 {
        fill: #4664a2;
      }

      .cls-1, .cls-2 {
        stroke: #00050f;
        stroke-width: 0.25px;
      }

      .cls-2 {
        fill: none;
      }
    </style>
  </defs>
  <g id="Groupe_40" data-name="Groupe 40" transform="translate(0 0.271)">
    <path id="Tracé_79" data-name="Tracé 79" class="cls-1" d="M191.235,398.249l5.349-2.567h2.567v-2.567l7.916-2.781h5.349l2.567-5.135v-2.781h2.781l2.567,2.781,2.781-2.781-2.781-2.353h7.916v2.353h2.567L233.6,385.2h13.051v-2.781l2.781-2.353h5.349l2.567-2.781,2.567-2.567H252v-2.567h2.781V366.8H252V361.45l2.781-2.567,2.567-5.135h0l2.567-2.781v-5.135l2.567-2.781,2.567-2.567v-2.567l-2.567-2.567v-2.567L265.046,330v2.781h2.781L270.609,330h-2.781v-5.349h-2.781V322.3l2.781-2.781h2.781v-5.349h2.567V311.6h5.135v-2.567l-5.135-2.781h-2.567l-2.781,2.781,5.349-5.135h-2.567l-2.781-2.781V290.634l2.781-2.567,2.567-2.567,2.567,2.567V285.5h2.567l2.567-2.781V285.5h2.781l2.567-2.781,2.781-2.567h2.567v-2.567h2.567V274.8h2.567l2.781,2.781,2.567-2.781-2.567-2.567h2.567l2.781-5.135,2.567,5.135,2.781,2.567-2.781,5.349V285.5l2.781,2.567v2.567l-2.781,2.567v10.7h2.781l2.353,2.353h2.781v2.781l2.567,2.567v21.181L315.323,330h-5.135v2.781h2.353l5.349,2.567v2.567l2.781,2.567V348.4l-2.781,2.567-2.567,2.781h-2.781v5.135l2.781,2.567,2.567-2.567h2.781l2.567-2.567,2.781,2.567h5.135l5.349,2.567,2.781,2.781v7.916l-2.781,5.135v2.781l-2.781,2.353-2.567,2.781h-5.135v2.781h-8.13l-2.567,2.353h2.567v2.781l-2.567,2.567-2.781-2.567h-5.135v2.567l2.781,2.567,2.353,2.781h2.781l2.567,2.567,2.781-2.567h2.567l2.781,2.567-2.781,2.781-2.567,2.353h-2.781l-2.567,2.781-2.781,2.567-2.353-2.567h-2.781l-5.349,2.567-2.567-2.567H296.71l-2.567-2.781H280.878v-2.353h-5.135l-2.567-2.781-2.567-2.567-2.781,2.567v2.781h-5.349l-2.567-2.781h-5.135L252,406.379h-2.567V403.6l-2.781-2.567-2.567-2.781H233.6l-2.781-2.567-2.567,2.567V403.6l-2.781,2.781h-5.135l-2.567-2.781V401.03h-5.349l-5.349-2.781-5.135,2.781-2.781,2.567V401.03h-2.567V403.6h-5.349v-5.349h0Z" transform="translate(-186.1 -267.1)"/>
    <path id="Tracé_80" data-name="Tracé 80" class="cls-2" d="M191.235,398.249l5.349-2.567h2.567v-2.567l7.916-2.781h5.349l2.567-5.135v-2.781h2.781l2.567,2.781,2.781-2.781-2.781-2.353h7.916v2.353h2.567L233.6,385.2h13.051v-2.781l2.781-2.353h5.349l2.567-2.781,2.567-2.567H252v-2.567h2.781V366.8H252V361.45l2.781-2.567,2.567-5.135h0l2.567-2.781v-5.135l2.567-2.781,2.567-2.567v-2.567l-2.567-2.567v-2.567L265.046,330v2.781h2.781L270.609,330h-2.781v-5.349h-2.781V322.3l2.781-2.781h2.781v-5.349h2.567V311.6h5.135v-2.567l-5.135-2.781h-2.567l-2.781,2.781,5.349-5.135h-2.567l-2.781-2.781V290.634l2.781-2.567,2.567-2.567,2.567,2.567V285.5h2.567l2.567-2.781V285.5h2.781l2.567-2.781,2.781-2.567h2.567v-2.567h2.567V274.8h2.567l2.781,2.781,2.567-2.781-2.567-2.567h2.567l2.781-5.135,2.567,5.135,2.781,2.567-2.781,5.349V285.5l2.781,2.567v2.567l-2.781,2.567v10.7h2.781l2.353,2.353h2.781v2.781l2.567,2.567v21.181L315.323,330h-5.135v2.781h2.353l5.349,2.567v2.567l2.781,2.567V348.4l-2.781,2.567-2.567,2.781h-2.781v5.135l2.781,2.567,2.567-2.567h2.781l2.567-2.567,2.781,2.567h5.135l5.349,2.567,2.781,2.781v7.916l-2.781,5.135v2.781l-2.781,2.353-2.567,2.781h-5.135v2.781h-8.13l-2.567,2.353h2.567v2.781l-2.567,2.567-2.781-2.567h-5.135v2.567l2.781,2.567,2.353,2.781h2.781l2.567,2.567,2.781-2.567h2.567l2.781,2.567-2.781,2.781-2.567,2.353h-2.781l-2.567,2.781-2.781,2.567-2.353-2.567h-2.781l-5.349,2.567-2.567-2.567H296.71l-2.567-2.781H280.878v-2.353h-5.135l-2.567-2.781-2.567-2.567-2.781,2.567v2.781h-5.349l-2.567-2.781h-5.135L252,406.379h-2.567V403.6l-2.781-2.567-2.567-2.781H233.6l-2.781-2.567-2.567,2.567V403.6l-2.781,2.781h-5.135l-2.567-2.781V401.03h-5.349l-5.349-2.781-5.135,2.781-2.781,2.567V401.03h-2.567V403.6h-5.349v-5.349h0Z" transform="translate(-186.1 -267.1)"/>
  </g>
</svg>
