<svg xmlns="http://www.w3.org/2000/svg" viewBox="0 0 272.176 228.889">
  <defs>
    <style>
      .cls-1 {
        fill: #4664a2;
      }

      .cls-1, .cls-2 {
        stroke: #00050f;
        stroke-width: 0.25px;
      }

      .cls-2 {
        fill: none;
      }
    </style>
  </defs>
  <g id="Groupe_20" data-name="Groupe 20" transform="translate(0.125 0.27)">
    <path id="Tracé_39" data-name="Tracé 39" class="cls-1" d="M283.852,453.431h-2.567L278.5,450.65h-4.921l-5.349-2.568-3-2.781H254.756l-2.567-2.567-2.567-5.135h-5.349l-2.567-2.781h-10.7l-2.353-2.567h-5.349l-2.567-2.781-2.781-2.567h-2.567l-5.349-2.567h-2.781l-5.135-2.781V419.2h-5.349l-2.781-2.781h-7.488l-3-2.567-2.567-2.567-5.135,2.567-2.781-5.349-2.567-2.567V400.8l-5.349,2.353h-2.567l-2.781-2.353v2.353h-7.7l2.567,2.781-2.567,2.567-2.781,2.781V408.5l-2.567-2.567h-5.349l-2.567-2.781-2.567,5.349-2.781-2.567-2.567,2.567-2.781,2.781,2.781,2.567v2.567l2.567-2.567v2.567l-2.567,2.781H128.1v2.354h2.781V419.2h5.349v2.354l-2.781,2.781V426.9l-2.567,2.567h2.567v2.781l-2.567,2.567L128.1,432.25l-2.567,2.567v5.135h7.916V437.6l5.349,2.353h2.567v8.13h7.916l2.781,2.568h2.567l2.567,2.781,2.567,2.353v-2.353h5.349v2.353h5.349l2.567,2.781-2.567,2.567v5.349h2.567l2.781,2.567v2.567h-2.781V474.4h-5.135v2.353h-5.349v2.781h-2.781L157.2,482.1v2.567l-2.567,3v2.353l-2.567,2.781V503.28h-5.349v2.353l-5.349,5.349v2.781l-2.567,2.567V518.9h-2.567l-5.349-2.567v10.483l2.567,2.567v5.563l-2.567,2.353-2.781,2.567v2.781h-2.567l-2.781,2.567v2.781l-2.353,2.567,2.353,2.567h2.781v5.135h-2.781l-2.353,2.781h-5.349v2.567h-2.781v2.781l-2.567,2.567v10.269h5.349l2.567,3,2.781,2.354,2.353,2.781v2.567L128.1,592.5l2.781,2.781v2.567l-2.781,2.567h5.349l-2.567,5.135v3h-5.349L128.1,610.9v5.349l2.781,2.781h2.567l2.781,2.353,2.567,5.349,2.567-2.567v-2.781l5.349-2.353h5.349l2.567-2.781H157.2l5.349,2.781h2.567l2.781-5.349h5.135l5.135,2.567,2.781,2.781h5.563l2.353,5.135h15.832l5.349,2.567,2.567-2.567h5.349l2.781,2.567h2.567v2.567h2.353l3-2.567v-5.349l5.135-2.353v-2.781h5.349l2.567-2.567h7.916l5.135,2.567,3-2.567,5.135-2.781v-5.349l2.353-2.353h3l2.353-2.781v-2.567l5.349-2.567h7.916l5.349-5.349-2.567-2.567V584.58l-2.781-2.354V566.394l2.781-2.781,2.567-2.567,5.349-2.781,5.135-5.135h2.567l3-2.567,5.135-5.349,2.567-2.567,5.349-2.781h0V537.3h2.567v-2.353l2.781-3h26.315l5.135-2.567h2.781l2.567-2.567h7.916l2.781-2.567h2.567l2.567-2.781,2.781-2.567v-2.567l2.567-2.567v-8.13l-1.5-1.926-1.07,1.926h-2.781l-2.567-2.353-2.567,2.353-2.781-2.353h-7.916l-2.567-2.781-2.781-2.567H347.18l-2.353-2.567.428-3.423-1.926-2.353-2.353-2.14-3.637-2.781-3.209,3h-5.349v-3h-2.567l-5.349-2.567H318.3l-5.349-2.567v-2.781L307.6,474.4h-2.353l-5.563-5.349h-2.567l-2.567-2.567-2.567-2.781H289.2v-5.135l-2.567-2.781Z" transform="translate(-109.7 -400.8)"/>
    <path id="Tracé_40" data-name="Tracé 40" class="cls-2" d="M283.852,453.431h-2.567L278.5,450.65h-4.921l-5.349-2.568-3-2.781H254.756l-2.567-2.567-2.567-5.135h-5.349l-2.567-2.781h-10.7l-2.353-2.567h-5.349l-2.567-2.781-2.781-2.567h-2.567l-5.349-2.567h-2.781l-5.135-2.781V419.2h-5.349l-2.781-2.781h-7.488l-3-2.567-2.567-2.567-5.135,2.567-2.781-5.349-2.567-2.567V400.8l-5.349,2.353h-2.567l-2.781-2.353v2.353h-7.7l2.567,2.781-2.567,2.567-2.781,2.781V408.5l-2.567-2.567h-5.349l-2.567-2.781-2.567,5.349-2.781-2.567-2.567,2.567-2.781,2.781,2.781,2.567v2.567l2.567-2.567v2.567l-2.567,2.781H128.1v2.354h2.781V419.2h5.349v2.354l-2.781,2.781V426.9l-2.567,2.567h2.567v2.781l-2.567,2.567L128.1,432.25l-2.567,2.567v5.135h7.916V437.6l5.349,2.353h2.567v8.13h7.916l2.781,2.568h2.567l2.567,2.781,2.567,2.353v-2.353h5.349v2.353h5.349l2.567,2.781-2.567,2.567v5.349h2.567l2.781,2.567v2.567h-2.781V474.4h-5.135v2.353h-5.349v2.781h-2.781L157.2,482.1v2.567l-2.567,3v2.353l-2.567,2.781V503.28h-5.349v2.353l-5.349,5.349v2.781l-2.567,2.567V518.9h-2.567l-5.349-2.567v10.483l2.567,2.567v5.563l-2.567,2.353-2.781,2.567v2.781h-2.567l-2.781,2.567v2.781l-2.353,2.567,2.353,2.567h2.781v5.135h-2.781l-2.353,2.781h-5.349v2.567h-2.781v2.781l-2.567,2.567v10.269h5.349l2.567,3,2.781,2.354,2.353,2.781v2.567L128.1,592.5l2.781,2.781v2.567l-2.781,2.567h5.349l-2.567,5.135v3h-5.349L128.1,610.9v5.349l2.781,2.781h2.567l2.781,2.353,2.567,5.349,2.567-2.567v-2.781l5.349-2.353h5.349l2.567-2.781H157.2l5.349,2.781h2.567l2.781-5.349h5.135l5.135,2.567,2.781,2.781h5.563l2.353,5.135h15.832l5.349,2.567,2.567-2.567h5.349l2.781,2.567h2.567v2.567h2.353l3-2.567v-5.349l5.135-2.353v-2.781h5.349l2.567-2.567h7.916l5.135,2.567,3-2.567,5.135-2.781v-5.349l2.353-2.353h3l2.353-2.781v-2.567l5.349-2.567h7.916l5.349-5.349-2.567-2.567V584.58l-2.781-2.354V566.394l2.781-2.781,2.567-2.567,5.349-2.781,5.135-5.135h2.567l3-2.567,5.135-5.349,2.567-2.567,5.349-2.781h0V537.3h2.567v-2.353l2.781-3h26.315l5.135-2.567h2.781l2.567-2.567h7.916l2.781-2.567h2.567l2.567-2.781,2.781-2.567v-2.567l2.567-2.567v-8.13l-1.5-1.926-1.07,1.926h-2.781l-2.567-2.353-2.567,2.353-2.781-2.353h-7.916l-2.567-2.781-2.781-2.567H347.18l-2.353-2.567.428-3.423-1.926-2.353-2.353-2.14-3.637-2.781-3.209,3h-5.349v-3h-2.567l-5.349-2.567H318.3l-5.349-2.567v-2.781L307.6,474.4h-2.353l-5.563-5.349h-2.567l-2.567-2.567-2.567-2.781H289.2v-5.135l-2.567-2.781Z" transform="translate(-109.7 -400.8)"/>
  </g>
</svg>
