<svg xmlns="http://www.w3.org/2000/svg" viewBox="0 0 60.797 63.932">
  <defs>
    <style>
      .cls-1 {
        fill: #4664a2;
      }

      .cls-1, .cls-2 {
        stroke: #00050f;
        stroke-width: 0.25px;
      }

      .cls-2 {
        fill: none;
      }
    </style>
  </defs>
  <g id="Groupe_48" data-name="Groupe 48" transform="translate(0.125 0.318)">
    <path id="Tracé_95" data-name="Tracé 95" class="cls-1" d="M318.547,350.746l-5.349-5.135-2.353-2.781-2.781-2.781H305.5l-2.781,2.781h-2.567v-2.781l-7.916-2.353h-2.567l-2.567,2.353v2.781H276.613v-2.781l-2.781-2.353h-2.567v-3h-2.781l-2.567,3-2.781-3v3L258,340.049v7.916l2.781,2.781v2.567h5.135v5.349h5.349v2.567l2.567,5.135h7.916v8.13l-2.781,2.353,2.781,3H287.1v-3h2.567v3l2.567,2.353v2.781l2.781,2.567v2.567h2.567l2.567,2.781,2.567,2.567v2.567l2.781-2.567h2.567l.856-.428,1.07-4.493-1.5-3V382.2l2.567-2.353,2.567-3h2.353v-5.135h2.567v-5.349h-2.567l2.567-5.135V350.746Z" transform="translate(-258 -334.7)"/>
    <path id="Tracé_96" data-name="Tracé 96" class="cls-2" d="M318.547,350.746l-5.349-5.135-2.353-2.781-2.781-2.781H305.5l-2.781,2.781h-2.567v-2.781l-7.916-2.353h-2.567l-2.567,2.353v2.781H276.613v-2.781l-2.781-2.353h-2.567v-3h-2.781l-2.567,3-2.781-3v3L258,340.049v7.916l2.781,2.781v2.567h5.135v5.349h5.349v2.567l2.567,5.135h7.916v8.13l-2.781,2.353,2.781,3H287.1v-3h2.567v3l2.567,2.353v2.781l2.781,2.567v2.567h2.567l2.567,2.781,2.567,2.567v2.567l2.781-2.567h2.567l.856-.428,1.07-4.493-1.5-3V382.2l2.567-2.353,2.567-3h2.353v-5.135h2.567v-5.349h-2.567l2.567-5.135V350.746Z" transform="translate(-258 -334.7)"/>
  </g>
</svg>
