<svg xmlns="http://www.w3.org/2000/svg" viewBox="0 0 45.227 37.139">
  <defs>
    <style>
      .cls-1 {
        fill: #4664a2;
      }

      .cls-1, .cls-2 {
        stroke: #00050f;
        stroke-width: 0.25px;
      }

      .cls-2 {
        fill: none;
      }
    </style>
  </defs>
  <g id="Groupe_28" data-name="Groupe 28" transform="translate(0.174 0.125)">
    <path id="Tracé_55" data-name="Tracé 55" class="cls-1" d="M211.048,264.953h-8.13l-2.139,2.781-3,2.567v2.781l-2.567,2.353-2.567-2.353h-2.781v2.353l-2.567,3,2.567,2.353,2.781,2.781,2.567,2.567,2.567,2.781,3-2.781h5.135l5.135,2.781v2.567l2.567,2.567L216.4,299.4l2.567-2.781,2.567-2.567h5.349v-5.135l2.781-2.781v5.349h2.567v-5.349l-2.567-2.567-2.781,2.567-2.567-2.567,2.567-2.781h2.781v-5.349L226.88,270.3v-5.349h-7.916V262.6H216.4l-2.781,2.353Z" transform="translate(-187.3 -262.6)"/>
    <path id="Tracé_56" data-name="Tracé 56" class="cls-2" d="M211.048,264.953h-8.13l-2.139,2.781-3,2.567v2.781l-2.567,2.353-2.567-2.353h-2.781v2.353l-2.567,3,2.567,2.353,2.781,2.781,2.567,2.567,2.567,2.781,3-2.781h5.135l5.135,2.781v2.567l2.567,2.567L216.4,299.4l2.567-2.781,2.567-2.567h5.349v-5.135l2.781-2.781v5.349h2.567v-5.349l-2.567-2.567-2.781,2.567-2.567-2.567,2.567-2.781h2.781v-5.349L226.88,270.3v-5.349h-7.916V262.6H216.4l-2.781,2.353Z" transform="translate(-187.3 -262.6)"/>
  </g>
</svg>
