<svg xmlns="http://www.w3.org/2000/svg" viewBox="0 0 153.295 71.066">
  <defs>
    <style>
      .cls-1 {
        fill: #4664a2;
      }

      .cls-1, .cls-2 {
        stroke: #00050f;
        stroke-width: 0.25px;
      }

      .cls-2 {
        fill: none;
      }
    </style>
  </defs>
  <g id="Groupe_45" data-name="Groupe 45" transform="translate(0.125 0.125)">
    <path id="Tracé_89" data-name="Tracé 89" class="cls-1" d="M444.286,441.647V444h-2.567v2.781h-2.781V444H420.324v2.781l-2.353,2.567h-5.562l-2.567,2.567h-2.567l-2.781-2.567h-5.349l-2.567-2.567v2.567l-5.135-2.567h-2.567L386.093,444H373.042l-2.781-2.353-2.567-2.781V436.3l-2.781-2.567-2.567-2.781H349.08l-2.567-2.567h-2.781v2.567l-5.135,2.781h-5.349v-5.349H320.2l-2.781-2.781-2.567-2.353h-2.567v-2.781H309.5V417.9l2.781-2.781V412.55l2.567-2.567h2.567l2.781,2.567,2.353,2.567h2.781l2.781,2.781,2.567-2.781h2.567l2.781-5.135,5.135,2.567v2.567h5.349l2.567-2.567,2.781,2.567h5.349l2.567-2.567h10.483l2.781,2.567V412.55h2.567l5.135,2.567v5.349l2.781,2.781v-2.781h2.567v-5.349l-2.567-2.567v-5.135l-2.781-2.781v-7.916h8.13l2.567-2.567,2.567-2.567V388.8h7.916v-2.353h2.567l2.781,2.353h10.7l2.353-2.353V381.1h13.265l2.567,2.567h8.13l2.567,2.781h2.781V388.8l2.353,2.781H459.9l2.567,2.567-2.567,2.567,2.567,5.349H459.9l2.567,5.349v5.135l-2.567,2.567V417.9h-2.567v-2.781h-5.349V417.9l2.781,2.567V425.6h-2.781v5.349l-2.353,5.349h-2.781l-2.567,5.349v0Z" transform="translate(-309.5 -381.1)"/>
    <path id="Tracé_90" data-name="Tracé 90" class="cls-2" d="M444.286,441.647V444h-2.567v2.781h-2.781V444H420.324v2.781l-2.353,2.567h-5.562l-2.567,2.567h-2.567l-2.781-2.567h-5.349l-2.567-2.567v2.567l-5.135-2.567h-2.567L386.093,444H373.042l-2.781-2.353-2.567-2.781V436.3l-2.781-2.567-2.567-2.781H349.08l-2.567-2.567h-2.781v2.567l-5.135,2.781h-5.349v-5.349H320.2l-2.781-2.781-2.567-2.353h-2.567v-2.781H309.5V417.9l2.781-2.781V412.55l2.567-2.567h2.567l2.781,2.567,2.353,2.567h2.781l2.781,2.781,2.567-2.781h2.567l2.781-5.135,5.135,2.567v2.567h5.349l2.567-2.567,2.781,2.567h5.349l2.567-2.567h10.483l2.781,2.567V412.55h2.567l5.135,2.567v5.349l2.781,2.781v-2.781h2.567v-5.349l-2.567-2.567v-5.135l-2.781-2.781v-7.916h8.13l2.567-2.567,2.567-2.567V388.8h7.916v-2.353h2.567l2.781,2.353h10.7l2.353-2.353V381.1h13.265l2.567,2.567h8.13l2.567,2.781h2.781V388.8l2.353,2.781H459.9l2.567,2.567-2.567,2.567,2.567,5.349H459.9l2.567,5.349v5.135l-2.567,2.567V417.9h-2.567v-2.781h-5.349V417.9l2.781,2.567V425.6h-2.781v5.349l-2.353,5.349h-2.781l-2.567,5.349v0Z" transform="translate(-309.5 -381.1)"/>
  </g>
</svg>
