<svg xmlns="http://www.w3.org/2000/svg" viewBox="0 0 170.197 135.979">
  <defs>
    <style>
      .cls-1 {
        fill: #4664a2;
      }

      .cls-1, .cls-2 {
        stroke: #00050f;
        stroke-width: 0.25px;
      }

      .cls-2 {
        fill: none;
      }
    </style>
  </defs>
  <g id="Groupe_14" data-name="Groupe 14" transform="translate(0.17 0.125)">
    <path id="Tracé_27" data-name="Tracé 27" class="cls-1" d="M442.835,414.174V403.263l2.567-2.139h-5.135l-2.567-2.781,2.567-2.781,2.567-2.567,2.567-2.567,5.349-2.567v-5.135l-2.567-5.135,2.567-2.567v-2.353l-2.567-3-2.781-2.567-2.567-2.781V359.19l-2.567-5.135v-7.7h5.349v2.353h5.349l2.781-2.353,2.781-5.135h4.921l5.563-2.781,2.353,2.781v-2.781h2.353l2.567-5.349V320.466l10.483-2.781v-2.567h8.13l5.349-5.349-10.7-2.567,5.349-10.483h5.349l2.353-2.567,2.781,2.567,5.349-2.567,2.139-2.567L508.73,288.8l-2.781-2.353,4.921-2.781,5.349-2.567h5.349v2.567h15.618l2.781,2.781V288.8h2.353l5.135-2.353v-2.781h2.781l5.135,2.781,2.781,5.135h5.135v2.567l-2.567,2.567V299.5l4.921,7.7,3,7.916-5.349,2.567h7.7v5.349l8.13,2.139h2.353l5.349,2.567v7.7h12.837v5.777h5.349l2.567,5.135-2.567,2.353-2.781,2.781-2.567,2.567-4.921,2.781-3,2.353-4.921-2.353h-2.567v10.269l2.567,5.563,2.567,4.921v3l2.353,2.139,5.563,2.353-.428-2.353v5.135H576.123l-2.567,2.567v5.135l-2.781,5.563,2.781,5.135v7.916h-2.781l-5.349-5.349h-2.567l-2.567,2.567-7.916-2.567h-2.567l-2.567,2.567v2.781l-2.353,2.567-3-5.349-2.353-2.567-2.567,5.349-2.781-2.781-2.353-2.567h-5.349l-3,2.567h-7.7l-2.567-2.567h-2.781l-10.055-2.567-5.135-3-8.13-2.139h-7.488l-8.344,2.139H461.02l-4.921,3v2.567l-2.781,2.567-2.567,2.781-2.567-2.781H445.4l-2.567,5.349Z" transform="translate(-437.7 -281.1)"/>
    <path id="Tracé_28" data-name="Tracé 28" class="cls-2" d="M442.835,414.174V403.263l2.567-2.139h-5.135l-2.567-2.781,2.567-2.781,2.567-2.567,2.567-2.567,5.349-2.567v-5.135l-2.567-5.135,2.567-2.567v-2.353l-2.567-3-2.781-2.567-2.567-2.781V359.19l-2.567-5.135v-7.7h5.349v2.353h5.349l2.781-2.353,2.781-5.135h4.921l5.563-2.781,2.353,2.781v-2.781h2.353l2.567-5.349V320.466l10.483-2.781v-2.567h8.13l5.349-5.349-10.7-2.567,5.349-10.483h5.349l2.353-2.567,2.781,2.567,5.349-2.567,2.139-2.567L508.73,288.8l-2.781-2.353,4.921-2.781,5.349-2.567h5.349v2.567h15.618l2.781,2.781V288.8h2.353l5.135-2.353v-2.781h2.781l5.135,2.781,2.781,5.135h5.135v2.567l-2.567,2.567V299.5l4.921,7.7,3,7.916-5.349,2.567h7.7v5.349l8.13,2.139h2.353l5.349,2.567v7.7h12.837v5.777h5.349l2.567,5.135-2.567,2.353-2.781,2.781-2.567,2.567-4.921,2.781-3,2.353-4.921-2.353h-2.567v10.269l2.567,5.563,2.567,4.921v3l2.353,2.139,5.563,2.353-.428-2.353v5.135H576.123l-2.567,2.567v5.135l-2.781,5.563,2.781,5.135v7.916h-2.781l-5.349-5.349h-2.567l-2.567,2.567-7.916-2.567h-2.567l-2.567,2.567v2.781l-2.353,2.567-3-5.349-2.353-2.567-2.567,5.349-2.781-2.781-2.353-2.567h-5.349l-3,2.567h-7.7l-2.567-2.567h-2.781l-10.055-2.567-5.135-3-8.13-2.139h-7.488l-8.344,2.139H461.02l-4.921,3v2.567l-2.781,2.567-2.567,2.781-2.567-2.781H445.4l-2.567,5.349Z" transform="translate(-437.7 -281.1)"/>
  </g>
</svg>
