<svg xmlns="http://www.w3.org/2000/svg" viewBox="0 0 156.02 286.724">
  <defs>
    <style>
      .cls-1 {
        fill: #4664a2;
      }

      .cls-1, .cls-2 {
        stroke: #00050f;
        stroke-width: 0.25px;
      }

      .cls-2 {
        fill: none;
      }
    </style>
  </defs>
  <g id="Groupe_64" data-name="Groupe 64" transform="translate(0.125 0.125)">
    <path id="Tracé_127" data-name="Tracé 127" class="cls-1" d="M498.476,132.45h-2.567V119.613l2.567-2.781v-2.781l-2.567-2.567-2.781-2.567H490.56l-7.916-2.567L485.425,101h-2.781l-2.567,2.567-5.349,2.781h-5.349l-2.567,2.567v10.7l-2.567,5.349v7.488l-2.781,2.781L458.9,140.58v2.567h-2.781l-5.135,2.567-2.567-5.135h-2.781l-2.567,2.567h-7.916l-2.567-2.567h-5.349l-2.781-5.349V132.45l-5.135-2.567-2.567-2.567h-2.567L411.4,132.45V137.8l5.349,2.781,5.135,2.567v5.135h2.567l2.781,2.567H429.8l5.349,2.781,5.135,2.567h2.781v5.349l2.567,2.353v10.7l-2.567,2.781h5.349v7.7l2.567,2.781v2.567l2.567,2.781-2.567,2.353v13.479l2.567,5.135,2.567,2.353v5.563H458.9l2.567,2.567h5.349v2.781l2.567,2.353V243.06l2.567,2.567v2.567h-7.7v2.781l-5.349,7.916v2.567l-2.781,5.135-2.567,2.781-5.135,5.349v4.921l-5.349,2.781v0l-2.781,2.567-2.567,2.567v8.13l-5.135,2.353-2.781-2.353h-2.567v5.135l-5.349,5.349v7.7l2.567,2.781v5.135l-2.567,2.781v2.567l5.349,2.567v20.967l-5.349,2.781v7.916l5.349,7.7h7.916l2.567,2.781h7.916l2.781,5.349v4.921l2.567,2.781,2.567,2.567h10.7l2.567-5.349,2.567-2.353,2.567,5.135,2.781-2.781,2.567-2.353,5.349-2.567,7.916-2.567h5.349v-5.563l2.567-2.567,2.567,5.349,2.567-2.781,5.349-2.567,2.781-5.135,2.567,2.567h7.7l2.781-2.567,5.349-10.7,2.567-2.567,2.781-4.921,2.567-3,2.567-2.353,2.781-5.563,2.567-7.7v2.567h2.567l2.781-2.567-2.781-2.781,2.781-2.567v-5.349l2.567-2.353,2.781-2.781v-2.567l2.354-5.349,5.349-2.781,2.781-5.135-2.781-5.349-2.567-2.567-7.916-2.567-7.916-2.781-2.567-2.567-2.781-2.353h-2.567l-2.567-5.349h5.135l2.781-2.781V261.46l-2.781-2.567v-2.781h-5.135v-5.135l-5.349-2.781,5.349-2.567-2.781-2.567v-2.781l-2.567,2.781-2.781-2.781v-7.916l-2.568-2.567v-2.353l2.568-2.781-2.568-5.349,2.568-2.781V211.4l-2.568-5.135-2.781-5.349-2.139-2.781-5.563-2.567v-2.353l-2.567-2.781-2.781-5.349V172.244l2.781-3v-7.7l-5.349-5.349-5.349-2.567v-2.781l-2.567-2.567-2.567-2.567-2.781-2.567V140.58l2.781-2.781v-2.567Z" transform="translate(-411.4 -101)"/>
    <path id="Tracé_128" data-name="Tracé 128" class="cls-2" d="M498.476,132.45h-2.567V119.613l2.567-2.781v-2.781l-2.567-2.567-2.781-2.567H490.56l-7.916-2.567L485.425,101h-2.781l-2.567,2.567-5.349,2.781h-5.349l-2.567,2.567v10.7l-2.567,5.349v7.488l-2.781,2.781L458.9,140.58v2.567h-2.781l-5.135,2.567-2.567-5.135h-2.781l-2.567,2.567h-7.916l-2.567-2.567h-5.349l-2.781-5.349V132.45l-5.135-2.567-2.567-2.567h-2.567L411.4,132.45V137.8l5.349,2.781,5.135,2.567v5.135h2.567l2.781,2.567H429.8l5.349,2.781,5.135,2.567h2.781v5.349l2.567,2.353v10.7l-2.567,2.781h5.349v7.7l2.567,2.781v2.567l2.567,2.781-2.567,2.353v13.479l2.567,5.135,2.567,2.353v5.563H458.9l2.567,2.567h5.349v2.781l2.567,2.353V243.06l2.567,2.567v2.567h-7.7v2.781l-5.349,7.916v2.567l-2.781,5.135-2.567,2.781-5.135,5.349v4.921l-5.349,2.781v0l-2.781,2.567-2.567,2.567v8.13l-5.135,2.353-2.781-2.353h-2.567v5.135l-5.349,5.349v7.7l2.567,2.781v5.135l-2.567,2.781v2.567l5.349,2.567v20.967l-5.349,2.781v7.916l5.349,7.7h7.916l2.567,2.781h7.916l2.781,5.349v4.921l2.567,2.781,2.567,2.567h10.7l2.567-5.349,2.567-2.353,2.567,5.135,2.781-2.781,2.567-2.353,5.349-2.567,7.916-2.567h5.349v-5.563l2.567-2.567,2.567,5.349,2.567-2.781,5.349-2.567,2.781-5.135,2.567,2.567h7.7l2.781-2.567,5.349-10.7,2.567-2.567,2.781-4.921,2.567-3,2.567-2.353,2.781-5.563,2.567-7.7v2.567h2.567l2.781-2.567-2.781-2.781,2.781-2.567v-5.349l2.567-2.353,2.781-2.781v-2.567l2.354-5.349,5.349-2.781,2.781-5.135-2.781-5.349-2.567-2.567-7.916-2.567-7.916-2.781-2.567-2.567-2.781-2.353h-2.567l-2.567-5.349h5.135l2.781-2.781V261.46l-2.781-2.567v-2.781h-5.135v-5.135l-5.349-2.781,5.349-2.567-2.781-2.567v-2.781l-2.567,2.781-2.781-2.781v-7.916l-2.568-2.567v-2.353l2.568-2.781-2.568-5.349,2.568-2.781V211.4l-2.568-5.135-2.781-5.349-2.139-2.781-5.563-2.567v-2.353l-2.567-2.781-2.781-5.349V172.244l2.781-3v-7.7l-5.349-5.349-5.349-2.567v-2.781l-2.567-2.567-2.567-2.567-2.781-2.567V140.58l2.781-2.781v-2.567Z" transform="translate(-411.4 -101)"/>
  </g>
</svg>
