<svg xmlns="http://www.w3.org/2000/svg" viewBox="0 0 107.81 116.103">
  <defs>
    <style>
      .cls-1, .cls-2 {
        fill: none;
        stroke: #00050f;
      }

      .cls-2 {
        stroke-width: 0.25px;
      }
    </style>
  </defs>
  <g id="Groupe_4" data-name="Groupe 4" transform="translate(0.409 0.5)">
    <path id="Tracé_7" data-name="Tracé 7" class="cls-1" d="M678,388.573l5.563-7.916H688.7l2.567-2.567,2.567-5.349v-4.493l5.135-2.781,2.568-2.781,5.135-7.7,3.209-3,2.139,3,5.349-5.349,2.353-2.781h13.265l5.135-2.353h10.7l2.139,2.353-2.139,2.781,5.135,5.349,5.135,2.353v5.349l-2.781,2.781,2.781,7.274v5.349l2.781,5.349L767,386.219l2.354,2.353H767v2.567h-2.567l-5.349-2.567H746.249l-5.563,2.567-2.567,5.349v10.27l-5.135,5.563,5.135,2.353h10.7v2.781l-2.567,2.567h-5.563v3l-4.921,2.353-2.781-2.353H727.85l-5.135,2.353-3,4.921v5.349h3l7.7-3h5.349l7.7,5.563,2.781,2.567h4.707l3,5.135,2.353,7.916v5.135l2.781-2.567,2.781-2.567h2.567L767,456.394l5.349,2.567H774.7l5.135-2.567,2.567-2.567h3" transform="translate(-678 -344.5)"/>
    <path id="Tracé_8" data-name="Tracé 8" class="cls-2" d="M678,388.573l5.563-7.916H688.7l2.567-2.567,2.567-5.349v-4.493l5.135-2.781,2.568-2.781,5.135-7.7,3.209-3,2.139,3,5.349-5.349,2.353-2.781h13.265l5.135-2.353h10.7l2.139,2.353-2.139,2.781,5.135,5.349,5.135,2.353v5.349l-2.781,2.781,2.781,7.274v5.349l2.781,5.349L767,386.219l2.354,2.353H767v2.567h-2.567l-5.349-2.567H746.249l-5.563,2.567-2.567,5.349v10.27l-5.135,5.563,5.135,2.353h10.7v2.781l-2.567,2.567h-5.563v3l-4.921,2.353-2.781-2.353H727.85l-5.135,2.353-3,4.921v5.349h3l7.7-3h5.349l7.7,5.563,2.781,2.567h4.707l3,5.135,2.353,7.916v5.135l2.781-2.567,2.781-2.567h2.567L767,456.394l5.349,2.567H774.7l5.135-2.567,2.567-2.567h3" transform="translate(-678 -344.5)"/>
  </g>
</svg>
